M48
;Layer_Color=9474304
;FILE_FORMAT=2:4
INCH,LZ
;TYPE=PLATED
T01F00S00C0.0236
T02F00S00C0.0310
T03F00S00C0.0315
T04F00S00C0.0354
T05F00S00C0.0394
T07F00S00C0.0450
T08F00S00C0.0472
T09F00S00C0.0512
T10F00S00C0.1260
%
T01
X008541Y005152
X031026Y005551
X038447Y008269
X041693Y011356
X043802Y011038
Y011853
X043743Y016914
X043734Y017487
X045082Y007704
X030971Y021264
X028881Y021254
X024344Y016503
Y015576
X022298Y014143
X020499Y015335
X019914Y015725
X019486Y016105
X018287Y016522
X018154Y018574
X019911Y019848
X020269Y017407
X018808Y014843
X018476Y014365
X015842Y014539
X015817Y01533
X016346Y016271
X015334Y01757
X01874Y007644
X02213
X029449Y009205
X030468Y006978
X011999Y011865
X00854Y01299
X00855Y01687
X008541Y020321
X010561Y021597
X011747Y01921
X013872Y014988
X014444Y014621
X008541Y00878
X014935Y026802
X015169Y023788
X030584Y025495
X033114Y02456
X035198Y024213
T02
X031922Y012276
X032922
X033922
X034922
X035922
X036922
X037922
X038922
Y018376
X037922
X036922
X035922
X034922
X033922
X032922
X031922
T03
X005261Y005303
Y006303
X005296Y009147
Y010147
X005301Y013117
Y014117
X005265Y016802
Y017802
X005326Y020534
Y021534
X005343Y024064
Y025064
X00622Y028604
X007559
X011833Y024305
X012833
X020372
X021372
X026988
X027988
X030903Y027325
Y029325
T04
X016154Y020537
X017154
X018154Y020537
X019154Y020537
X014154
T05
X002921Y005484
X010482Y003787
X011482
X012482
X014882Y004449
Y002638
X017402
Y004449
X027087
Y002638
X029606
Y004449
X039528Y003819
X040528
X046697Y008205
Y009205
Y010205
Y011205
X046649Y014126
Y015126
Y016126
Y017126
X002939Y016885
Y017885
Y020558
Y021558
Y014217
Y013217
X002917Y010316
Y009316
X002921Y006484
X002939Y024164
Y025164
T07
X038646Y021223
X042662
Y02516
X038646
X037662Y023191
T08
X046113Y021201
Y023201
Y025201
T09
X021031Y00439
X023031
X034026
X036026
X040529Y028254
X042529
T10
X002047Y002047
X047559
X002047Y028655
X047559Y028661
M30
