G04*
G04 #@! TF.GenerationSoftware,Altium Limited,Altium Designer,23.11.1 (41)*
G04*
G04 Layer_Color=8388736*
%FSTAX24Y24*%
%MOIN*%
G70*
G04*
G04 #@! TF.SameCoordinates,027617FE-0855-4198-9E67-A804299B83E6*
G04*
G04*
G04 #@! TF.FilePolarity,Negative*
G04*
G01*
G75*
%ADD54R,0.0710X0.0946*%
G04:AMPARAMS|DCode=55|XSize=71mil|YSize=94.6mil|CornerRadius=19.7mil|HoleSize=0mil|Usage=FLASHONLY|Rotation=0.000|XOffset=0mil|YOffset=0mil|HoleType=Round|Shape=RoundedRectangle|*
%AMROUNDEDRECTD55*
21,1,0.0710,0.0551,0,0,0.0*
21,1,0.0315,0.0946,0,0,0.0*
1,1,0.0395,0.0157,-0.0276*
1,1,0.0395,-0.0157,-0.0276*
1,1,0.0395,-0.0157,0.0276*
1,1,0.0395,0.0157,0.0276*
%
%ADD55ROUNDEDRECTD55*%
%ADD56R,0.0867X0.0867*%
G04:AMPARAMS|DCode=57|XSize=45.3mil|YSize=53.1mil|CornerRadius=12.8mil|HoleSize=0mil|Usage=FLASHONLY|Rotation=270.000|XOffset=0mil|YOffset=0mil|HoleType=Round|Shape=RoundedRectangle|*
%AMROUNDEDRECTD57*
21,1,0.0453,0.0276,0,0,270.0*
21,1,0.0197,0.0531,0,0,270.0*
1,1,0.0256,-0.0138,-0.0098*
1,1,0.0256,-0.0138,0.0098*
1,1,0.0256,0.0138,0.0098*
1,1,0.0256,0.0138,-0.0098*
%
%ADD57ROUNDEDRECTD57*%
G04:AMPARAMS|DCode=58|XSize=47.4mil|YSize=55.2mil|CornerRadius=13.8mil|HoleSize=0mil|Usage=FLASHONLY|Rotation=90.000|XOffset=0mil|YOffset=0mil|HoleType=Round|Shape=RoundedRectangle|*
%AMROUNDEDRECTD58*
21,1,0.0474,0.0276,0,0,90.0*
21,1,0.0197,0.0552,0,0,90.0*
1,1,0.0277,0.0138,0.0098*
1,1,0.0277,0.0138,-0.0098*
1,1,0.0277,-0.0138,-0.0098*
1,1,0.0277,-0.0138,0.0098*
%
%ADD58ROUNDEDRECTD58*%
G04:AMPARAMS|DCode=59|XSize=45.3mil|YSize=53.1mil|CornerRadius=12.8mil|HoleSize=0mil|Usage=FLASHONLY|Rotation=0.000|XOffset=0mil|YOffset=0mil|HoleType=Round|Shape=RoundedRectangle|*
%AMROUNDEDRECTD59*
21,1,0.0453,0.0276,0,0,0.0*
21,1,0.0197,0.0531,0,0,0.0*
1,1,0.0256,0.0098,-0.0138*
1,1,0.0256,-0.0098,-0.0138*
1,1,0.0256,-0.0098,0.0138*
1,1,0.0256,0.0098,0.0138*
%
%ADD59ROUNDEDRECTD59*%
G04:AMPARAMS|DCode=60|XSize=47.4mil|YSize=55.2mil|CornerRadius=13.8mil|HoleSize=0mil|Usage=FLASHONLY|Rotation=180.000|XOffset=0mil|YOffset=0mil|HoleType=Round|Shape=RoundedRectangle|*
%AMROUNDEDRECTD60*
21,1,0.0474,0.0276,0,0,180.0*
21,1,0.0197,0.0552,0,0,180.0*
1,1,0.0277,-0.0098,0.0138*
1,1,0.0277,0.0098,0.0138*
1,1,0.0277,0.0098,-0.0138*
1,1,0.0277,-0.0098,-0.0138*
%
%ADD60ROUNDEDRECTD60*%
%ADD61R,0.0474X0.0552*%
%ADD62R,0.0552X0.0474*%
%ADD63R,0.0474X0.0749*%
%ADD64R,0.0530X0.0430*%
G04:AMPARAMS|DCode=65|XSize=71mil|YSize=94.6mil|CornerRadius=19.7mil|HoleSize=0mil|Usage=FLASHONLY|Rotation=90.000|XOffset=0mil|YOffset=0mil|HoleType=Round|Shape=RoundedRectangle|*
%AMROUNDEDRECTD65*
21,1,0.0710,0.0551,0,0,90.0*
21,1,0.0315,0.0946,0,0,90.0*
1,1,0.0395,0.0276,0.0157*
1,1,0.0395,0.0276,-0.0157*
1,1,0.0395,-0.0276,-0.0157*
1,1,0.0395,-0.0276,0.0157*
%
%ADD65ROUNDEDRECTD65*%
%ADD66R,0.0946X0.0710*%
G04:AMPARAMS|DCode=67|XSize=71mil|YSize=134mil|CornerRadius=19.7mil|HoleSize=0mil|Usage=FLASHONLY|Rotation=0.000|XOffset=0mil|YOffset=0mil|HoleType=Round|Shape=RoundedRectangle|*
%AMROUNDEDRECTD67*
21,1,0.0710,0.0945,0,0,0.0*
21,1,0.0315,0.1340,0,0,0.0*
1,1,0.0395,0.0157,-0.0472*
1,1,0.0395,-0.0157,-0.0472*
1,1,0.0395,-0.0157,0.0472*
1,1,0.0395,0.0157,0.0472*
%
%ADD67ROUNDEDRECTD67*%
%ADD68O,0.0867X0.0316*%
%ADD69R,0.2245X0.0926*%
%ADD70O,0.0768X0.0217*%
%ADD71R,0.0430X0.0530*%
%ADD72R,0.0749X0.0474*%
%ADD73R,0.1064X0.1064*%
%ADD74R,0.0671X0.0671*%
%ADD75C,0.0671*%
%ADD76O,0.0592X0.0671*%
%ADD77R,0.0592X0.0671*%
%ADD78O,0.1080X0.0980*%
%ADD79O,0.0671X0.0592*%
%ADD80R,0.0671X0.0592*%
%ADD81C,0.0867*%
G04:AMPARAMS|DCode=82|XSize=86.7mil|YSize=86.7mil|CornerRadius=0mil|HoleSize=0mil|Usage=FLASHONLY|Rotation=180.000|XOffset=0mil|YOffset=0mil|HoleType=Round|Shape=Octagon|*
%AMOCTAGOND82*
4,1,8,-0.0434,0.0217,-0.0434,-0.0217,-0.0217,-0.0434,0.0217,-0.0434,0.0434,-0.0217,0.0434,0.0217,0.0217,0.0434,-0.0217,0.0434,-0.0434,0.0217,0.0*
%
%ADD82OCTAGOND82*%

%ADD83C,0.2913*%
%ADD84R,0.0680X0.0980*%
%ADD85O,0.0680X0.0980*%
%ADD86O,0.1104X0.0631*%
%ADD87O,0.1024X0.0709*%
G04:AMPARAMS|DCode=88|XSize=86.7mil|YSize=86.7mil|CornerRadius=0mil|HoleSize=0mil|Usage=FLASHONLY|Rotation=270.000|XOffset=0mil|YOffset=0mil|HoleType=Round|Shape=Octagon|*
%AMOCTAGOND88*
4,1,8,-0.0217,-0.0434,0.0217,-0.0434,0.0434,-0.0217,0.0434,0.0217,0.0217,0.0434,-0.0217,0.0434,-0.0434,0.0217,-0.0434,-0.0217,-0.0217,-0.0434,0.0*
%
%ADD88OCTAGOND88*%

%ADD89R,0.1064X0.0867*%
%ADD90C,0.0710*%
%ADD91R,0.0710X0.0710*%
D54*
X025197Y025267D02*
D03*
X018614Y025341D02*
D03*
X027756Y015551D02*
D03*
X010157Y025348D02*
D03*
X014935Y027875D02*
D03*
D55*
X025197Y023535D02*
D03*
X018614Y023609D02*
D03*
X027756Y013819D02*
D03*
X010157Y023616D02*
D03*
X014935Y029607D02*
D03*
D56*
X012872Y028707D02*
D03*
X009872D02*
D03*
D57*
X007919Y024175D02*
D03*
Y023388D02*
D03*
X029501Y012281D02*
D03*
Y011493D02*
D03*
X012482Y005999D02*
D03*
Y006787D02*
D03*
X029501Y010709D02*
D03*
Y009921D02*
D03*
X011436Y0086D02*
D03*
Y007812D02*
D03*
X010368Y0086D02*
D03*
Y007812D02*
D03*
X031026Y004488D02*
D03*
Y003701D02*
D03*
X018425Y004476D02*
D03*
Y003688D02*
D03*
X042165Y012327D02*
D03*
Y013115D02*
D03*
X041203Y012327D02*
D03*
Y013115D02*
D03*
X042165Y016972D02*
D03*
Y017759D02*
D03*
X041203Y016972D02*
D03*
Y017759D02*
D03*
X007816Y007992D02*
D03*
Y00878D02*
D03*
X006983Y00878D02*
D03*
Y007992D02*
D03*
X007007Y005152D02*
D03*
Y004365D02*
D03*
X007777D02*
D03*
Y005152D02*
D03*
X00701Y020307D02*
D03*
Y01952D02*
D03*
X007849Y019513D02*
D03*
Y020301D02*
D03*
X007781Y01605D02*
D03*
Y016837D02*
D03*
X006948Y016837D02*
D03*
Y01605D02*
D03*
X007145Y024175D02*
D03*
Y023388D02*
D03*
X007824Y012208D02*
D03*
Y012996D02*
D03*
X006963Y012996D02*
D03*
Y012208D02*
D03*
X026328Y017536D02*
D03*
Y016749D02*
D03*
X030492Y024166D02*
D03*
Y024953D02*
D03*
D58*
X028612Y011493D02*
D03*
Y012281D02*
D03*
X010419Y005999D02*
D03*
Y006787D02*
D03*
X012482Y0086D02*
D03*
X042165Y014638D02*
D03*
Y015425D02*
D03*
X041203Y014638D02*
D03*
Y015425D02*
D03*
X027749Y011493D02*
D03*
Y012281D02*
D03*
X007006Y009704D02*
D03*
Y010492D02*
D03*
X007007Y005865D02*
D03*
Y006652D02*
D03*
X006963Y014594D02*
D03*
Y013807D02*
D03*
X006948Y018436D02*
D03*
Y017648D02*
D03*
X007013Y021912D02*
D03*
Y021125D02*
D03*
X027989Y027458D02*
D03*
Y028245D02*
D03*
X016386Y028662D02*
D03*
Y027875D02*
D03*
X022419Y020565D02*
D03*
Y021352D02*
D03*
X029426Y024167D02*
D03*
Y024954D02*
D03*
D59*
X024977Y027724D02*
D03*
X025764D02*
D03*
X045232Y011041D02*
D03*
X044444D02*
D03*
X045232Y011853D02*
D03*
X044444D02*
D03*
X045183Y017846D02*
D03*
X044396D02*
D03*
X045183Y016976D02*
D03*
X044396D02*
D03*
X034782Y022613D02*
D03*
X033994D02*
D03*
X038502Y029331D02*
D03*
X037715D02*
D03*
X025786Y02694D02*
D03*
X024999D02*
D03*
X017292Y022145D02*
D03*
X018079D02*
D03*
X021342Y017363D02*
D03*
X02213D02*
D03*
X023937D02*
D03*
X02315D02*
D03*
X014384Y022933D02*
D03*
X015171D02*
D03*
X030324Y021264D02*
D03*
X029536D02*
D03*
D60*
X006417Y026339D02*
D03*
X00563D02*
D03*
X037624Y027545D02*
D03*
X034725Y024773D02*
D03*
X007067Y024969D02*
D03*
X007854D02*
D03*
X023121Y014094D02*
D03*
X023908D02*
D03*
X015165Y022109D02*
D03*
X015912Y018829D02*
D03*
X016699D02*
D03*
X015912Y017895D02*
D03*
X016699D02*
D03*
X012675Y02246D02*
D03*
X011888D02*
D03*
X021265Y022559D02*
D03*
X020478D02*
D03*
D61*
X038412Y027545D02*
D03*
X033938Y024773D02*
D03*
X014378Y022109D02*
D03*
D62*
X012482Y007812D02*
D03*
D63*
X035237Y023589D02*
D03*
X033938D02*
D03*
D64*
X031751Y024953D02*
D03*
Y024166D02*
D03*
X032538Y02456D02*
D03*
X028024Y017143D02*
D03*
X027236Y016749D02*
D03*
Y017536D02*
D03*
D65*
X03639Y027541D02*
D03*
X03458Y029348D02*
D03*
X03115Y022559D02*
D03*
D66*
X034658Y027541D02*
D03*
X036312Y029348D02*
D03*
X029418Y022559D02*
D03*
D67*
X02334Y028897D02*
D03*
X025624D02*
D03*
D68*
X020956Y02788D02*
D03*
Y02838D02*
D03*
Y02888D02*
D03*
Y02938D02*
D03*
X018751Y02788D02*
D03*
Y02838D02*
D03*
Y02888D02*
D03*
Y02938D02*
D03*
D69*
X024544Y019424D02*
D03*
Y020999D02*
D03*
D70*
X015126Y016824D02*
D03*
Y016568D02*
D03*
Y016312D02*
D03*
Y016056D02*
D03*
Y0158D02*
D03*
Y015544D02*
D03*
Y015288D02*
D03*
Y015033D02*
D03*
Y014777D02*
D03*
Y014521D02*
D03*
X01741Y016824D02*
D03*
Y016568D02*
D03*
Y016312D02*
D03*
Y016056D02*
D03*
Y0158D02*
D03*
Y015544D02*
D03*
Y015288D02*
D03*
Y015033D02*
D03*
Y014777D02*
D03*
Y014521D02*
D03*
D71*
X023514Y016364D02*
D03*
X023908Y015576D02*
D03*
X023121D02*
D03*
D72*
X025101Y016273D02*
D03*
Y014973D02*
D03*
D73*
X040529Y028254D02*
D03*
X042529D02*
D03*
X036026Y00439D02*
D03*
X034026D02*
D03*
X023031D02*
D03*
X021031D02*
D03*
D74*
X030903Y029325D02*
D03*
D75*
Y027325D02*
D03*
X007559Y028604D02*
D03*
X00622D02*
D03*
D76*
X020372Y024305D02*
D03*
X011833D02*
D03*
X026988D02*
D03*
D77*
X021372D02*
D03*
X012833D02*
D03*
X027988D02*
D03*
D78*
X038646Y02516D02*
D03*
X042662Y021223D02*
D03*
X037662Y023191D02*
D03*
X042662Y02516D02*
D03*
X038646Y021223D02*
D03*
D79*
X005326Y021534D02*
D03*
X005343Y025064D02*
D03*
X005296Y010147D02*
D03*
X005265Y017802D02*
D03*
X005261Y006303D02*
D03*
X005301Y014117D02*
D03*
D80*
X005326Y020534D02*
D03*
X005343Y024064D02*
D03*
X005296Y009147D02*
D03*
X005265Y016802D02*
D03*
X005261Y005303D02*
D03*
X005301Y013117D02*
D03*
D81*
X002921Y006484D02*
D03*
X002939Y014217D02*
D03*
Y025164D02*
D03*
Y021558D02*
D03*
Y017885D02*
D03*
X046649Y016126D02*
D03*
Y015126D02*
D03*
Y014126D02*
D03*
X046697Y010205D02*
D03*
Y009205D02*
D03*
Y008205D02*
D03*
X010482Y003787D02*
D03*
X011482D02*
D03*
X039528Y003819D02*
D03*
X002917Y010316D02*
D03*
D82*
X002921Y005484D02*
D03*
X002939Y013217D02*
D03*
Y024164D02*
D03*
Y020558D02*
D03*
Y016885D02*
D03*
X046649Y017126D02*
D03*
X046697Y011205D02*
D03*
X002917Y009316D02*
D03*
D83*
X002047Y028655D02*
D03*
Y002047D02*
D03*
X047559D02*
D03*
Y028661D02*
D03*
D84*
X031922Y012276D02*
D03*
D85*
X032922D02*
D03*
X033922D02*
D03*
X034922D02*
D03*
X035922D02*
D03*
X036922D02*
D03*
X037922D02*
D03*
X038922D02*
D03*
X031922Y018376D02*
D03*
X032922D02*
D03*
X033922D02*
D03*
X034922D02*
D03*
X035922D02*
D03*
X036922D02*
D03*
X037922D02*
D03*
X038922D02*
D03*
D86*
X046316Y004655D02*
D03*
X043166Y006407D02*
D03*
X045135Y004655D02*
D03*
X04356D02*
D03*
D87*
X017402Y004449D02*
D03*
X014882Y002638D02*
D03*
Y004449D02*
D03*
X017402Y002638D02*
D03*
X027087D02*
D03*
X029606Y004449D02*
D03*
Y002638D02*
D03*
X027087Y004449D02*
D03*
D88*
X012482Y003787D02*
D03*
X040528Y003819D02*
D03*
D89*
X046113Y023201D02*
D03*
Y021201D02*
D03*
Y025201D02*
D03*
D90*
X019154Y020537D02*
D03*
X017154D02*
D03*
X016154D02*
D03*
X018154Y020537D02*
D03*
D91*
X014154Y020537D02*
D03*
M02*
