G04*
G04 #@! TF.GenerationSoftware,Altium Limited,Altium Designer,23.11.1 (41)*
G04*
G04 Layer_Physical_Order=2*
G04 Layer_Color=16711680*
%FSTAX24Y24*%
%MOIN*%
G70*
G04*
G04 #@! TF.SameCoordinates,027617FE-0855-4198-9E67-A804299B83E6*
G04*
G04*
G04 #@! TF.FilePolarity,Positive*
G04*
G01*
G75*
%ADD14C,0.0150*%
%ADD17C,0.0630*%
%ADD92C,0.0250*%
%ADD93C,0.0300*%
%ADD95R,0.0984X0.0984*%
%ADD96R,0.0591X0.0591*%
%ADD97C,0.0591*%
%ADD98O,0.0512X0.0591*%
%ADD99R,0.0512X0.0591*%
%ADD100O,0.1000X0.0900*%
%ADD101O,0.0591X0.0512*%
%ADD102R,0.0591X0.0512*%
%ADD103C,0.0787*%
G04:AMPARAMS|DCode=104|XSize=78.7mil|YSize=78.7mil|CornerRadius=0mil|HoleSize=0mil|Usage=FLASHONLY|Rotation=180.000|XOffset=0mil|YOffset=0mil|HoleType=Round|Shape=Octagon|*
%AMOCTAGOND104*
4,1,8,-0.0394,0.0197,-0.0394,-0.0197,-0.0197,-0.0394,0.0197,-0.0394,0.0394,-0.0197,0.0394,0.0197,0.0197,0.0394,-0.0197,0.0394,-0.0394,0.0197,0.0*
%
%ADD104OCTAGOND104*%

%ADD105C,0.2835*%
%ADD106R,0.0600X0.0900*%
%ADD107O,0.0600X0.0900*%
%ADD108O,0.1024X0.0551*%
%ADD109O,0.0945X0.0630*%
G04:AMPARAMS|DCode=110|XSize=78.7mil|YSize=78.7mil|CornerRadius=0mil|HoleSize=0mil|Usage=FLASHONLY|Rotation=270.000|XOffset=0mil|YOffset=0mil|HoleType=Round|Shape=Octagon|*
%AMOCTAGOND110*
4,1,8,-0.0197,-0.0394,0.0197,-0.0394,0.0394,-0.0197,0.0394,0.0197,0.0197,0.0394,-0.0197,0.0394,-0.0394,0.0197,-0.0394,-0.0197,-0.0197,-0.0394,0.0*
%
%ADD110OCTAGOND110*%

%ADD111R,0.0984X0.0787*%
%ADD112R,0.0630X0.0630*%
%ADD113C,0.0472*%
G36*
X043602Y030577D02*
Y026315D01*
X041535D01*
X041531Y026315D01*
X041495D01*
X041456Y026307D01*
X041384Y026277D01*
X041351Y026255D01*
X041326Y026229D01*
X041323Y026227D01*
X041321Y026225D01*
X041295Y026199D01*
X041275Y026168D01*
X036029D01*
Y019733D01*
X036056Y01976D01*
X049474D01*
X049474Y000132D01*
X000132Y000132D01*
X000132Y007609D01*
X000132Y022963D01*
Y030577D01*
X043602Y030577D01*
D02*
G37*
%LPC*%
G36*
X031498Y029921D02*
X030307D01*
Y02873D01*
X031498D01*
Y029921D01*
D02*
G37*
G36*
X006345Y029186D02*
Y028729D01*
X006803D01*
X006793Y028777D01*
X006748Y028886D01*
X006683Y028983D01*
X0066Y029066D01*
X006502Y029131D01*
X006394Y029176D01*
X006345Y029186D01*
D02*
G37*
G36*
X006095Y029186D02*
X006047Y029176D01*
X005939Y029131D01*
X005841Y029066D01*
X005758Y028983D01*
X005693Y028886D01*
X005648Y028777D01*
X005638Y028729D01*
X006095D01*
Y029186D01*
D02*
G37*
G36*
X041321Y029046D02*
X040654D01*
Y028379D01*
X041321D01*
Y029046D01*
D02*
G37*
G36*
X040404D02*
X039737D01*
Y028379D01*
X040404D01*
Y029046D01*
D02*
G37*
G36*
X006095Y028479D02*
X005638D01*
X005648Y02843D01*
X005693Y028322D01*
X005758Y028224D01*
X005841Y028141D01*
X005939Y028076D01*
X006047Y028031D01*
X006095Y028022D01*
Y028479D01*
D02*
G37*
G36*
X006803D02*
X006345D01*
Y028022D01*
X006394Y028031D01*
X006502Y028076D01*
X0066Y028141D01*
X006683Y028224D01*
X006748Y028322D01*
X006793Y02843D01*
X006803Y028479D01*
D02*
G37*
G36*
X007618Y029199D02*
X0075D01*
X007385Y029176D01*
X007277Y029131D01*
X00718Y029066D01*
X007097Y028983D01*
X007032Y028886D01*
X006987Y028777D01*
X006964Y028662D01*
Y028545D01*
X006987Y02843D01*
X007032Y028322D01*
X007097Y028224D01*
X00718Y028141D01*
X007277Y028076D01*
X007385Y028031D01*
X0075Y028009D01*
X007618D01*
X007733Y028031D01*
X007841Y028076D01*
X007939Y028141D01*
X008021Y028224D01*
X008087Y028322D01*
X008131Y02843D01*
X008154Y028545D01*
Y028662D01*
X008131Y028777D01*
X008087Y028886D01*
X008021Y028983D01*
X007939Y029066D01*
X007841Y029131D01*
X007733Y029176D01*
X007618Y029199D01*
D02*
G37*
G36*
X043321Y029046D02*
X041737D01*
Y027462D01*
X043321D01*
Y029046D01*
D02*
G37*
G36*
X041321Y028129D02*
X040654D01*
Y027462D01*
X041321D01*
Y028129D01*
D02*
G37*
G36*
X040404D02*
X039737D01*
Y027462D01*
X040404D01*
Y028129D01*
D02*
G37*
G36*
X031028Y027907D02*
Y02745D01*
X031485D01*
X031475Y027499D01*
X03143Y027607D01*
X031365Y027705D01*
X031282Y027788D01*
X031185Y027853D01*
X031076Y027898D01*
X031028Y027907D01*
D02*
G37*
G36*
X030778D02*
X030729Y027898D01*
X030621Y027853D01*
X030523Y027788D01*
X03044Y027705D01*
X030375Y027607D01*
X03033Y027499D01*
X030321Y02745D01*
X030778D01*
Y027907D01*
D02*
G37*
G36*
X00216Y030373D02*
X001935D01*
X001711Y030343D01*
X001494Y030285D01*
X001286Y030199D01*
X001091Y030086D01*
X000913Y029949D01*
X000753Y02979D01*
X000616Y029612D01*
X000504Y029417D01*
X000418Y029209D01*
X000359Y028991D01*
X00033Y028768D01*
Y028543D01*
X000359Y02832D01*
X000418Y028102D01*
X000504Y027894D01*
X000616Y027699D01*
X000753Y027521D01*
X000913Y027361D01*
X001091Y027224D01*
X001286Y027112D01*
X001494Y027026D01*
X001711Y026967D01*
X001935Y026938D01*
X00216D01*
X002383Y026967D01*
X0026Y027026D01*
X002808Y027112D01*
X003003Y027224D01*
X003182Y027361D01*
X003341Y027521D01*
X003478Y027699D01*
X003591Y027894D01*
X003677Y028102D01*
X003735Y02832D01*
X003765Y028543D01*
Y028768D01*
X003735Y028991D01*
X003677Y029209D01*
X003591Y029417D01*
X003478Y029612D01*
X003341Y02979D01*
X003182Y029949D01*
X003003Y030086D01*
X002808Y030199D01*
X0026Y030285D01*
X002383Y030343D01*
X00216Y030373D01*
D02*
G37*
G36*
X01506Y027006D02*
Y026927D01*
X015139D01*
X015135Y026936D01*
X015069Y027002D01*
X01506Y027006D01*
D02*
G37*
G36*
X01481D02*
X014801Y027002D01*
X014735Y026936D01*
X014731Y026927D01*
X01481D01*
Y027006D01*
D02*
G37*
G36*
X030778Y0272D02*
X030321D01*
X03033Y027152D01*
X030375Y027043D01*
X03044Y026946D01*
X030523Y026863D01*
X030621Y026798D01*
X030729Y026753D01*
X030778Y026743D01*
Y0272D01*
D02*
G37*
G36*
X031485D02*
X031028D01*
Y026743D01*
X031076Y026753D01*
X031185Y026798D01*
X031282Y026863D01*
X031365Y026946D01*
X03143Y027043D01*
X031475Y027152D01*
X031485Y0272D01*
D02*
G37*
G36*
X015139Y026677D02*
X01506D01*
Y026598D01*
X015069Y026602D01*
X015135Y026668D01*
X015139Y026677D01*
D02*
G37*
G36*
X01481D02*
X014731D01*
X014735Y026668D01*
X014801Y026602D01*
X01481Y026598D01*
Y026677D01*
D02*
G37*
G36*
X028544Y0249D02*
X027432D01*
Y024756D01*
X0274Y024745D01*
X027382Y024742D01*
X027269Y02483D01*
X027133Y024886D01*
X027113Y024888D01*
Y024305D01*
X026988D01*
D01*
X027113D01*
Y023721D01*
X027133Y023724D01*
X027269Y02378D01*
X027382Y023867D01*
X0274Y023864D01*
X027432Y023853D01*
Y023709D01*
X028544D01*
Y0249D01*
D02*
G37*
G36*
X021927D02*
X020816D01*
Y024756D01*
X020783Y024745D01*
X020766Y024742D01*
X020652Y02483D01*
X020517Y024886D01*
X020497Y024888D01*
Y024305D01*
Y023721D01*
X020517Y023724D01*
X020652Y02378D01*
X020766Y023867D01*
X020783Y023864D01*
X020816Y023853D01*
Y023709D01*
X021927D01*
Y0249D01*
D02*
G37*
G36*
X013388D02*
X012277D01*
Y024756D01*
X012244Y024745D01*
X012227Y024742D01*
X012113Y02483D01*
X011978Y024886D01*
X011958Y024888D01*
Y024305D01*
Y023721D01*
X011978Y023724D01*
X012113Y02378D01*
X012227Y023867D01*
X012244Y023864D01*
X012277Y023853D01*
Y023709D01*
X013388D01*
Y0249D01*
D02*
G37*
G36*
X011708Y024888D02*
X011687Y024886D01*
X011552Y02483D01*
X011436Y024741D01*
X011347Y024624D01*
X011291Y024489D01*
X011283Y02443D01*
X011708D01*
Y024888D01*
D02*
G37*
G36*
X020247D02*
X020226Y024886D01*
X020091Y02483D01*
X019975Y024741D01*
X019886Y024624D01*
X01983Y024489D01*
X019822Y02443D01*
X020247D01*
Y024888D01*
D02*
G37*
G36*
X026863D02*
X026843Y024886D01*
X026708Y02483D01*
X026592Y024741D01*
X026503Y024624D01*
X026447Y024489D01*
X026439Y02443D01*
X026863D01*
Y024888D01*
D02*
G37*
G36*
X015294Y023992D02*
Y023913D01*
X015373D01*
X01537Y023922D01*
X015303Y023988D01*
X015294Y023992D01*
D02*
G37*
G36*
X015044D02*
X015036Y023988D01*
X014969Y023922D01*
X014965Y023913D01*
X015044D01*
Y023992D01*
D02*
G37*
G36*
X033158Y024896D02*
X03307D01*
X032984Y024873D01*
X032908Y024829D01*
X032845Y024766D01*
X032801Y024689D01*
X032778Y024604D01*
Y024515D01*
X032801Y02443D01*
X032845Y024353D01*
X032908Y024291D01*
X032984Y024246D01*
X03307Y024223D01*
X033158D01*
X033244Y024246D01*
X03332Y024291D01*
X03336Y02433D01*
X034696D01*
X034863Y024163D01*
X034884Y024083D01*
X034929Y024006D01*
X034991Y023944D01*
X035068Y023899D01*
X035153Y023877D01*
X035242D01*
X035327Y023899D01*
X035404Y023944D01*
X035467Y024006D01*
X035511Y024083D01*
X035534Y024168D01*
Y024257D01*
X035511Y024343D01*
X035467Y024419D01*
X035404Y024482D01*
X035327Y024526D01*
X035242Y024549D01*
X035153D01*
X035131Y024543D01*
X034953Y024722D01*
X034878Y024771D01*
X034791Y024789D01*
X03336D01*
X03332Y024829D01*
X033244Y024873D01*
X033158Y024896D01*
D02*
G37*
G36*
X011708Y02418D02*
X011283D01*
X011291Y02412D01*
X011347Y023985D01*
X011436Y023869D01*
X011552Y02378D01*
X011687Y023724D01*
X011708Y023721D01*
Y02418D01*
D02*
G37*
G36*
X020247D02*
X019822D01*
X01983Y02412D01*
X019886Y023985D01*
X019975Y023869D01*
X020091Y02378D01*
X020226Y023724D01*
X020247Y023721D01*
Y02418D01*
D02*
G37*
G36*
X026863D02*
X026439D01*
X026447Y02412D01*
X026503Y023985D01*
X026592Y023869D01*
X026708Y02378D01*
X026843Y023724D01*
X026863Y023721D01*
Y02418D01*
D02*
G37*
G36*
X015373Y023663D02*
X015294D01*
Y023584D01*
X015303Y023588D01*
X01537Y023654D01*
X015373Y023663D01*
D02*
G37*
G36*
X015044D02*
X014965D01*
X014969Y023654D01*
X015036Y023588D01*
X015044Y023584D01*
Y023663D01*
D02*
G37*
G36*
X005382Y025625D02*
X005303D01*
X005158Y025606D01*
X005023Y02555D01*
X004907Y025461D01*
X004818Y025345D01*
X004762Y025209D01*
X004743Y025064D01*
X004762Y024919D01*
X004818Y024784D01*
X004905Y02467D01*
X004902Y024653D01*
X004891Y02462D01*
X004747D01*
Y023508D01*
X005938D01*
Y02462D01*
X005794D01*
X005783Y024653D01*
X00578Y02467D01*
X005868Y024784D01*
X005924Y024919D01*
X005943Y025064D01*
X005924Y025209D01*
X005868Y025345D01*
X005779Y025461D01*
X005662Y02555D01*
X005527Y025606D01*
X005382Y025625D01*
D02*
G37*
G36*
X003007Y025858D02*
X00287D01*
X002736Y025832D01*
X00261Y025779D01*
X002496Y025703D01*
X0024Y025607D01*
X002324Y025493D01*
X002272Y025367D01*
X002245Y025233D01*
Y025096D01*
X002272Y024962D01*
X002324Y024836D01*
X0024Y024722D01*
X002428Y024694D01*
X002245Y024511D01*
Y023818D01*
X002592Y023471D01*
X003285D01*
X003632Y023818D01*
Y024511D01*
X003449Y024694D01*
X003477Y024722D01*
X003553Y024836D01*
X003606Y024962D01*
X003632Y025096D01*
Y025233D01*
X003606Y025367D01*
X003553Y025493D01*
X003477Y025607D01*
X003381Y025703D01*
X003267Y025779D01*
X003141Y025832D01*
X003007Y025858D01*
D02*
G37*
G36*
X028926Y02159D02*
X028837D01*
X028752Y021567D01*
X028675Y021523D01*
X028612Y02146D01*
X028596Y021432D01*
X024697D01*
X024697Y021432D01*
X024629Y021419D01*
X024571Y02138D01*
X024571Y02138D01*
X020653Y017462D01*
X020598Y017478D01*
X020582Y017537D01*
X020538Y017614D01*
X020475Y017676D01*
X020398Y01772D01*
X020313Y017743D01*
X020224D01*
X020139Y01772D01*
X020062Y017676D01*
X02Y017614D01*
X01996Y017544D01*
X018549D01*
X018481Y017531D01*
X018423Y017492D01*
X015832Y014901D01*
X015815Y014875D01*
X015798D01*
X015712Y014852D01*
X015635Y014808D01*
X015573Y014745D01*
X015529Y014669D01*
X015506Y014583D01*
Y014495D01*
X015529Y014409D01*
X015573Y014332D01*
X015635Y01427D01*
X015712Y014226D01*
X015798Y014203D01*
X015886D01*
X015972Y014226D01*
X016048Y01427D01*
X016111Y014332D01*
X016155Y014409D01*
X016178Y014495D01*
Y014583D01*
X016155Y014669D01*
X016137Y014701D01*
X017902Y016467D01*
X017958Y016451D01*
X017973Y016392D01*
X018018Y016315D01*
X01808Y016253D01*
X018157Y016209D01*
X018242Y016186D01*
X018296D01*
X020513Y013968D01*
X020513Y013968D01*
X020524Y013961D01*
X020509Y013911D01*
X019993D01*
X019136Y014768D01*
X019144Y014799D01*
Y014887D01*
X019121Y014973D01*
X019077Y01505D01*
X019014Y015112D01*
X018937Y015156D01*
X018852Y015179D01*
X018763D01*
X018678Y015156D01*
X018601Y015112D01*
X018539Y01505D01*
X018494Y014973D01*
X018471Y014887D01*
Y014799D01*
X018484Y014752D01*
X018446Y014702D01*
X018432D01*
X018346Y014679D01*
X01827Y014634D01*
X018207Y014572D01*
X018163Y014495D01*
X01814Y01441D01*
Y014321D01*
X018163Y014236D01*
X018207Y014159D01*
X01827Y014096D01*
X018346Y014052D01*
X018432Y014029D01*
X01852D01*
X018552Y014038D01*
X019256Y013333D01*
X019256Y013333D01*
X019314Y013294D01*
X019383Y013281D01*
X043001D01*
X043097Y013185D01*
Y011564D01*
X043111Y011496D01*
X043149Y011438D01*
X043474Y011113D01*
X043466Y011082D01*
Y010994D01*
X043489Y010908D01*
X043533Y010831D01*
X043596Y010769D01*
X043672Y010725D01*
X043758Y010702D01*
X043846D01*
X043877Y01071D01*
X044509Y010079D01*
X044567Y01004D01*
X044635Y010026D01*
X044635Y010026D01*
X046025D01*
X04603Y010002D01*
X046082Y009876D01*
X046158Y009762D01*
X046216Y009705D01*
X046158Y009647D01*
X046082Y009533D01*
X046041Y009434D01*
X03468D01*
X034592Y009417D01*
X034517Y009367D01*
X031038Y005887D01*
X030982D01*
X030896Y005864D01*
X03082Y00582D01*
X030757Y005758D01*
X030713Y005681D01*
X03069Y005595D01*
Y005507D01*
X030713Y005421D01*
X030757Y005345D01*
X03082Y005282D01*
X030896Y005238D01*
X030982Y005215D01*
X03107D01*
X031156Y005238D01*
X031233Y005282D01*
X031295Y005345D01*
X031339Y005421D01*
X031362Y005507D01*
Y005563D01*
X034775Y008975D01*
X046041D01*
X046082Y008876D01*
X046158Y008762D01*
X046216Y008705D01*
X046158Y008647D01*
X046082Y008533D01*
X04603Y008407D01*
X046014Y00833D01*
X047379D01*
X047364Y008407D01*
X047312Y008533D01*
X047236Y008647D01*
X047178Y008705D01*
X047236Y008762D01*
X047312Y008876D01*
X047364Y009002D01*
X047391Y009136D01*
Y009273D01*
X047364Y009407D01*
X047312Y009533D01*
X047236Y009647D01*
X047178Y009705D01*
X047236Y009762D01*
X047312Y009876D01*
X047364Y010002D01*
X047391Y010136D01*
Y010273D01*
X047364Y010407D01*
X047312Y010533D01*
X047236Y010647D01*
X047208Y010675D01*
X047391Y010858D01*
Y011552D01*
X047044Y011898D01*
X04635D01*
X046003Y011552D01*
Y011383D01*
X044524D01*
X04413Y011778D01*
X044138Y011809D01*
Y011897D01*
X044115Y011983D01*
X044071Y01206D01*
X044008Y012122D01*
X04398Y012138D01*
Y013346D01*
X04398Y013346D01*
X043967Y013415D01*
X043928Y013473D01*
X043542Y013858D01*
X043485Y013897D01*
X043416Y013911D01*
X022608D01*
X02258Y013961D01*
X022611Y014014D01*
X022634Y014099D01*
Y014188D01*
X022611Y014273D01*
X022567Y01435D01*
X022504Y014412D01*
X022427Y014457D01*
X022342Y01448D01*
X022253D01*
X022168Y014457D01*
X022091Y014412D01*
X022029Y01435D01*
X021984Y014273D01*
X021984Y014273D01*
X020713D01*
X018598Y016388D01*
X0186Y016392D01*
X018623Y016478D01*
Y016566D01*
X0186Y016652D01*
X018556Y016728D01*
X018493Y016791D01*
X018416Y016835D01*
X018357Y016851D01*
X018342Y016906D01*
X018623Y017187D01*
X020013D01*
X020062Y017138D01*
X020139Y017094D01*
X020198Y017078D01*
X020214Y017023D01*
X019611Y01642D01*
X019531Y016442D01*
X019442D01*
X019357Y016419D01*
X01928Y016374D01*
X019217Y016312D01*
X019173Y016235D01*
X01915Y01615D01*
Y016061D01*
X019173Y015976D01*
X019217Y015899D01*
X01928Y015836D01*
X019357Y015792D01*
X019442Y015769D01*
X019531D01*
X019578Y01573D01*
Y01568D01*
X0196Y015595D01*
X019645Y015518D01*
X019707Y015455D01*
X019784Y015411D01*
X01987Y015388D01*
X019958D01*
X020044Y015411D01*
X02012Y015455D01*
X020136Y015471D01*
X020181Y015445D01*
X020163Y015379D01*
Y01529D01*
X020186Y015205D01*
X02023Y015128D01*
X020293Y015066D01*
X020369Y015021D01*
X020455Y014998D01*
X020543D01*
X020629Y015021D01*
X020706Y015066D01*
X020768Y015128D01*
X020812Y015205D01*
X020835Y01529D01*
Y015379D01*
X020812Y015464D01*
X020808Y015472D01*
X022071Y016736D01*
X024172D01*
X024192Y016686D01*
X024143Y016637D01*
X02414Y016628D01*
X024548D01*
X024544Y016637D01*
X024495Y016686D01*
X024516Y016736D01*
X043458D01*
X043474Y016708D01*
X043536Y016645D01*
X043613Y016601D01*
X043699Y016578D01*
X043787D01*
X043857Y016597D01*
X044455Y016D01*
X044455Y016D01*
X044512Y015961D01*
X044581Y015947D01*
X044581Y015947D01*
X045977D01*
X045982Y015923D01*
X046034Y015797D01*
X04611Y015684D01*
X046168Y015626D01*
X04611Y015568D01*
X046034Y015454D01*
X045982Y015328D01*
X045955Y015194D01*
Y015057D01*
X045982Y014923D01*
X046034Y014797D01*
X04611Y014684D01*
X046168Y014626D01*
X04611Y014568D01*
X046034Y014454D01*
X045982Y014328D01*
X045966Y014251D01*
X047331D01*
X047316Y014328D01*
X047263Y014454D01*
X047187Y014568D01*
X04713Y014626D01*
X047187Y014684D01*
X047263Y014797D01*
X047316Y014923D01*
X047342Y015057D01*
Y015194D01*
X047316Y015328D01*
X047263Y015454D01*
X047187Y015568D01*
X04713Y015626D01*
X047187Y015684D01*
X047263Y015797D01*
X047316Y015923D01*
X047342Y016057D01*
Y016194D01*
X047316Y016328D01*
X047263Y016454D01*
X047187Y016568D01*
X047159Y016596D01*
X047342Y016779D01*
Y017473D01*
X046995Y017819D01*
X046302D01*
X045955Y017473D01*
Y017304D01*
X044489D01*
X044197Y017597D01*
X044139Y017635D01*
X04407Y017649D01*
X044029D01*
X044003Y017693D01*
X043941Y017756D01*
X043864Y0178D01*
X043778Y017823D01*
X04369D01*
X043604Y0178D01*
X043528Y017756D01*
X04347Y017698D01*
X039303D01*
X039286Y017748D01*
X039348Y017799D01*
X039423Y017891D01*
X039479Y017995D01*
X039513Y018108D01*
X039525Y018226D01*
Y018526D01*
X039513Y018643D01*
X039479Y018756D01*
X039423Y018861D01*
X039348Y018952D01*
X039257Y019027D01*
X039153Y019083D01*
X03904Y019117D01*
X038922Y019129D01*
X038804Y019117D01*
X038691Y019083D01*
X038587Y019027D01*
X038496Y018952D01*
X038447Y018893D01*
X038397D01*
X038348Y018952D01*
X038257Y019027D01*
X038153Y019083D01*
X03804Y019117D01*
X037922Y019129D01*
X037804Y019117D01*
X037691Y019083D01*
X037587Y019027D01*
X037496Y018952D01*
X037447Y018893D01*
X037397D01*
X037348Y018952D01*
X037257Y019027D01*
X037153Y019083D01*
X037047Y019115D01*
Y018376D01*
X036797D01*
Y019115D01*
X036691Y019083D01*
X036587Y019027D01*
X036496Y018952D01*
X036447Y018893D01*
X036397D01*
X036348Y018952D01*
X036257Y019027D01*
X036153Y019083D01*
X03604Y019117D01*
X035922Y019129D01*
X035804Y019117D01*
X035691Y019083D01*
X035587Y019027D01*
X035496Y018952D01*
X035447Y018893D01*
X035397D01*
X035348Y018952D01*
X035257Y019027D01*
X035153Y019083D01*
X03504Y019117D01*
X034922Y019129D01*
X034804Y019117D01*
X034691Y019083D01*
X034587Y019027D01*
X034496Y018952D01*
X034447Y018893D01*
X034397D01*
X034348Y018952D01*
X034257Y019027D01*
X034153Y019083D01*
X03404Y019117D01*
X033922Y019129D01*
X033804Y019117D01*
X033691Y019083D01*
X033587Y019027D01*
X033496Y018952D01*
X033447Y018893D01*
X033397D01*
X033348Y018952D01*
X033257Y019027D01*
X033153Y019083D01*
X03304Y019117D01*
X032922Y019129D01*
X032804Y019117D01*
X032691Y019083D01*
X032587Y019027D01*
X032496Y018952D01*
X032447Y018893D01*
X032397D01*
X032348Y018952D01*
X032257Y019027D01*
X032153Y019083D01*
X03204Y019117D01*
X031922Y019129D01*
X031804Y019117D01*
X031691Y019083D01*
X031587Y019027D01*
X031496Y018952D01*
X031421Y018861D01*
X031365Y018756D01*
X031331Y018643D01*
X031319Y018526D01*
Y018226D01*
X031331Y018108D01*
X031365Y017995D01*
X031421Y017891D01*
X031496Y017799D01*
X031558Y017748D01*
X03154Y017698D01*
X021709D01*
X02164Y017684D01*
X021583Y017646D01*
X021583Y017646D01*
X019989Y016052D01*
X019958Y016061D01*
X01987D01*
X019841Y016085D01*
X019839Y016143D01*
X024771Y021075D01*
X028596D01*
X028612Y021047D01*
X028675Y020985D01*
X028752Y02094D01*
X028837Y020918D01*
X028926D01*
X029011Y02094D01*
X029088Y020985D01*
X029151Y021047D01*
X029195Y021124D01*
X029218Y021209D01*
Y021298D01*
X029195Y021384D01*
X029151Y02146D01*
X029088Y021523D01*
X029011Y021567D01*
X028926Y02159D01*
D02*
G37*
G36*
X030628Y025831D02*
X03054D01*
X030454Y025809D01*
X030377Y025764D01*
X030315Y025702D01*
X030271Y025625D01*
X030248Y025539D01*
Y025451D01*
X030271Y025365D01*
X030315Y025289D01*
X030377Y025226D01*
X030454Y025182D01*
X03054Y025159D01*
X030628D01*
X030714Y025182D01*
X030742Y025199D01*
X030792Y02517D01*
Y021549D01*
X030764Y021533D01*
X030702Y02147D01*
X030658Y021394D01*
X030635Y021308D01*
Y02122D01*
X030658Y021134D01*
X030702Y021058D01*
X030764Y020995D01*
X030841Y020951D01*
X030927Y020928D01*
X031015D01*
X031101Y020951D01*
X031177Y020995D01*
X03124Y021058D01*
X031284Y021134D01*
X031307Y02122D01*
Y021308D01*
X031284Y021394D01*
X03124Y02147D01*
X031177Y021533D01*
X031149Y021549D01*
Y025311D01*
X031136Y025379D01*
X031097Y025437D01*
X031097Y025437D01*
X030913Y025621D01*
X030891Y025636D01*
X030853Y025702D01*
X03079Y025764D01*
X030714Y025809D01*
X030628Y025831D01*
D02*
G37*
G36*
X005365Y022094D02*
X005286D01*
X005141Y022075D01*
X005006Y022019D01*
X00489Y02193D01*
X004801Y021814D01*
X004745Y021679D01*
X004726Y021534D01*
X004745Y021388D01*
X004801Y021253D01*
X004888Y02114D01*
X004885Y021122D01*
X004874Y02109D01*
X004731D01*
Y019978D01*
X005921D01*
Y02109D01*
X005777D01*
X005766Y021122D01*
X005764Y02114D01*
X005851Y021253D01*
X005907Y021388D01*
X005926Y021534D01*
X005907Y021679D01*
X005851Y021814D01*
X005762Y02193D01*
X005646Y022019D01*
X00551Y022075D01*
X005365Y022094D01*
D02*
G37*
G36*
X003007Y022251D02*
X00287D01*
X002736Y022225D01*
X00261Y022172D01*
X002496Y022097D01*
X0024Y022D01*
X002324Y021886D01*
X002272Y02176D01*
X002245Y021626D01*
Y021489D01*
X002272Y021355D01*
X002324Y021229D01*
X0024Y021115D01*
X002428Y021087D01*
X002245Y020905D01*
Y020211D01*
X002592Y019864D01*
X003285D01*
X003632Y020211D01*
Y020905D01*
X003449Y021087D01*
X003477Y021115D01*
X003553Y021229D01*
X003606Y021355D01*
X003632Y021489D01*
Y021626D01*
X003606Y02176D01*
X003553Y021886D01*
X003477Y022D01*
X003381Y022097D01*
X003267Y022172D01*
X003141Y022225D01*
X003007Y022251D01*
D02*
G37*
G36*
X010605Y021933D02*
X010517D01*
X010431Y02191D01*
X010355Y021866D01*
X010292Y021804D01*
X010248Y021727D01*
X010225Y021641D01*
Y021553D01*
X010248Y021467D01*
X010292Y021391D01*
X010355Y021328D01*
X010431Y021284D01*
X010517Y021261D01*
X010605D01*
X010691Y021284D01*
X010767Y021328D01*
X01083Y021391D01*
X010846Y021419D01*
X013482D01*
X013502Y021369D01*
X013033Y0209D01*
X012995Y020842D01*
X012981Y020774D01*
Y013225D01*
X012995Y013156D01*
X013033Y013098D01*
X018412Y00772D01*
X018404Y007688D01*
Y0076D01*
X018427Y007514D01*
X018471Y007438D01*
X018534Y007375D01*
X01861Y007331D01*
X018696Y007308D01*
X018784D01*
X01887Y007331D01*
X018947Y007375D01*
X019009Y007438D01*
X019053Y007514D01*
X019076Y0076D01*
Y007688D01*
X019053Y007774D01*
X019009Y007851D01*
X018947Y007913D01*
X01887Y007957D01*
X018784Y00798D01*
X018696D01*
X018665Y007972D01*
X013338Y013299D01*
Y014253D01*
X013384Y014272D01*
X022429Y005228D01*
X022409Y005182D01*
X022239D01*
Y003598D01*
X023824D01*
Y005182D01*
X022979D01*
X016048Y012114D01*
X016082Y01215D01*
X01614Y012111D01*
X016208Y012097D01*
X016208Y012097D01*
X031322D01*
Y011526D01*
X032522D01*
Y011619D01*
X032567Y011641D01*
X032587Y011624D01*
X032691Y011569D01*
X032804Y011534D01*
X032922Y011523D01*
X03304Y011534D01*
X033153Y011569D01*
X033257Y011624D01*
X033348Y011699D01*
X033397Y011759D01*
X033447D01*
X033496Y011699D01*
X033587Y011624D01*
X033691Y011569D01*
X033804Y011534D01*
X033922Y011523D01*
X03404Y011534D01*
X034153Y011569D01*
X034257Y011624D01*
X034348Y011699D01*
X034397Y011759D01*
X034447D01*
X034496Y011699D01*
X034587Y011624D01*
X034691Y011569D01*
X034804Y011534D01*
X034922Y011523D01*
X03504Y011534D01*
X035153Y011569D01*
X035257Y011624D01*
X035348Y011699D01*
X035397Y011759D01*
X035447D01*
X035496Y011699D01*
X035587Y011624D01*
X035691Y011569D01*
X035804Y011534D01*
X035922Y011523D01*
X03604Y011534D01*
X036153Y011569D01*
X036257Y011624D01*
X036348Y011699D01*
X036397Y011759D01*
X036447D01*
X036496Y011699D01*
X036587Y011624D01*
X036691Y011569D01*
X036797Y011537D01*
Y012276D01*
Y013015D01*
X036691Y012983D01*
X036587Y012927D01*
X036496Y012852D01*
X036447Y012793D01*
X036397D01*
X036348Y012852D01*
X036257Y012927D01*
X036153Y012983D01*
X03604Y013017D01*
X035922Y013029D01*
X035804Y013017D01*
X035691Y012983D01*
X035587Y012927D01*
X035496Y012852D01*
X035447Y012793D01*
X035397D01*
X035348Y012852D01*
X035257Y012927D01*
X035153Y012983D01*
X03504Y013017D01*
X034922Y013029D01*
X034804Y013017D01*
X034691Y012983D01*
X034587Y012927D01*
X034496Y012852D01*
X034447Y012793D01*
X034397D01*
X034348Y012852D01*
X034257Y012927D01*
X034153Y012983D01*
X03404Y013017D01*
X033922Y013029D01*
X033804Y013017D01*
X033691Y012983D01*
X033587Y012927D01*
X033496Y012852D01*
X033447Y012793D01*
X033397D01*
X033348Y012852D01*
X033257Y012927D01*
X033153Y012983D01*
X03304Y013017D01*
X032922Y013029D01*
X032804Y013017D01*
X032691Y012983D01*
X032587Y012927D01*
X032567Y012911D01*
X032522Y012932D01*
Y013026D01*
X031322D01*
Y012454D01*
X016282D01*
X014499Y014237D01*
X014515Y014292D01*
X014574Y014308D01*
X014651Y014352D01*
X014713Y014415D01*
X014757Y014492D01*
X01478Y014577D01*
Y014666D01*
X014757Y014751D01*
X014713Y014828D01*
X014651Y01489D01*
X014623Y014907D01*
Y016607D01*
X015258Y017242D01*
X015289Y017234D01*
X015378D01*
X015463Y017257D01*
X01554Y017301D01*
X015603Y017364D01*
X015647Y01744D01*
X01567Y017526D01*
Y017614D01*
X015647Y0177D01*
X015603Y017777D01*
X01554Y017839D01*
X015463Y017883D01*
X015378Y017906D01*
X015331D01*
X01531Y017956D01*
X01628Y018926D01*
X01628Y018926D01*
X016319Y018984D01*
X016332Y019052D01*
Y019945D01*
X016333Y019945D01*
X016445Y019992D01*
X016546Y020059D01*
X016622Y020135D01*
X016654Y020141D01*
X016685Y020135D01*
X016762Y020059D01*
X016862Y019992D01*
X016974Y019945D01*
X017093Y019922D01*
X017113D01*
Y01729D01*
X016422Y016599D01*
X016391Y016608D01*
X016302D01*
X016217Y016585D01*
X01614Y01654D01*
X016077Y016478D01*
X016033Y016401D01*
X01601Y016316D01*
Y016227D01*
X016033Y016142D01*
X016077Y016065D01*
X01614Y016002D01*
X016217Y015958D01*
X016302Y015935D01*
X016391D01*
X016476Y015958D01*
X016553Y016002D01*
X016615Y016065D01*
X01666Y016142D01*
X016683Y016227D01*
Y016316D01*
X016674Y016347D01*
X017418Y01709D01*
X017456Y017148D01*
X01747Y017217D01*
X01747Y017217D01*
Y020008D01*
X017546Y020059D01*
X017622Y020135D01*
X017654Y020141D01*
X017685Y020135D01*
X017762Y020059D01*
X017862Y019992D01*
X017974Y019945D01*
X017975Y019945D01*
Y018859D01*
X017947Y018843D01*
X017885Y01878D01*
X01784Y018703D01*
X017817Y018618D01*
Y018529D01*
X01784Y018444D01*
X017885Y018367D01*
X017947Y018304D01*
X018024Y01826D01*
X018109Y018237D01*
X018198D01*
X018283Y01826D01*
X01836Y018304D01*
X018423Y018367D01*
X018467Y018444D01*
X01849Y018529D01*
Y018618D01*
X018467Y018703D01*
X018423Y01878D01*
X01836Y018843D01*
X018332Y018859D01*
Y019945D01*
X018333Y019945D01*
X018445Y019992D01*
X018546Y020059D01*
X018622Y020135D01*
X018654Y020141D01*
X018685Y020135D01*
X018762Y020059D01*
X018862Y019992D01*
X018974Y019945D01*
X019029Y019935D01*
Y020537D01*
X019279D01*
Y019935D01*
X019333Y019945D01*
X019445Y019992D01*
X019546Y020059D01*
X019631Y020145D01*
X019682Y020221D01*
X019732Y020206D01*
Y020133D01*
X019704Y020117D01*
X019642Y020054D01*
X019598Y019977D01*
X019575Y019892D01*
Y019803D01*
X019598Y019718D01*
X019642Y019641D01*
X019704Y019579D01*
X019781Y019534D01*
X019867Y019511D01*
X019955D01*
X020041Y019534D01*
X020117Y019579D01*
X02018Y019641D01*
X020224Y019718D01*
X020247Y019803D01*
Y019892D01*
X020224Y019977D01*
X02018Y020054D01*
X020117Y020117D01*
X020089Y020133D01*
Y020472D01*
X020089Y020472D01*
X020076Y020541D01*
X020037Y020599D01*
X020037Y020599D01*
X018912Y021723D01*
X018855Y021762D01*
X018786Y021775D01*
X010846D01*
X01083Y021804D01*
X010767Y021866D01*
X010691Y02191D01*
X010605Y021933D01*
D02*
G37*
G36*
X011872Y019414D02*
Y019335D01*
X011951D01*
X011947Y019344D01*
X011881Y019411D01*
X011872Y019414D01*
D02*
G37*
G36*
X011622D02*
X011613Y019411D01*
X011547Y019344D01*
X011543Y019335D01*
X011622D01*
Y019414D01*
D02*
G37*
G36*
X011951Y019085D02*
X011872D01*
Y019006D01*
X011881Y01901D01*
X011947Y019076D01*
X011951Y019085D01*
D02*
G37*
G36*
X011622D02*
X011543D01*
X011547Y019076D01*
X011613Y01901D01*
X011622Y019006D01*
Y019085D01*
D02*
G37*
G36*
X024548Y016378D02*
X024469D01*
Y016299D01*
X024478Y016303D01*
X024544Y016369D01*
X024548Y016378D01*
D02*
G37*
G36*
X024219D02*
X02414D01*
X024143Y016369D01*
X02421Y016303D01*
X024219Y016299D01*
Y016378D01*
D02*
G37*
G36*
X005304Y018362D02*
X005225D01*
X00508Y018343D01*
X004945Y018287D01*
X004829Y018198D01*
X00474Y018082D01*
X004684Y017947D01*
X004665Y017802D01*
X004684Y017657D01*
X00474Y017521D01*
X004827Y017408D01*
X004824Y01739D01*
X004813Y017358D01*
X004669D01*
Y016246D01*
X00586D01*
Y017358D01*
X005716D01*
X005705Y01739D01*
X005702Y017408D01*
X00579Y017521D01*
X005846Y017657D01*
X005865Y017802D01*
X005846Y017947D01*
X00579Y018082D01*
X005701Y018198D01*
X005584Y018287D01*
X005449Y018343D01*
X005304Y018362D01*
D02*
G37*
G36*
X003007Y018578D02*
X00287D01*
X002736Y018552D01*
X00261Y018499D01*
X002496Y018423D01*
X0024Y018327D01*
X002324Y018213D01*
X002272Y018087D01*
X002245Y017953D01*
Y017816D01*
X002272Y017682D01*
X002324Y017556D01*
X0024Y017442D01*
X002428Y017414D01*
X002245Y017231D01*
Y016538D01*
X002592Y016191D01*
X003285D01*
X003632Y016538D01*
Y017231D01*
X003449Y017414D01*
X003477Y017442D01*
X003553Y017556D01*
X003606Y017682D01*
X003632Y017816D01*
Y017953D01*
X003606Y018087D01*
X003553Y018213D01*
X003477Y018327D01*
X003381Y018423D01*
X003267Y018499D01*
X003141Y018552D01*
X003007Y018578D01*
D02*
G37*
G36*
X024469Y01578D02*
Y015701D01*
X024548D01*
X024544Y01571D01*
X024478Y015777D01*
X024469Y01578D01*
D02*
G37*
G36*
X024219D02*
X02421Y015777D01*
X024143Y01571D01*
X02414Y015701D01*
X024219D01*
Y01578D01*
D02*
G37*
G36*
X015942Y015533D02*
Y015454D01*
X01602D01*
X016017Y015463D01*
X01595Y01553D01*
X015942Y015533D01*
D02*
G37*
G36*
X015692D02*
X015683Y01553D01*
X015616Y015463D01*
X015613Y015454D01*
X015692D01*
Y015533D01*
D02*
G37*
G36*
X024548Y015451D02*
X024469D01*
Y015373D01*
X024478Y015376D01*
X024544Y015443D01*
X024548Y015451D01*
D02*
G37*
G36*
X024219D02*
X02414D01*
X024143Y015443D01*
X02421Y015376D01*
X024219Y015373D01*
Y015451D01*
D02*
G37*
G36*
X01602Y015204D02*
X015942D01*
Y015126D01*
X01595Y015129D01*
X016017Y015196D01*
X01602Y015204D01*
D02*
G37*
G36*
X015692D02*
X015613D01*
X015616Y015196D01*
X015683Y015129D01*
X015692Y015126D01*
Y015204D01*
D02*
G37*
G36*
X047331Y014001D02*
X046774D01*
Y013443D01*
X046851Y013459D01*
X046977Y013511D01*
X047091Y013587D01*
X047187Y013684D01*
X047263Y013797D01*
X047316Y013923D01*
X047331Y014001D01*
D02*
G37*
G36*
X046524D02*
X045966D01*
X045982Y013923D01*
X046034Y013797D01*
X04611Y013684D01*
X046206Y013587D01*
X04632Y013511D01*
X046446Y013459D01*
X046524Y013443D01*
Y014001D01*
D02*
G37*
G36*
X038922Y013029D02*
X038804Y013017D01*
X038691Y012983D01*
X038587Y012927D01*
X038496Y012852D01*
X038447Y012793D01*
X038397D01*
X038348Y012852D01*
X038257Y012927D01*
X038153Y012983D01*
X03804Y013017D01*
X037922Y013029D01*
X037804Y013017D01*
X037691Y012983D01*
X037587Y012927D01*
X037496Y012852D01*
X037447Y012793D01*
X037397D01*
X037348Y012852D01*
X037257Y012927D01*
X037153Y012983D01*
X037047Y013015D01*
Y012276D01*
Y011537D01*
X037153Y011569D01*
X037257Y011624D01*
X037348Y011699D01*
X037397Y011759D01*
X037447D01*
X037496Y011699D01*
X037587Y011624D01*
X037691Y011569D01*
X037804Y011534D01*
X037922Y011523D01*
X03804Y011534D01*
X038153Y011569D01*
X038257Y011624D01*
X038348Y011699D01*
X038397Y011759D01*
X038447D01*
X038496Y011699D01*
X038587Y011624D01*
X038691Y011569D01*
X038804Y011534D01*
X038922Y011523D01*
X03904Y011534D01*
X039153Y011569D01*
X039257Y011624D01*
X039348Y011699D01*
X039423Y011791D01*
X039479Y011895D01*
X039513Y012008D01*
X039525Y012126D01*
Y012426D01*
X039513Y012543D01*
X039479Y012656D01*
X039423Y012761D01*
X039348Y012852D01*
X039257Y012927D01*
X039153Y012983D01*
X03904Y013017D01*
X038922Y013029D01*
D02*
G37*
G36*
X00534Y014678D02*
X005262D01*
X005117Y014659D01*
X004981Y014603D01*
X004865Y014514D01*
X004776Y014398D01*
X00472Y014262D01*
X004701Y014117D01*
X00472Y013972D01*
X004776Y013837D01*
X004863Y013723D01*
X004861Y013706D01*
X00485Y013673D01*
X004706D01*
Y012561D01*
X005896D01*
Y013673D01*
X005753D01*
X005742Y013706D01*
X005739Y013723D01*
X005826Y013837D01*
X005882Y013972D01*
X005901Y014117D01*
X005882Y014262D01*
X005826Y014398D01*
X005737Y014514D01*
X005621Y014603D01*
X005486Y014659D01*
X00534Y014678D01*
D02*
G37*
G36*
X003007Y014911D02*
X00287D01*
X002736Y014884D01*
X00261Y014832D01*
X002496Y014756D01*
X0024Y01466D01*
X002324Y014546D01*
X002272Y01442D01*
X002245Y014286D01*
Y014149D01*
X002272Y014015D01*
X002324Y013889D01*
X0024Y013775D01*
X002428Y013747D01*
X002245Y013564D01*
Y012871D01*
X002592Y012524D01*
X003285D01*
X003632Y012871D01*
Y013564D01*
X003449Y013747D01*
X003477Y013775D01*
X003553Y013889D01*
X003606Y014015D01*
X003632Y014149D01*
Y014286D01*
X003606Y01442D01*
X003553Y014546D01*
X003477Y01466D01*
X003381Y014756D01*
X003267Y014832D01*
X003141Y014884D01*
X003007Y014911D01*
D02*
G37*
G36*
X012124Y012069D02*
Y01199D01*
X012203D01*
X012199Y011999D01*
X012133Y012065D01*
X012124Y012069D01*
D02*
G37*
G36*
X011874D02*
X011865Y012065D01*
X011799Y011999D01*
X011795Y01199D01*
X011874D01*
Y012069D01*
D02*
G37*
G36*
X012203Y01174D02*
X012124D01*
Y011661D01*
X012133Y011665D01*
X012199Y011731D01*
X012203Y01174D01*
D02*
G37*
G36*
X011874D02*
X011795D01*
X011799Y011731D01*
X011865Y011665D01*
X011874Y011661D01*
Y01174D01*
D02*
G37*
G36*
X041818Y01156D02*
Y011481D01*
X041897D01*
X041893Y01149D01*
X041827Y011556D01*
X041818Y01156D01*
D02*
G37*
G36*
X041568D02*
X041559Y011556D01*
X041493Y01149D01*
X041489Y011481D01*
X041568D01*
Y01156D01*
D02*
G37*
G36*
X041897Y011231D02*
X041818D01*
Y011152D01*
X041827Y011156D01*
X041893Y011222D01*
X041897Y011231D01*
D02*
G37*
G36*
X041568D02*
X041489D01*
X041493Y011222D01*
X041559Y011156D01*
X041568Y011152D01*
Y011231D01*
D02*
G37*
G36*
X029574Y009409D02*
Y00933D01*
X029653D01*
X029649Y009338D01*
X029583Y009405D01*
X029574Y009409D01*
D02*
G37*
G36*
X029324D02*
X029315Y009405D01*
X029249Y009338D01*
X029245Y00933D01*
X029324D01*
Y009409D01*
D02*
G37*
G36*
X029653Y00908D02*
X029574D01*
Y009001D01*
X029583Y009004D01*
X029649Y009071D01*
X029653Y00908D01*
D02*
G37*
G36*
X029324D02*
X029245D01*
X029249Y009071D01*
X029315Y009004D01*
X029324Y009001D01*
Y00908D01*
D02*
G37*
G36*
X002985Y011009D02*
X002849D01*
X002715Y010983D01*
X002589Y01093D01*
X002475Y010854D01*
X002378Y010758D01*
X002302Y010644D01*
X00225Y010518D01*
X002223Y010384D01*
Y010247D01*
X00225Y010113D01*
X002302Y009987D01*
X002378Y009873D01*
X002406Y009845D01*
X002223Y009662D01*
Y008969D01*
X00257Y008622D01*
X003264D01*
X003611Y008969D01*
Y009662D01*
X003428Y009845D01*
X003456Y009873D01*
X003532Y009987D01*
X003584Y010113D01*
X003611Y010247D01*
Y010384D01*
X003584Y010518D01*
X003532Y010644D01*
X003456Y010758D01*
X003359Y010854D01*
X003246Y01093D01*
X00312Y010983D01*
X002985Y011009D01*
D02*
G37*
G36*
X005335Y010707D02*
X005257D01*
X005112Y010688D01*
X004976Y010632D01*
X00486Y010543D01*
X004771Y010427D01*
X004715Y010292D01*
X004696Y010147D01*
X004715Y010001D01*
X004771Y009866D01*
X004858Y009753D01*
X004856Y009735D01*
X004845Y009703D01*
X004701D01*
Y008591D01*
X005891D01*
Y009703D01*
X005748D01*
X005737Y009735D01*
X005734Y009753D01*
X005821Y009866D01*
X005877Y010001D01*
X005896Y010147D01*
X005877Y010292D01*
X005821Y010427D01*
X005732Y010543D01*
X005616Y010632D01*
X005481Y010688D01*
X005335Y010707D01*
D02*
G37*
G36*
X038572Y008473D02*
Y008394D01*
X038651D01*
X038647Y008403D01*
X03858Y008469D01*
X038572Y008473D01*
D02*
G37*
G36*
X038322D02*
X038313Y008469D01*
X038246Y008403D01*
X038243Y008394D01*
X038322D01*
Y008473D01*
D02*
G37*
G36*
X038651Y008144D02*
X038572D01*
Y008065D01*
X03858Y008069D01*
X038647Y008135D01*
X038651Y008144D01*
D02*
G37*
G36*
X038322D02*
X038243D01*
X038246Y008135D01*
X038313Y008069D01*
X038322Y008065D01*
Y008144D01*
D02*
G37*
G36*
X047379Y00808D02*
X046822D01*
Y007522D01*
X046899Y007538D01*
X047025Y00759D01*
X047139Y007666D01*
X047236Y007762D01*
X047312Y007876D01*
X047364Y008002D01*
X047379Y00808D01*
D02*
G37*
G36*
X046572D02*
X046014D01*
X04603Y008002D01*
X046082Y007876D01*
X046158Y007762D01*
X046255Y007666D01*
X046368Y00759D01*
X046495Y007538D01*
X046572Y007522D01*
Y00808D01*
D02*
G37*
G36*
X030593Y007182D02*
Y007103D01*
X030672D01*
X030669Y007112D01*
X030602Y007178D01*
X030593Y007182D01*
D02*
G37*
G36*
X030343D02*
X030335Y007178D01*
X030268Y007112D01*
X030264Y007103D01*
X030343D01*
Y007182D01*
D02*
G37*
G36*
X030672Y006853D02*
X030593D01*
Y006774D01*
X030602Y006778D01*
X030669Y006844D01*
X030672Y006853D01*
D02*
G37*
G36*
X030343D02*
X030264D01*
X030268Y006844D01*
X030335Y006778D01*
X030343Y006774D01*
Y006853D01*
D02*
G37*
G36*
X045127Y00804D02*
X045038D01*
X044952Y008017D01*
X044876Y007973D01*
X044813Y00791D01*
X044769Y007834D01*
X044746Y007748D01*
Y00766D01*
X044769Y007574D01*
X044813Y007497D01*
X044853Y007458D01*
Y007203D01*
X044027Y006378D01*
X043982Y0064D01*
X043983Y006407D01*
X043963Y006557D01*
X043905Y006697D01*
X043813Y006817D01*
X043693Y006909D01*
X043553Y006967D01*
X043403Y006987D01*
X04293D01*
X04278Y006967D01*
X04264Y006909D01*
X04252Y006817D01*
X042427Y006697D01*
X042369Y006557D01*
X04235Y006407D01*
X042369Y006256D01*
X042427Y006116D01*
X04252Y005996D01*
X04264Y005904D01*
X04278Y005846D01*
X04293Y005826D01*
X043403D01*
X043409Y005827D01*
X043432Y005782D01*
X043404Y005754D01*
X043354Y00568D01*
X043336Y005592D01*
Y005235D01*
X043324D01*
X043174Y005215D01*
X043034Y005157D01*
X042913Y005065D01*
X042821Y004945D01*
X042763Y004805D01*
X042743Y004655D01*
X042763Y004504D01*
X042821Y004364D01*
X042913Y004244D01*
X043034Y004152D01*
X043174Y004094D01*
X043324Y004074D01*
X043796D01*
X043947Y004094D01*
X044087Y004152D01*
X044207Y004244D01*
X044299Y004364D01*
X044323Y004421D01*
X044373D01*
X044396Y004364D01*
X044488Y004244D01*
X044608Y004152D01*
X044748Y004094D01*
X044899Y004074D01*
X045371D01*
X045521Y004094D01*
X045661Y004152D01*
X045725Y004201D01*
X04579Y004152D01*
X04593Y004094D01*
X04608Y004074D01*
X046191D01*
Y004655D01*
Y005235D01*
X04608D01*
X04593Y005215D01*
X04579Y005157D01*
X045725Y005108D01*
X045661Y005157D01*
X045521Y005215D01*
X045371Y005235D01*
X044899D01*
X044748Y005215D01*
X044608Y005157D01*
X044488Y005065D01*
X044396Y004945D01*
X044373Y004888D01*
X044323D01*
X044299Y004945D01*
X044207Y005065D01*
X044087Y005157D01*
X043947Y005215D01*
X043796Y005235D01*
X043795D01*
Y005497D01*
X045244Y006946D01*
X045294Y007021D01*
X045312Y007108D01*
Y007458D01*
X045351Y007497D01*
X045396Y007574D01*
X045418Y00766D01*
Y007748D01*
X045396Y007834D01*
X045351Y00791D01*
X045289Y007973D01*
X045212Y008017D01*
X045127Y00804D01*
D02*
G37*
G36*
X008585Y020657D02*
X008497D01*
X008411Y020634D01*
X008335Y02059D01*
X008272Y020527D01*
X008228Y020451D01*
X008205Y020365D01*
Y020277D01*
X008228Y020191D01*
X008272Y020115D01*
X008319Y020068D01*
Y017114D01*
X008281Y017076D01*
X008237Y017D01*
X008214Y016914D01*
Y016826D01*
X008237Y01674D01*
X008281Y016664D01*
X008321Y016624D01*
Y014973D01*
X008311Y014923D01*
Y013236D01*
X008271Y013196D01*
X008227Y01312D01*
X008204Y013034D01*
Y012946D01*
X008227Y01286D01*
X008271Y012784D01*
X008311Y012743D01*
Y009025D01*
X008272Y008986D01*
X008228Y008909D01*
X008205Y008824D01*
Y008735D01*
X008228Y00865D01*
X008272Y008573D01*
X008312Y008534D01*
Y005398D01*
X008272Y005359D01*
X008228Y005282D01*
X008205Y005196D01*
Y005108D01*
X008228Y005022D01*
X008272Y004946D01*
X008335Y004883D01*
X008411Y004839D01*
X008497Y004816D01*
X008585D01*
X008671Y004839D01*
X008747Y004883D01*
X00881Y004946D01*
X008854Y005022D01*
X008877Y005108D01*
Y005196D01*
X008854Y005282D01*
X00881Y005359D01*
X00877Y005398D01*
Y008533D01*
X00881Y008573D01*
X008854Y00865D01*
X008877Y008735D01*
Y008824D01*
X008854Y008909D01*
X00881Y008986D01*
X00877Y009026D01*
Y012744D01*
X008809Y012784D01*
X008853Y01286D01*
X008876Y012946D01*
Y013034D01*
X008853Y01312D01*
X008809Y013196D01*
X008769Y013236D01*
Y014882D01*
X008779Y014933D01*
Y016624D01*
X008819Y016664D01*
X008863Y01674D01*
X008886Y016826D01*
Y016914D01*
X008863Y017D01*
X008819Y017076D01*
X008777Y017118D01*
Y020082D01*
X00881Y020115D01*
X008854Y020191D01*
X008877Y020277D01*
Y020365D01*
X008854Y020451D01*
X00881Y020527D01*
X008747Y02059D01*
X008671Y020634D01*
X008585Y020657D01*
D02*
G37*
G36*
X00299Y007178D02*
X002853D01*
X002719Y007151D01*
X002593Y007099D01*
X002479Y007023D01*
X002383Y006926D01*
X002307Y006813D01*
X002254Y006686D01*
X002228Y006552D01*
Y006416D01*
X002254Y006282D01*
X002307Y006155D01*
X002383Y006042D01*
X002411Y006014D01*
X002228Y005831D01*
Y005137D01*
X002575Y00479D01*
X003268D01*
X003615Y005137D01*
Y005831D01*
X003432Y006014D01*
X00346Y006042D01*
X003536Y006155D01*
X003588Y006282D01*
X003615Y006416D01*
Y006552D01*
X003588Y006686D01*
X003536Y006813D01*
X00346Y006926D01*
X003364Y007023D01*
X00325Y007099D01*
X003124Y007151D01*
X00299Y007178D01*
D02*
G37*
G36*
X046552Y005235D02*
X046441D01*
Y00478D01*
X047116D01*
X047113Y004805D01*
X047055Y004945D01*
X046963Y005065D01*
X046843Y005157D01*
X046702Y005215D01*
X046552Y005235D01*
D02*
G37*
G36*
X0053Y006864D02*
X005222D01*
X005076Y006845D01*
X004941Y006789D01*
X004825Y0067D01*
X004736Y006583D01*
X00468Y006448D01*
X004661Y006303D01*
X00468Y006158D01*
X004736Y006023D01*
X004823Y005909D01*
X00482Y005892D01*
X004809Y005859D01*
X004666D01*
Y004747D01*
X005856D01*
Y005859D01*
X005712D01*
X005701Y005892D01*
X005699Y005909D01*
X005786Y006023D01*
X005842Y006158D01*
X005861Y006303D01*
X005842Y006448D01*
X005786Y006583D01*
X005697Y0067D01*
X005581Y006789D01*
X005445Y006845D01*
X0053Y006864D01*
D02*
G37*
G36*
X017559Y005067D02*
X017527D01*
Y004574D01*
X018164D01*
X01813Y004685D01*
X018073Y004792D01*
X017996Y004886D01*
X017902Y004963D01*
X017796Y00502D01*
X01768Y005055D01*
X017559Y005067D01*
D02*
G37*
G36*
X017277D02*
X017244D01*
X017124Y005055D01*
X017008Y00502D01*
X016901Y004963D01*
X016807Y004886D01*
X01673Y004792D01*
X016673Y004685D01*
X016639Y004574D01*
X017277D01*
Y005067D01*
D02*
G37*
G36*
X015039D02*
X015007D01*
Y004574D01*
X015644D01*
X01561Y004685D01*
X015553Y004792D01*
X015476Y004886D01*
X015383Y004963D01*
X015276Y00502D01*
X01516Y005055D01*
X015039Y005067D01*
D02*
G37*
G36*
X014757D02*
X014724D01*
X014604Y005055D01*
X014488Y00502D01*
X014381Y004963D01*
X014287Y004886D01*
X014211Y004792D01*
X014154Y004685D01*
X01412Y004574D01*
X014757D01*
Y005067D01*
D02*
G37*
G36*
X034818Y005182D02*
X034151D01*
Y004515D01*
X034818D01*
Y005182D01*
D02*
G37*
G36*
X033901D02*
X033234D01*
Y004515D01*
X033901D01*
Y005182D01*
D02*
G37*
G36*
X021824D02*
X021156D01*
Y004515D01*
X021824D01*
Y005182D01*
D02*
G37*
G36*
X020907D02*
X020239D01*
Y004515D01*
X020907D01*
Y005182D01*
D02*
G37*
G36*
X040874Y004513D02*
X040181D01*
X039998Y00433D01*
X03997Y004358D01*
X039856Y004434D01*
X03973Y004486D01*
X039596Y004513D01*
X039459D01*
X039325Y004486D01*
X039199Y004434D01*
X039085Y004358D01*
X038989Y004261D01*
X038913Y004147D01*
X038861Y004021D01*
X038834Y003887D01*
Y003751D01*
X038861Y003617D01*
X038913Y00349D01*
X038989Y003377D01*
X039085Y00328D01*
X039199Y003204D01*
X039325Y003152D01*
X039459Y003125D01*
X039596D01*
X03973Y003152D01*
X039856Y003204D01*
X03997Y00328D01*
X039998Y003308D01*
X040181Y003125D01*
X040874D01*
X041221Y003472D01*
Y004166D01*
X040874Y004513D01*
D02*
G37*
G36*
X012829Y00448D02*
X012135D01*
X011952Y004297D01*
X011924Y004325D01*
X011811Y004401D01*
X011684Y004454D01*
X011607Y004469D01*
Y003787D01*
Y003104D01*
X011684Y00312D01*
X011811Y003172D01*
X011924Y003248D01*
X011952Y003276D01*
X012135Y003093D01*
X012829D01*
X013176Y00344D01*
Y004133D01*
X012829Y00448D01*
D02*
G37*
G36*
X047116Y00453D02*
X046441D01*
Y004074D01*
X046552D01*
X046702Y004094D01*
X046843Y004152D01*
X046963Y004244D01*
X047055Y004364D01*
X047113Y004504D01*
X047116Y00453D01*
D02*
G37*
G36*
X029764Y005067D02*
X029449D01*
X029328Y005055D01*
X029212Y00502D01*
X029106Y004963D01*
X029012Y004886D01*
X028935Y004792D01*
X028878Y004685D01*
X028843Y004569D01*
X028831Y004449D01*
X028843Y004328D01*
X028878Y004212D01*
X028935Y004106D01*
X029012Y004012D01*
X029106Y003935D01*
X029212Y003878D01*
X029328Y003843D01*
X029449Y003831D01*
X029764D01*
X029884Y003843D01*
X03Y003878D01*
X030107Y003935D01*
X030201Y004012D01*
X030278Y004106D01*
X030335Y004212D01*
X03037Y004328D01*
X030382Y004449D01*
X03037Y004569D01*
X030335Y004685D01*
X030278Y004792D01*
X030201Y004886D01*
X030107Y004963D01*
X03Y00502D01*
X029884Y005055D01*
X029764Y005067D01*
D02*
G37*
G36*
X022174Y00798D02*
X022085D01*
X022Y007957D01*
X021923Y007913D01*
X02186Y007851D01*
X021816Y007774D01*
X021793Y007688D01*
Y0076D01*
X021816Y007514D01*
X02186Y007438D01*
X021923Y007375D01*
X022Y007331D01*
X022085Y007308D01*
X022174D01*
X022259Y007331D01*
X022336Y007375D01*
X022399Y007438D01*
X022415Y007466D01*
X02366D01*
X026387Y004739D01*
X026358Y004685D01*
X026323Y004569D01*
X026311Y004449D01*
X026323Y004328D01*
X026358Y004212D01*
X026415Y004106D01*
X026492Y004012D01*
X026586Y003935D01*
X026693Y003878D01*
X026809Y003843D01*
X026929Y003831D01*
X027244D01*
X027365Y003843D01*
X027481Y003878D01*
X027587Y003935D01*
X027681Y004012D01*
X027758Y004106D01*
X027815Y004212D01*
X02785Y004328D01*
X027862Y004449D01*
X02785Y004569D01*
X027815Y004685D01*
X027758Y004792D01*
X027681Y004886D01*
X027587Y004963D01*
X027481Y00502D01*
X027365Y005055D01*
X027244Y005067D01*
X026929D01*
X026809Y005055D01*
X026693Y00502D01*
X026639Y004991D01*
X02386Y00777D01*
X023802Y007809D01*
X023734Y007823D01*
X022415D01*
X022399Y007851D01*
X022336Y007913D01*
X022259Y007957D01*
X022174Y00798D01*
D02*
G37*
G36*
X018164Y004324D02*
X017527D01*
Y003831D01*
X017559D01*
X01768Y003843D01*
X017796Y003878D01*
X017902Y003935D01*
X017996Y004012D01*
X018073Y004106D01*
X01813Y004212D01*
X018164Y004324D01*
D02*
G37*
G36*
X017277D02*
X016639D01*
X016673Y004212D01*
X01673Y004106D01*
X016807Y004012D01*
X016901Y003935D01*
X017008Y003878D01*
X017124Y003843D01*
X017244Y003831D01*
X017277D01*
Y004324D01*
D02*
G37*
G36*
X015644Y004324D02*
X015007D01*
Y003831D01*
X015039D01*
X01516Y003843D01*
X015276Y003878D01*
X015383Y003935D01*
X015476Y004012D01*
X015553Y004106D01*
X01561Y004212D01*
X015644Y004324D01*
D02*
G37*
G36*
X014757D02*
X01412D01*
X014154Y004212D01*
X014211Y004106D01*
X014287Y004012D01*
X014381Y003935D01*
X014488Y003878D01*
X014604Y003843D01*
X014724Y003831D01*
X014757D01*
Y004324D01*
D02*
G37*
G36*
X036818Y005182D02*
X035234D01*
Y003598D01*
X036818D01*
Y005182D01*
D02*
G37*
G36*
X034818Y004265D02*
X034151D01*
Y003598D01*
X034818D01*
Y004265D01*
D02*
G37*
G36*
X033901D02*
X033234D01*
Y003598D01*
X033901D01*
Y004265D01*
D02*
G37*
G36*
X021824D02*
X021156D01*
Y003598D01*
X021824D01*
Y004265D01*
D02*
G37*
G36*
X020907D02*
X020239D01*
Y003598D01*
X020907D01*
Y004265D01*
D02*
G37*
G36*
X01055Y00448D02*
X010414D01*
X01028Y004454D01*
X010154Y004401D01*
X01004Y004325D01*
X009943Y004229D01*
X009867Y004115D01*
X009815Y003989D01*
X009788Y003855D01*
Y003718D01*
X009815Y003584D01*
X009867Y003458D01*
X009943Y003344D01*
X01004Y003248D01*
X010154Y003172D01*
X01028Y00312D01*
X010414Y003093D01*
X01055D01*
X010684Y00312D01*
X010811Y003172D01*
X010924Y003248D01*
X010982Y003306D01*
X01104Y003248D01*
X011154Y003172D01*
X01128Y00312D01*
X011357Y003104D01*
Y003787D01*
Y004469D01*
X01128Y004454D01*
X011154Y004401D01*
X01104Y004325D01*
X010982Y004268D01*
X010924Y004325D01*
X010811Y004401D01*
X010684Y004454D01*
X01055Y00448D01*
D02*
G37*
G36*
X027244Y003256D02*
X027212D01*
Y002763D01*
X027849D01*
X027815Y002874D01*
X027758Y002981D01*
X027681Y003075D01*
X027587Y003152D01*
X027481Y003209D01*
X027365Y003244D01*
X027244Y003256D01*
D02*
G37*
G36*
X026962D02*
X026929D01*
X026809Y003244D01*
X026693Y003209D01*
X026586Y003152D01*
X026492Y003075D01*
X026415Y002981D01*
X026358Y002874D01*
X026324Y002763D01*
X026962D01*
Y003256D01*
D02*
G37*
G36*
X029764D02*
X029731D01*
Y002763D01*
X030368D01*
X030335Y002874D01*
X030278Y002981D01*
X030201Y003075D01*
X030107Y003152D01*
X03Y003209D01*
X029884Y003244D01*
X029764Y003256D01*
D02*
G37*
G36*
X029481D02*
X029449D01*
X029328Y003244D01*
X029212Y003209D01*
X029106Y003152D01*
X029012Y003075D01*
X028935Y002981D01*
X028878Y002874D01*
X028844Y002763D01*
X029481D01*
Y003256D01*
D02*
G37*
G36*
X030368Y002513D02*
X029731D01*
Y00202D01*
X029764D01*
X029884Y002032D01*
X03Y002067D01*
X030107Y002124D01*
X030201Y002201D01*
X030278Y002294D01*
X030335Y002401D01*
X030368Y002513D01*
D02*
G37*
G36*
X029481D02*
X028844D01*
X028878Y002401D01*
X028935Y002294D01*
X029012Y002201D01*
X029106Y002124D01*
X029212Y002067D01*
X029328Y002032D01*
X029449Y00202D01*
X029481D01*
Y002513D01*
D02*
G37*
G36*
X027849Y002513D02*
X027212D01*
Y00202D01*
X027244D01*
X027365Y002032D01*
X027481Y002067D01*
X027587Y002124D01*
X027681Y002201D01*
X027758Y002294D01*
X027815Y002401D01*
X027849Y002513D01*
D02*
G37*
G36*
X026962D02*
X026324D01*
X026358Y002401D01*
X026415Y002294D01*
X026492Y002201D01*
X026586Y002124D01*
X026693Y002067D01*
X026809Y002032D01*
X026929Y00202D01*
X026962D01*
Y002513D01*
D02*
G37*
G36*
X017559Y003256D02*
X017244D01*
X017124Y003244D01*
X017008Y003209D01*
X016901Y003152D01*
X016807Y003075D01*
X01673Y002981D01*
X016673Y002874D01*
X016638Y002758D01*
X016626Y002638D01*
X016638Y002517D01*
X016673Y002401D01*
X01673Y002294D01*
X016807Y002201D01*
X016901Y002124D01*
X017008Y002067D01*
X017124Y002032D01*
X017244Y00202D01*
X017559D01*
X01768Y002032D01*
X017796Y002067D01*
X017902Y002124D01*
X017996Y002201D01*
X018073Y002294D01*
X01813Y002401D01*
X018165Y002517D01*
X018177Y002638D01*
X018165Y002758D01*
X01813Y002874D01*
X018073Y002981D01*
X017996Y003075D01*
X017902Y003152D01*
X017796Y003209D01*
X01768Y003244D01*
X017559Y003256D01*
D02*
G37*
G36*
X015039D02*
X014724D01*
X014604Y003244D01*
X014488Y003209D01*
X014381Y003152D01*
X014287Y003075D01*
X014211Y002981D01*
X014154Y002874D01*
X014118Y002758D01*
X014106Y002638D01*
X014118Y002517D01*
X014154Y002401D01*
X014211Y002294D01*
X014287Y002201D01*
X014381Y002124D01*
X014488Y002067D01*
X014604Y002032D01*
X014724Y00202D01*
X015039D01*
X01516Y002032D01*
X015276Y002067D01*
X015383Y002124D01*
X015476Y002201D01*
X015553Y002294D01*
X01561Y002401D01*
X015645Y002517D01*
X015657Y002638D01*
X015645Y002758D01*
X01561Y002874D01*
X015553Y002981D01*
X015476Y003075D01*
X015383Y003152D01*
X015276Y003209D01*
X01516Y003244D01*
X015039Y003256D01*
D02*
G37*
G36*
X047672Y003765D02*
X047446D01*
X047223Y003735D01*
X047006Y003677D01*
X046798Y003591D01*
X046603Y003478D01*
X046424Y003341D01*
X046265Y003182D01*
X046128Y003003D01*
X046016Y002808D01*
X045929Y0026D01*
X045871Y002383D01*
X045842Y00216D01*
Y001935D01*
X045871Y001711D01*
X045929Y001494D01*
X046016Y001286D01*
X046128Y001091D01*
X046265Y000913D01*
X046424Y000753D01*
X046603Y000616D01*
X046798Y000504D01*
X047006Y000418D01*
X047223Y000359D01*
X047446Y00033D01*
X047672D01*
X047895Y000359D01*
X048112Y000418D01*
X04832Y000504D01*
X048515Y000616D01*
X048694Y000753D01*
X048853Y000913D01*
X04899Y001091D01*
X049103Y001286D01*
X049189Y001494D01*
X049247Y001711D01*
X049276Y001935D01*
Y00216D01*
X049247Y002383D01*
X049189Y0026D01*
X049103Y002808D01*
X04899Y003003D01*
X048853Y003182D01*
X048694Y003341D01*
X048515Y003478D01*
X04832Y003591D01*
X048112Y003677D01*
X047895Y003735D01*
X047672Y003765D01*
D02*
G37*
G36*
X00216D02*
X001935D01*
X001711Y003735D01*
X001494Y003677D01*
X001286Y003591D01*
X001091Y003478D01*
X000913Y003341D01*
X000753Y003182D01*
X000616Y003003D01*
X000504Y002808D01*
X000418Y0026D01*
X000359Y002383D01*
X00033Y00216D01*
Y001935D01*
X000359Y001711D01*
X000418Y001494D01*
X000504Y001286D01*
X000616Y001091D01*
X000753Y000913D01*
X000913Y000753D01*
X001091Y000616D01*
X001286Y000504D01*
X001494Y000418D01*
X001711Y000359D01*
X001935Y00033D01*
X00216D01*
X002383Y000359D01*
X0026Y000418D01*
X002808Y000504D01*
X003003Y000616D01*
X003182Y000753D01*
X003341Y000913D01*
X003478Y001091D01*
X003591Y001286D01*
X003677Y001494D01*
X003735Y001711D01*
X003765Y001935D01*
Y00216D01*
X003735Y002383D01*
X003677Y0026D01*
X003591Y002808D01*
X003478Y003003D01*
X003341Y003182D01*
X003182Y003341D01*
X003003Y003478D01*
X002808Y003591D01*
X0026Y003677D01*
X002383Y003735D01*
X00216Y003765D01*
D02*
G37*
%LPD*%
D14*
X018154Y018574D02*
Y020513D01*
X017292Y017217D02*
Y020269D01*
X015958Y014742D02*
Y014775D01*
X015842Y014626D02*
X015958Y014742D01*
X01616Y015338D02*
X019154Y018332D01*
X018154Y020513D02*
X018166Y020525D01*
X015825Y015338D02*
X01616D01*
X015958Y014775D02*
X018549Y017366D01*
X015817Y01533D02*
X015825Y015338D01*
X016346Y016271D02*
X017292Y017217D01*
X015842Y014539D02*
Y014626D01*
X018549Y017366D02*
X020227D01*
X014444Y014621D02*
Y016681D01*
X015334Y01757D01*
X018287Y016447D02*
X020639Y014094D01*
X018287Y016447D02*
Y016522D01*
X020639Y014094D02*
X022249D01*
X018808Y014843D02*
X019919Y013732D01*
X043416D01*
X013872Y014612D02*
Y016771D01*
Y014612D02*
X016208Y012276D01*
X013439Y01447D02*
X02289Y005019D01*
X013766Y021027D02*
X016664D01*
X01316Y013225D02*
Y020774D01*
X013439Y0207D02*
X013766Y021027D01*
X013439Y01447D02*
Y0207D01*
X02289Y004531D02*
Y005019D01*
Y004531D02*
X023031Y00439D01*
X016208Y012276D02*
X031922D01*
X013872Y016771D02*
X016154Y019052D01*
X01316Y013225D02*
X01874Y007644D01*
X01316Y020774D02*
X013663Y021277D01*
X024697Y021254D02*
X028881D01*
X019486Y016105D02*
X019548D01*
X020227Y017366D02*
X020269Y017407D01*
X019548Y016105D02*
X024697Y021254D01*
X019154Y018332D02*
Y020537D01*
X044581Y016126D02*
X046649D01*
X021997Y016914D02*
X043736D01*
X043743D02*
X043792D01*
X044581Y016126D01*
X020499Y015416D02*
X021997Y016914D01*
X043701Y01752D02*
X04375Y017471D01*
X04407D02*
X044415Y017126D01*
X04375Y017471D02*
X04407D01*
X021709Y01752D02*
X043701D01*
X044415Y017126D02*
X046649D01*
X019914Y015725D02*
X021709Y01752D01*
X020499Y015335D02*
Y015416D01*
X018476Y014365D02*
X019383Y013459D01*
X043075D01*
X022249Y014094D02*
X022298Y014143D01*
X010561Y021597D02*
X018786D01*
X019911Y020472D01*
Y019848D02*
Y020472D01*
X013663Y021277D02*
X017414D01*
X017154Y020407D02*
X017292Y020269D01*
X017154Y020407D02*
Y020537D01*
X016664Y021027D02*
X017154Y020537D01*
X016154Y019052D02*
Y020537D01*
X017414Y021277D02*
X018166Y020525D01*
X023734Y007644D02*
X026929Y004449D01*
X027087D01*
X02213Y007644D02*
X023734D01*
X043416Y013732D02*
X043802Y013346D01*
X043075Y013459D02*
X043276Y013259D01*
Y011564D02*
Y013259D01*
X043802Y011853D02*
Y013346D01*
Y011038D02*
X044635Y010205D01*
X046697D01*
X043802Y011853D02*
X04445Y011205D01*
X046697D01*
X043276Y011564D02*
X043802Y011038D01*
X030787Y025495D02*
X030971Y025311D01*
Y021264D02*
Y025311D01*
X030584Y025495D02*
X030787D01*
D17*
X019154Y020537D02*
D03*
X017154D02*
D03*
X016154D02*
D03*
X018154Y020537D02*
D03*
D92*
X043566Y004634D02*
Y005592D01*
X033114Y02456D02*
X034791D01*
X035137Y024213D01*
X035198D01*
X043566Y005592D02*
X045082Y007108D01*
Y007704D01*
X046697Y008205D02*
X047434D01*
X046632Y008269D02*
X046697Y008205D01*
X038454Y008269D02*
X046632D01*
X034393Y004757D02*
X034934D01*
X034026Y00439D02*
X034393Y004757D01*
X034934D02*
X038447Y008269D01*
X0357Y020183D02*
Y025598D01*
X036913Y018385D02*
X036922Y018376D01*
X036913Y018385D02*
Y018971D01*
X0357Y020183D02*
X036913Y018971D01*
X0357Y025598D02*
X038356Y028254D01*
X040529D01*
X029449Y007998D02*
X030468Y006978D01*
X029449Y007998D02*
Y009205D01*
X008548Y016872D02*
Y02033D01*
X047424Y014126D02*
X04758Y01397D01*
X046649Y014126D02*
X047424D01*
X04758Y008351D02*
Y01397D01*
X047434Y008205D02*
X04758Y008351D01*
X00855Y014933D02*
Y01687D01*
X00854Y014923D02*
X00855Y014933D01*
X00854Y01299D02*
Y014923D01*
X008548Y016872D02*
X00855Y01687D01*
X00854Y01299D02*
X008541Y012989D01*
Y008791D02*
Y012989D01*
Y008791D02*
X008542Y00879D01*
X008541Y005157D02*
Y00878D01*
X036922Y011335D02*
Y012276D01*
X037068Y011188D02*
X041525D01*
X041693Y011356D01*
X036922Y011335D02*
X037068Y011188D01*
X039528Y003819D02*
X039611Y003903D01*
X031026Y005551D02*
X03468Y009205D01*
X046697D01*
D93*
X024344Y015576D02*
Y016503D01*
X020372Y023691D02*
Y024305D01*
X020547Y023515D02*
X023396D01*
X020372Y023691D02*
X020547Y023515D01*
X014935Y026802D02*
X015169Y026568D01*
Y023788D02*
Y026568D01*
X034026Y003476D02*
Y00439D01*
X033188Y002638D02*
X034026Y003476D01*
X029606Y002638D02*
X033188D01*
X021031Y003038D02*
X021432Y002638D01*
X021031Y003038D02*
Y00439D01*
X021432Y002638D02*
X027087D01*
X029606D01*
X014428Y004512D02*
X014819D01*
X01439Y00455D02*
X014428Y004512D01*
X011663Y00455D02*
X01439D01*
X014882Y004449D02*
X017402D01*
X014819Y004512D02*
X014882Y004449D01*
X011488Y004374D02*
X011663Y00455D01*
X011482Y003787D02*
X011488Y003792D01*
Y004374D01*
X017402Y004449D02*
X02096D01*
X023396Y023515D02*
X024185Y024305D01*
X026988D01*
D95*
X040529Y028254D02*
D03*
X042529D02*
D03*
X036026Y00439D02*
D03*
X034026D02*
D03*
X023031D02*
D03*
X021031D02*
D03*
D96*
X030903Y029325D02*
D03*
D97*
Y027325D02*
D03*
X007559Y028604D02*
D03*
X00622D02*
D03*
D98*
X020372Y024305D02*
D03*
X011833D02*
D03*
X026988D02*
D03*
D99*
X021372D02*
D03*
X012833D02*
D03*
X027988D02*
D03*
D100*
X038646Y02516D02*
D03*
X042662Y021223D02*
D03*
X037662Y023191D02*
D03*
X042662Y02516D02*
D03*
X038646Y021223D02*
D03*
D101*
X005326Y021534D02*
D03*
X005343Y025064D02*
D03*
X005296Y010147D02*
D03*
X005265Y017802D02*
D03*
X005261Y006303D02*
D03*
X005301Y014117D02*
D03*
D102*
X005326Y020534D02*
D03*
X005343Y024064D02*
D03*
X005296Y009147D02*
D03*
X005265Y016802D02*
D03*
X005261Y005303D02*
D03*
X005301Y013117D02*
D03*
D103*
X002921Y006484D02*
D03*
X002939Y014217D02*
D03*
Y025164D02*
D03*
Y021558D02*
D03*
Y017885D02*
D03*
X046649Y016126D02*
D03*
Y015126D02*
D03*
Y014126D02*
D03*
X046697Y010205D02*
D03*
Y009205D02*
D03*
Y008205D02*
D03*
X010482Y003787D02*
D03*
X011482D02*
D03*
X039528Y003819D02*
D03*
X002917Y010316D02*
D03*
D104*
X002921Y005484D02*
D03*
X002939Y013217D02*
D03*
Y024164D02*
D03*
Y020558D02*
D03*
Y016885D02*
D03*
X046649Y017126D02*
D03*
X046697Y011205D02*
D03*
X002917Y009316D02*
D03*
D105*
X002047Y028655D02*
D03*
Y002047D02*
D03*
X047559D02*
D03*
Y028661D02*
D03*
D106*
X031922Y012276D02*
D03*
D107*
X032922D02*
D03*
X033922D02*
D03*
X034922D02*
D03*
X035922D02*
D03*
X036922D02*
D03*
X037922D02*
D03*
X038922D02*
D03*
X031922Y018376D02*
D03*
X032922D02*
D03*
X033922D02*
D03*
X034922D02*
D03*
X035922D02*
D03*
X036922D02*
D03*
X037922D02*
D03*
X038922D02*
D03*
D108*
X046316Y004655D02*
D03*
X043166Y006407D02*
D03*
X045135Y004655D02*
D03*
X04356D02*
D03*
D109*
X017402Y004449D02*
D03*
X014882Y002638D02*
D03*
Y004449D02*
D03*
X017402Y002638D02*
D03*
X027087D02*
D03*
X029606Y004449D02*
D03*
Y002638D02*
D03*
X027087Y004449D02*
D03*
D110*
X012482Y003787D02*
D03*
X040528Y003819D02*
D03*
D111*
X046113Y023201D02*
D03*
Y021201D02*
D03*
Y025201D02*
D03*
D112*
X014154Y020537D02*
D03*
D113*
X016346Y016271D02*
D03*
X018154Y018574D02*
D03*
X015842Y014539D02*
D03*
X014444Y014621D02*
D03*
X015334Y01757D02*
D03*
X018287Y016522D02*
D03*
X015817Y01533D02*
D03*
X018808Y014843D02*
D03*
X013872Y014988D02*
D03*
X020269Y017407D02*
D03*
X035198Y024213D02*
D03*
X045082Y007704D02*
D03*
X024344Y016503D02*
D03*
X043734Y017487D02*
D03*
X043743Y016914D02*
D03*
X019486Y016105D02*
D03*
X019914Y015725D02*
D03*
X020499Y015335D02*
D03*
X018476Y014365D02*
D03*
X022298Y014143D02*
D03*
X038447Y008269D02*
D03*
X030468Y006978D02*
D03*
X011999Y011865D02*
D03*
X011747Y01921D02*
D03*
X015169Y023788D02*
D03*
X00855Y01687D02*
D03*
X00854Y01299D02*
D03*
X030584Y025495D02*
D03*
X024344Y015576D02*
D03*
X010561Y021597D02*
D03*
X019911Y019848D02*
D03*
X008541Y020321D02*
D03*
Y005152D02*
D03*
X008541Y00878D02*
D03*
X02213Y007644D02*
D03*
X01874D02*
D03*
X029449Y009205D02*
D03*
X031026Y005551D02*
D03*
X041693Y011356D02*
D03*
X043802Y011038D02*
D03*
Y011853D02*
D03*
X028881Y021254D02*
D03*
X030971Y021264D02*
D03*
X033114Y02456D02*
D03*
X014935Y026802D02*
D03*
M02*
