G04*
G04 #@! TF.GenerationSoftware,Altium Limited,Altium Designer,23.11.1 (41)*
G04*
G04 Layer_Physical_Order=1*
G04 Layer_Color=255*
%FSTAX24Y24*%
%MOIN*%
G70*
G04*
G04 #@! TF.SameCoordinates,027617FE-0855-4198-9E67-A804299B83E6*
G04*
G04*
G04 #@! TF.FilePolarity,Positive*
G04*
G01*
G75*
%ADD14C,0.0150*%
%ADD17C,0.0630*%
%ADD35R,0.0630X0.0866*%
G04:AMPARAMS|DCode=36|XSize=63mil|YSize=86.6mil|CornerRadius=15.7mil|HoleSize=0mil|Usage=FLASHONLY|Rotation=0.000|XOffset=0mil|YOffset=0mil|HoleType=Round|Shape=RoundedRectangle|*
%AMROUNDEDRECTD36*
21,1,0.0630,0.0551,0,0,0.0*
21,1,0.0315,0.0866,0,0,0.0*
1,1,0.0315,0.0157,-0.0276*
1,1,0.0315,-0.0157,-0.0276*
1,1,0.0315,-0.0157,0.0276*
1,1,0.0315,0.0157,0.0276*
%
%ADD36ROUNDEDRECTD36*%
%ADD37R,0.0787X0.0787*%
G04:AMPARAMS|DCode=39|XSize=39.4mil|YSize=47.2mil|CornerRadius=9.8mil|HoleSize=0mil|Usage=FLASHONLY|Rotation=90.000|XOffset=0mil|YOffset=0mil|HoleType=Round|Shape=RoundedRectangle|*
%AMROUNDEDRECTD39*
21,1,0.0394,0.0276,0,0,90.0*
21,1,0.0197,0.0472,0,0,90.0*
1,1,0.0197,0.0138,0.0098*
1,1,0.0197,0.0138,-0.0098*
1,1,0.0197,-0.0138,-0.0098*
1,1,0.0197,-0.0138,0.0098*
%
%ADD39ROUNDEDRECTD39*%
G04:AMPARAMS|DCode=41|XSize=39.4mil|YSize=47.2mil|CornerRadius=9.8mil|HoleSize=0mil|Usage=FLASHONLY|Rotation=180.000|XOffset=0mil|YOffset=0mil|HoleType=Round|Shape=RoundedRectangle|*
%AMROUNDEDRECTD41*
21,1,0.0394,0.0276,0,0,180.0*
21,1,0.0197,0.0472,0,0,180.0*
1,1,0.0197,-0.0098,0.0138*
1,1,0.0197,0.0098,0.0138*
1,1,0.0197,0.0098,-0.0138*
1,1,0.0197,-0.0098,-0.0138*
%
%ADD41ROUNDEDRECTD41*%
%ADD42R,0.0394X0.0472*%
%ADD43R,0.0472X0.0394*%
%ADD44R,0.0394X0.0669*%
%ADD45R,0.0450X0.0350*%
G04:AMPARAMS|DCode=46|XSize=63mil|YSize=86.6mil|CornerRadius=15.7mil|HoleSize=0mil|Usage=FLASHONLY|Rotation=90.000|XOffset=0mil|YOffset=0mil|HoleType=Round|Shape=RoundedRectangle|*
%AMROUNDEDRECTD46*
21,1,0.0630,0.0551,0,0,90.0*
21,1,0.0315,0.0866,0,0,90.0*
1,1,0.0315,0.0276,0.0157*
1,1,0.0315,0.0276,-0.0157*
1,1,0.0315,-0.0276,-0.0157*
1,1,0.0315,-0.0276,0.0157*
%
%ADD46ROUNDEDRECTD46*%
%ADD47R,0.0866X0.0630*%
G04:AMPARAMS|DCode=48|XSize=63mil|YSize=126mil|CornerRadius=15.7mil|HoleSize=0mil|Usage=FLASHONLY|Rotation=0.000|XOffset=0mil|YOffset=0mil|HoleType=Round|Shape=RoundedRectangle|*
%AMROUNDEDRECTD48*
21,1,0.0630,0.0945,0,0,0.0*
21,1,0.0315,0.1260,0,0,0.0*
1,1,0.0315,0.0157,-0.0472*
1,1,0.0315,-0.0157,-0.0472*
1,1,0.0315,-0.0157,0.0472*
1,1,0.0315,0.0157,0.0472*
%
%ADD48ROUNDEDRECTD48*%
%ADD49O,0.0787X0.0236*%
%ADD50R,0.2165X0.0846*%
%ADD51O,0.0709X0.0157*%
%ADD52R,0.0350X0.0450*%
%ADD53R,0.0669X0.0394*%
%ADD92C,0.0250*%
%ADD93C,0.0300*%
%ADD94C,0.1000*%
%ADD95R,0.0984X0.0984*%
%ADD96R,0.0591X0.0591*%
%ADD97C,0.0591*%
%ADD98O,0.0512X0.0591*%
%ADD99R,0.0512X0.0591*%
%ADD100O,0.1000X0.0900*%
%ADD101O,0.0591X0.0512*%
%ADD102R,0.0591X0.0512*%
%ADD103C,0.0787*%
G04:AMPARAMS|DCode=104|XSize=78.7mil|YSize=78.7mil|CornerRadius=0mil|HoleSize=0mil|Usage=FLASHONLY|Rotation=180.000|XOffset=0mil|YOffset=0mil|HoleType=Round|Shape=Octagon|*
%AMOCTAGOND104*
4,1,8,-0.0394,0.0197,-0.0394,-0.0197,-0.0197,-0.0394,0.0197,-0.0394,0.0394,-0.0197,0.0394,0.0197,0.0197,0.0394,-0.0197,0.0394,-0.0394,0.0197,0.0*
%
%ADD104OCTAGOND104*%

%ADD105C,0.2835*%
%ADD106R,0.0600X0.0900*%
%ADD107O,0.0600X0.0900*%
%ADD108O,0.1024X0.0551*%
%ADD109O,0.0945X0.0630*%
G04:AMPARAMS|DCode=110|XSize=78.7mil|YSize=78.7mil|CornerRadius=0mil|HoleSize=0mil|Usage=FLASHONLY|Rotation=270.000|XOffset=0mil|YOffset=0mil|HoleType=Round|Shape=Octagon|*
%AMOCTAGOND110*
4,1,8,-0.0197,-0.0394,0.0197,-0.0394,0.0394,-0.0197,0.0394,0.0197,0.0197,0.0394,-0.0197,0.0394,-0.0394,0.0197,-0.0394,-0.0197,-0.0197,-0.0394,0.0*
%
%ADD110OCTAGOND110*%

%ADD111R,0.0984X0.0787*%
%ADD112R,0.0630X0.0630*%
%ADD113C,0.0472*%
G36*
X043624Y030577D02*
Y026315D01*
X041535D01*
X041531Y026315D01*
X041495D01*
X041456Y026307D01*
X041384Y026277D01*
X041351Y026255D01*
X041326Y026229D01*
X041323Y026227D01*
X041321Y026225D01*
X041295Y026199D01*
X041289Y02619D01*
X036029D01*
Y025624D01*
X034238D01*
X03415Y025607D01*
X034075Y025557D01*
X033822Y025304D01*
X033773Y025229D01*
X033755Y025142D01*
Y02511D01*
X033641D01*
Y024437D01*
X033708D01*
Y024023D01*
X033641D01*
Y023818D01*
X033339D01*
X033251Y023801D01*
X033177Y023751D01*
X032214Y022788D01*
X031675D01*
X031651Y022846D01*
X03161Y0229D01*
X031556Y022941D01*
X031493Y022967D01*
X031426Y022976D01*
X030875D01*
X030808Y022967D01*
X030745Y022941D01*
X030691Y0229D01*
X03065Y022846D01*
X030624Y022784D01*
X030615Y022717D01*
Y02247D01*
X030368Y022223D01*
X030151D01*
Y022434D01*
X029418D01*
Y022559D01*
X029293D01*
Y023174D01*
X028964D01*
Y02342D01*
X029411Y023866D01*
X029564D01*
X029641Y023882D01*
X029707Y023926D01*
X029751Y023991D01*
X029766Y024069D01*
Y024265D01*
X029756Y02432D01*
X029751Y024343D01*
X029741Y024364D01*
X029741Y024364D01*
Y024498D01*
X029765Y024508D01*
X029848Y024572D01*
X029912Y024655D01*
X029952Y024752D01*
X029962Y024829D01*
X029426D01*
X02889D01*
X0289Y024752D01*
X02894Y024655D01*
X029004Y024572D01*
X029088Y024508D01*
X029111Y024498D01*
Y024396D01*
X028544D01*
Y0249D01*
X027432D01*
Y024756D01*
X0274Y024745D01*
X027382Y024742D01*
X027269Y02483D01*
X027133Y024886D01*
X027113Y024888D01*
Y024305D01*
X026988D01*
Y02418D01*
X026439D01*
X026447Y02412D01*
X026503Y023985D01*
X026592Y023869D01*
X026663Y023814D01*
X026646Y023764D01*
X025614D01*
Y02381D01*
X025606Y023877D01*
X02558Y02394D01*
X025538Y023994D01*
X025485Y024035D01*
X025422Y024061D01*
X025355Y02407D01*
X02504D01*
X024973Y024061D01*
X02491Y024035D01*
X024856Y023994D01*
X024815Y02394D01*
X024789Y023877D01*
X02478Y02381D01*
Y023259D01*
X024789Y023192D01*
X024815Y023129D01*
X024856Y023075D01*
X02491Y023034D01*
X024973Y023008D01*
X02504Y022999D01*
X025355D01*
X025422Y023008D01*
X025485Y023034D01*
X025538Y023075D01*
X02558Y023129D01*
X025606Y023192D01*
X025614Y023259D01*
Y023305D01*
X027257D01*
X027345Y023323D01*
X02742Y023372D01*
X027757Y023709D01*
X028536D01*
X028541Y023706D01*
X028567Y023669D01*
X028523Y023603D01*
X028506Y023515D01*
Y022141D01*
X028523Y022053D01*
X028573Y021978D01*
X028719Y021832D01*
X028794Y021782D01*
X028881Y021765D01*
X030463D01*
X030551Y021782D01*
X030626Y021832D01*
X030935Y022142D01*
X031426D01*
X031493Y022151D01*
X031556Y022177D01*
X03161Y022218D01*
X031651Y022272D01*
X031675Y02233D01*
X032309D01*
X032397Y022347D01*
X032472Y022397D01*
X033434Y023359D01*
X033641D01*
Y023154D01*
X034106D01*
X034125Y023108D01*
X033971Y022954D01*
X033896D01*
X033819Y022938D01*
X033753Y022894D01*
X033709Y022829D01*
X033694Y022751D01*
Y022476D01*
X033709Y022398D01*
X033753Y022333D01*
X033819Y022289D01*
X033896Y022273D01*
X03401D01*
X034863Y02142D01*
X035223Y021061D01*
X035297Y021011D01*
X035385Y020994D01*
X036029D01*
Y019954D01*
X034528D01*
X03444Y019936D01*
X034365Y019887D01*
X03376Y019281D01*
X03371Y019207D01*
X033693Y019119D01*
Y019083D01*
X033691Y019083D01*
X033587Y019027D01*
X033496Y018952D01*
X033447Y018893D01*
X033397D01*
X033348Y018952D01*
X033257Y019027D01*
X033153Y019083D01*
X03304Y019117D01*
X032922Y019129D01*
X032804Y019117D01*
X032691Y019083D01*
X032587Y019027D01*
X032496Y018952D01*
X032447Y018893D01*
X032397D01*
X032348Y018952D01*
X032257Y019027D01*
X032153Y019083D01*
X03204Y019117D01*
X031922Y019129D01*
X031804Y019117D01*
X031691Y019083D01*
X031587Y019027D01*
X031496Y018952D01*
X031421Y018861D01*
X031365Y018756D01*
X031331Y018643D01*
X031319Y018526D01*
Y018226D01*
X031331Y018108D01*
X031365Y017995D01*
X031377Y017973D01*
X031351Y01793D01*
X029968D01*
X026737Y021161D01*
X026663Y021211D01*
X026575Y021229D01*
X025726D01*
Y021522D01*
X023361D01*
Y021229D01*
X022907D01*
X022759Y021376D01*
Y021451D01*
X022744Y021528D01*
X0227Y021594D01*
X022634Y021638D01*
X022557Y021653D01*
X022456D01*
X021566Y022543D01*
Y022697D01*
X021551Y022774D01*
X021507Y02284D01*
X021495Y022848D01*
Y023709D01*
X021927D01*
Y0249D01*
X02114D01*
X021041Y024999D01*
X021059Y025049D01*
X024782D01*
Y024734D01*
X025612D01*
Y025407D01*
X025617Y025432D01*
Y02641D01*
X025806Y0266D01*
X025884D01*
X025962Y026615D01*
X026028Y026659D01*
X026071Y026725D01*
X026087Y026802D01*
Y027078D01*
X026071Y027155D01*
X026054Y027181D01*
X026063Y027239D01*
X026147Y027302D01*
X02621Y027386D01*
X026251Y027483D01*
X026264Y027587D01*
Y027599D01*
X025764D01*
Y027849D01*
X026264D01*
Y027862D01*
X026251Y027966D01*
X02621Y028063D01*
X026147Y028146D01*
X026063Y02821D01*
X026008Y028233D01*
X025995Y028281D01*
X026006Y028295D01*
X026032Y028358D01*
X026041Y028425D01*
Y028642D01*
X027192D01*
X027649Y028185D01*
Y028147D01*
X02766Y028092D01*
X027665Y028069D01*
X027674Y028048D01*
X027674Y028048D01*
Y027914D01*
X02765Y027904D01*
X027567Y02784D01*
X027503Y027757D01*
X027463Y02766D01*
X027453Y027583D01*
X027989D01*
X028525D01*
X028515Y02766D01*
X028475Y027757D01*
X028411Y02784D01*
X028328Y027904D01*
X028304Y027914D01*
Y02799D01*
X029822D01*
X02992Y02801D01*
X030003Y028065D01*
X030668Y02873D01*
X031498D01*
Y029082D01*
X034071D01*
X03408Y029061D01*
X034121Y029007D01*
X034175Y028966D01*
X034237Y02894D01*
X034305Y028931D01*
X034364D01*
Y027955D01*
X034125D01*
Y027126D01*
X035191D01*
Y027955D01*
X034874D01*
Y028933D01*
X034923Y02894D01*
X034986Y028966D01*
X035039Y029007D01*
X035081Y029061D01*
X035107Y029123D01*
X035115Y02919D01*
Y029505D01*
X035107Y029573D01*
X035081Y029635D01*
X035039Y029689D01*
X034986Y02973D01*
X034923Y029756D01*
X034856Y029765D01*
X034305D01*
X034237Y029756D01*
X034175Y02973D01*
X034121Y029689D01*
X03408Y029635D01*
X034062Y029591D01*
X031498D01*
Y029921D01*
X030307D01*
Y02909D01*
X029717Y0285D01*
X02825D01*
X028204Y02853D01*
X028127Y028546D01*
X02801D01*
X027478Y029078D01*
X027395Y029133D01*
X027298Y029152D01*
X026041D01*
Y02937D01*
X026032Y029437D01*
X026006Y0295D01*
X025965Y029553D01*
X025911Y029595D01*
X025848Y029621D01*
X025781Y029629D01*
X025466D01*
X025399Y029621D01*
X025336Y029595D01*
X025282Y029553D01*
X025241Y0295D01*
X025215Y029437D01*
X025206Y02937D01*
Y029152D01*
X024949D01*
X024852Y029133D01*
X024769Y029078D01*
X023964Y028272D01*
X023765D01*
X023734Y028322D01*
X023748Y028358D01*
X023757Y028425D01*
Y02937D01*
X023748Y029437D01*
X023722Y0295D01*
X023681Y029553D01*
X023627Y029595D01*
X023565Y029621D01*
X023498Y029629D01*
X023183D01*
X023115Y029621D01*
X023053Y029595D01*
X022999Y029553D01*
X022958Y0295D01*
X022932Y029437D01*
X022923Y02937D01*
Y029135D01*
X021348D01*
X021332Y029185D01*
X021389Y029223D01*
X021437Y029295D01*
X021454Y02938D01*
X021437Y029466D01*
X021389Y029538D01*
X021317Y029586D01*
X021232Y029603D01*
X021073D01*
X021054Y029616D01*
X020956Y029635D01*
X018751D01*
X018654Y029616D01*
X018634Y029603D01*
X018476D01*
X018391Y029586D01*
X018319Y029538D01*
X01827Y029466D01*
X018253Y02938D01*
X01827Y029295D01*
X018319Y029223D01*
X018375Y029185D01*
X01836Y029135D01*
X017818D01*
X017166Y029788D01*
X017083Y029843D01*
X016986Y029862D01*
X015352D01*
Y029883D01*
X015343Y02995D01*
X015317Y030013D01*
X015276Y030067D01*
X015222Y030108D01*
X01516Y030134D01*
X015092Y030143D01*
X014777D01*
X01471Y030134D01*
X014648Y030108D01*
X014594Y030067D01*
X014553Y030013D01*
X014527Y02995D01*
X014518Y029883D01*
Y029767D01*
X014346D01*
X014248Y029748D01*
X014166Y029692D01*
X013484Y029011D01*
X013366D01*
Y029201D01*
X012378D01*
Y028213D01*
X013366D01*
Y028501D01*
X01359D01*
X013687Y02852D01*
X01377Y028576D01*
X014451Y029257D01*
X01453D01*
X014553Y029202D01*
X014594Y029148D01*
X014648Y029107D01*
X01471Y029081D01*
X014777Y029072D01*
X015092D01*
X01516Y029081D01*
X015222Y029107D01*
X015276Y029148D01*
X015317Y029202D01*
X015343Y029264D01*
X015352Y029332D01*
Y029352D01*
X01688D01*
X017532Y0287D01*
X017554Y028686D01*
X017539Y028636D01*
X016773D01*
X016726Y028683D01*
Y028761D01*
X016711Y028838D01*
X016667Y028904D01*
X016601Y028948D01*
X016524Y028963D01*
X016248D01*
X016171Y028948D01*
X016105Y028904D01*
X016061Y028838D01*
X016046Y028761D01*
Y028564D01*
X016057Y02851D01*
X016061Y028487D01*
X016071Y028466D01*
X016071Y028466D01*
Y028331D01*
X016047Y028321D01*
X015964Y028258D01*
X0159Y028174D01*
X01586Y028077D01*
X01585Y028D01*
X016386D01*
X016922D01*
X016912Y028076D01*
X016912Y028086D01*
X016943Y028126D01*
X017646D01*
X017647Y028126D01*
X01808D01*
X018104Y028076D01*
X018075Y028005D01*
X018751D01*
X019428D01*
X019392Y028091D01*
X019325Y028179D01*
X019238Y028246D01*
X019226Y028285D01*
X019232Y028295D01*
X019249Y02838D01*
X019232Y028466D01*
X019184Y028538D01*
X019112Y028586D01*
X019027Y028603D01*
X018869D01*
Y028658D01*
X019027D01*
X019112Y028675D01*
X019184Y028723D01*
X019232Y028795D01*
X019249Y02888D01*
X019232Y028966D01*
X019184Y029038D01*
X019128Y029076D01*
X019143Y029126D01*
X020565D01*
X02058Y029076D01*
X020523Y029038D01*
X020475Y028966D01*
X020458Y02888D01*
X020475Y028795D01*
X020523Y028723D01*
X020595Y028675D01*
X020681Y028658D01*
X020839D01*
Y028603D01*
X020681D01*
X020595Y028586D01*
X020523Y028538D01*
X020475Y028466D01*
X020458Y02838D01*
X020475Y028295D01*
X020523Y028223D01*
X020595Y028175D01*
X020681Y028158D01*
X020839D01*
Y028103D01*
X020681D01*
X020595Y028086D01*
X020523Y028038D01*
X020475Y027966D01*
X020458Y02788D01*
X020475Y027795D01*
X020523Y027723D01*
X020595Y027675D01*
X020681Y027658D01*
X020839D01*
X020859Y027645D01*
X020956Y027626D01*
X02193D01*
X022796Y02676D01*
X022879Y026704D01*
X022976Y026685D01*
X02474D01*
X024757Y026659D01*
X024823Y026615D01*
X0249Y0266D01*
X025073D01*
X025115Y026557D01*
X025107Y026516D01*
Y0258D01*
X024782D01*
Y025559D01*
X019029D01*
Y025874D01*
X018199D01*
Y0256D01*
X010572D01*
Y025881D01*
X010412D01*
Y026097D01*
X010393Y026195D01*
X010338Y026277D01*
X010096Y026519D01*
X010014Y026574D01*
X009916Y026593D01*
X006684D01*
Y027368D01*
X007358Y028043D01*
X007385Y028031D01*
X0075Y028009D01*
X007618D01*
X007733Y028031D01*
X007841Y028076D01*
X007939Y028141D01*
X008021Y028224D01*
X008087Y028322D01*
X008119Y0284D01*
X009378D01*
Y028213D01*
X010366D01*
Y029201D01*
X009378D01*
Y02891D01*
X00807D01*
X008021Y028983D01*
X007939Y029066D01*
X007841Y029131D01*
X007733Y029176D01*
X007618Y029199D01*
X0075D01*
X007385Y029176D01*
X007277Y029131D01*
X00718Y029066D01*
X007097Y028983D01*
X007032Y028886D01*
X006987Y028777D01*
X006964Y028662D01*
Y028545D01*
X006987Y02843D01*
X006998Y028403D01*
X006249Y027654D01*
X006194Y027572D01*
X006174Y027474D01*
Y026654D01*
X006086D01*
X006076Y026677D01*
X006013Y026761D01*
X005929Y026824D01*
X005832Y026865D01*
X005755Y026875D01*
Y026339D01*
Y025802D01*
X005832Y025813D01*
X005929Y025853D01*
X006013Y025917D01*
X006076Y026D01*
X006086Y026024D01*
X00622D01*
X00622Y026024D01*
Y026024D01*
X006234Y026017D01*
X006241Y026014D01*
X006265Y026009D01*
X006265Y026009D01*
X006266Y026009D01*
X006319Y025998D01*
X006516D01*
X006593Y026014D01*
X006659Y026058D01*
X006676Y026084D01*
X00981D01*
X009903Y025991D01*
Y025881D01*
X009743D01*
Y024815D01*
X010572D01*
Y02509D01*
X011137D01*
X011153Y02504D01*
X011111Y025012D01*
X01025Y024151D01*
X01D01*
X009933Y024142D01*
X00987Y024116D01*
X009816Y024075D01*
X009775Y024021D01*
X009749Y023959D01*
X00974Y023891D01*
Y02334D01*
X009749Y023273D01*
X009775Y02321D01*
X009816Y023157D01*
X00987Y023115D01*
X009933Y023089D01*
X01Y02308D01*
X010315D01*
X010382Y023089D01*
X010445Y023115D01*
X010499Y023157D01*
X01054Y02321D01*
X010566Y023273D01*
X010575Y02334D01*
Y023827D01*
X011241Y024493D01*
X011288Y02447D01*
X011283Y02443D01*
X011833D01*
Y024305D01*
X011958D01*
Y023721D01*
X011978Y023724D01*
X012113Y02378D01*
X012227Y023867D01*
X012244Y023864D01*
X012277Y023853D01*
Y023709D01*
X012446D01*
Y022775D01*
X012344D01*
X012334Y022799D01*
X01227Y022882D01*
X012187Y022946D01*
X01209Y022986D01*
X012013Y022996D01*
Y02246D01*
X011888D01*
Y022335D01*
X011387D01*
Y022322D01*
X011401Y022218D01*
X011441Y022121D01*
X011505Y022038D01*
X011588Y021974D01*
X011685Y021934D01*
X011781Y021921D01*
X011806Y021879D01*
X011807Y021877D01*
X01048Y02055D01*
X008787D01*
X008781Y020557D01*
Y022878D01*
X008827Y022897D01*
X010229Y021495D01*
X010243Y021486D01*
X010248Y021467D01*
X010292Y021391D01*
X010355Y021328D01*
X010431Y021284D01*
X010517Y021261D01*
X010605D01*
X010691Y021284D01*
X010767Y021328D01*
X01083Y021391D01*
X010874Y021467D01*
X010897Y021553D01*
Y021641D01*
X010874Y021727D01*
X01083Y021804D01*
X010767Y021866D01*
X010691Y02191D01*
X010605Y021933D01*
X010517D01*
X010431Y02191D01*
X01036Y021869D01*
X00903Y023199D01*
Y023932D01*
X009016Y024D01*
X008978Y024058D01*
X008155Y024881D01*
Y025107D01*
X008139Y025184D01*
X008096Y02525D01*
X00803Y025294D01*
X007952Y025309D01*
X007756D01*
X007701Y025298D01*
X007678Y025294D01*
X007657Y025284D01*
X007657Y025284D01*
X007264D01*
X007264Y025284D01*
Y025284D01*
X00725Y02529D01*
X007243Y025294D01*
X007219Y025298D01*
X007219Y025298D01*
X007218Y025299D01*
X007165Y025309D01*
X006968D01*
X006891Y025294D01*
X006825Y02525D01*
X00682Y025243D01*
X00591D01*
X005868Y025345D01*
X005779Y025461D01*
X005662Y02555D01*
X005527Y025606D01*
X005382Y025625D01*
X005303D01*
X005158Y025606D01*
X005023Y02555D01*
X004907Y025461D01*
X004818Y025345D01*
X004796Y025293D01*
X00362D01*
X003606Y025367D01*
X003553Y025493D01*
X003477Y025607D01*
X003381Y025703D01*
X003267Y025779D01*
X003141Y025832D01*
X003007Y025858D01*
X00287D01*
X002736Y025832D01*
X00261Y025779D01*
X002496Y025703D01*
X0024Y025607D01*
X002324Y025493D01*
X002272Y025367D01*
X002245Y025233D01*
Y025096D01*
X002272Y024962D01*
X002324Y024836D01*
X0024Y024722D01*
X002428Y024694D01*
X002245Y024511D01*
Y023818D01*
X002592Y023471D01*
X003285D01*
X003632Y023818D01*
Y023986D01*
X004747D01*
Y023508D01*
X005938D01*
Y023886D01*
X006395D01*
X006805Y023475D01*
Y023289D01*
X006821Y023212D01*
X006865Y023146D01*
X00693Y023102D01*
X007008Y023087D01*
X007283D01*
X007361Y023102D01*
X007426Y023146D01*
X007468Y023209D01*
X007596D01*
X007638Y023146D01*
X007704Y023102D01*
X007781Y023087D01*
X008057D01*
X008134Y023102D01*
X0082Y023146D01*
X008244Y023212D01*
X008259Y023289D01*
Y023441D01*
X008309Y023465D01*
X008322Y023454D01*
Y020578D01*
X008274Y02053D01*
X008138D01*
X00813Y020542D01*
X008064Y020586D01*
X007987Y020601D01*
X007711D01*
X007634Y020586D01*
X007568Y020542D01*
X007524Y020476D01*
X007509Y020399D01*
Y020202D01*
X007516Y020163D01*
X00747Y020138D01*
X00735Y020259D01*
Y020406D01*
X007334Y020483D01*
X00729Y020549D01*
X007225Y020593D01*
X00719Y0206D01*
Y020832D01*
X007228Y020839D01*
X007294Y020883D01*
X007337Y020949D01*
X007353Y021026D01*
Y021223D01*
X007342Y021277D01*
X007337Y0213D01*
X007328Y021321D01*
X007328Y021321D01*
Y021715D01*
X007328Y021715D01*
X007328D01*
X007334Y021729D01*
X007337Y021736D01*
X007342Y021759D01*
X007342Y021759D01*
X007342Y02176D01*
X007353Y021814D01*
Y02201D01*
X007337Y022088D01*
X007294Y022154D01*
X007228Y022197D01*
X007151Y022213D01*
X006875D01*
X006798Y022197D01*
X006732Y022154D01*
X006688Y022088D01*
X006673Y02201D01*
Y021824D01*
X00656Y021712D01*
X005893D01*
X005851Y021814D01*
X005762Y02193D01*
X005646Y022019D01*
X00551Y022075D01*
X005365Y022094D01*
X005286D01*
X005141Y022075D01*
X005006Y022019D01*
X00489Y02193D01*
X004801Y021814D01*
X004764Y021724D01*
X003613D01*
X003606Y02176D01*
X003553Y021886D01*
X003477Y022D01*
X003381Y022097D01*
X003267Y022172D01*
X003141Y022225D01*
X003007Y022251D01*
X00287D01*
X002736Y022225D01*
X00261Y022172D01*
X002496Y022097D01*
X0024Y022D01*
X002324Y021886D01*
X002272Y02176D01*
X002245Y021626D01*
Y021489D01*
X002272Y021355D01*
X002324Y021229D01*
X0024Y021115D01*
X002428Y021087D01*
X002245Y020905D01*
Y020211D01*
X002592Y019864D01*
X003285D01*
X003632Y020211D01*
Y020379D01*
X004731D01*
Y019978D01*
X005921D01*
Y019978D01*
X005947Y019988D01*
X006516Y01942D01*
X006516Y01942D01*
X006573Y019381D01*
X006642Y019367D01*
X00668D01*
X006685Y019344D01*
X006729Y019279D01*
X006794Y019235D01*
X006872Y019219D01*
X007147D01*
X007225Y019235D01*
X00729Y019279D01*
X00733Y019338D01*
X007524D01*
X007524Y019337D01*
X007568Y019272D01*
X007634Y019228D01*
X007711Y019212D01*
X007987D01*
X008064Y019228D01*
X00813Y019272D01*
X008173Y019337D01*
X008189Y019415D01*
Y019478D01*
X008235Y019497D01*
X011035Y016698D01*
X011035Y016698D01*
X011055Y016684D01*
X01106Y016635D01*
X011027Y0166D01*
X008826D01*
X008806Y01665D01*
X008819Y016664D01*
X008863Y01674D01*
X008886Y016826D01*
Y016914D01*
X008863Y017D01*
X008819Y017076D01*
X008756Y017139D01*
X00868Y017183D01*
X008594Y017206D01*
X008506D01*
X00842Y017183D01*
X008344Y017139D01*
X008281Y017076D01*
X008275Y017067D01*
X00807D01*
X008062Y017079D01*
X007996Y017123D01*
X007919Y017138D01*
X007643D01*
X007566Y017123D01*
X0075Y017079D01*
X007457Y017013D01*
X007441Y016936D01*
Y016739D01*
X007449Y016699D01*
X007403Y016675D01*
X007289Y016789D01*
Y016936D01*
X007273Y017013D01*
X007229Y017079D01*
X007164Y017123D01*
X007127Y01713D01*
Y017356D01*
X007164Y017363D01*
X007229Y017407D01*
X007273Y017472D01*
X007289Y01755D01*
Y017747D01*
X007278Y017801D01*
X007273Y017824D01*
X007263Y017845D01*
X007263Y017845D01*
Y018239D01*
X007263Y018239D01*
X007263D01*
X00727Y018253D01*
X007273Y01826D01*
X007278Y018283D01*
X007278Y018283D01*
X007278Y018284D01*
X007289Y018337D01*
Y018534D01*
X007273Y018612D01*
X007229Y018677D01*
X007164Y018721D01*
X007086Y018736D01*
X006811D01*
X006733Y018721D01*
X006668Y018677D01*
X006624Y018612D01*
X006608Y018534D01*
Y018348D01*
X006241Y01798D01*
X005832D01*
X00579Y018082D01*
X005701Y018198D01*
X005584Y018287D01*
X005449Y018343D01*
X005304Y018362D01*
X005225D01*
X00508Y018343D01*
X004945Y018287D01*
X004829Y018198D01*
X00474Y018082D01*
X004715Y018022D01*
X003619D01*
X003606Y018087D01*
X003553Y018213D01*
X003477Y018327D01*
X003381Y018423D01*
X003267Y018499D01*
X003141Y018552D01*
X003007Y018578D01*
X00287D01*
X002736Y018552D01*
X00261Y018499D01*
X002496Y018423D01*
X0024Y018327D01*
X002324Y018213D01*
X002272Y018087D01*
X002245Y017953D01*
Y017816D01*
X002272Y017682D01*
X002324Y017556D01*
X0024Y017442D01*
X002428Y017414D01*
X002245Y017231D01*
Y016538D01*
X002592Y016191D01*
X003285D01*
X003632Y016538D01*
Y016706D01*
X004669D01*
Y016246D01*
X00586D01*
Y016506D01*
X005906Y016525D01*
X006468Y015963D01*
X006468Y015963D01*
X006526Y015924D01*
X006594Y015911D01*
X006616D01*
X006624Y015874D01*
X006668Y015808D01*
X006733Y015765D01*
X006811Y015749D01*
X007086D01*
X007164Y015765D01*
X007229Y015808D01*
X007271Y015871D01*
X007458D01*
X0075Y015808D01*
X007566Y015765D01*
X007643Y015749D01*
X007919D01*
X007996Y015765D01*
X008062Y015808D01*
X008106Y015874D01*
X008121Y015951D01*
Y016148D01*
X008112Y016193D01*
X00815Y016243D01*
X011075D01*
X011096Y016193D01*
X008887Y013985D01*
X00732D01*
X007278Y014003D01*
Y014397D01*
X007278Y014397D01*
X007278D01*
X007284Y014411D01*
X007288Y014418D01*
X007292Y014441D01*
X007292Y014441D01*
X007292Y014442D01*
X007303Y014496D01*
Y014692D01*
X007288Y01477D01*
X007244Y014835D01*
X007178Y014879D01*
X007101Y014895D01*
X006825D01*
X006748Y014879D01*
X006682Y014835D01*
X006638Y01477D01*
X006623Y014692D01*
Y014506D01*
X006412Y014296D01*
X005868D01*
X005826Y014398D01*
X005737Y014514D01*
X005621Y014603D01*
X005486Y014659D01*
X00534Y014678D01*
X005262D01*
X005117Y014659D01*
X004981Y014603D01*
X004865Y014514D01*
X004776Y014398D01*
X004755Y014346D01*
X00362D01*
X003606Y01442D01*
X003553Y014546D01*
X003477Y01466D01*
X003381Y014756D01*
X003267Y014832D01*
X003141Y014884D01*
X003007Y014911D01*
X00287D01*
X002736Y014884D01*
X00261Y014832D01*
X002496Y014756D01*
X0024Y01466D01*
X002324Y014546D01*
X002272Y01442D01*
X002245Y014286D01*
Y014149D01*
X002272Y014015D01*
X002324Y013889D01*
X0024Y013775D01*
X002428Y013747D01*
X002245Y013564D01*
Y012871D01*
X002592Y012524D01*
X003285D01*
X003632Y012871D01*
Y013039D01*
X004706D01*
Y012561D01*
X005896D01*
Y012881D01*
X006023D01*
X006623Y012281D01*
Y01211D01*
X006638Y012032D01*
X006682Y011967D01*
X006748Y011923D01*
X006825Y011908D01*
X007101D01*
X007178Y011923D01*
X007244Y011967D01*
X007286Y01203D01*
X007501D01*
X007543Y011967D01*
X007609Y011923D01*
X007686Y011908D01*
X007962D01*
X008039Y011923D01*
X008105Y011967D01*
X008149Y012032D01*
X008164Y01211D01*
Y012307D01*
X008149Y012384D01*
X008105Y01245D01*
X008099Y012454D01*
Y01275D01*
X008105Y012754D01*
X008111Y012763D01*
X008291D01*
X008334Y012721D01*
X00841Y012677D01*
X008496Y012654D01*
X008584D01*
X00867Y012677D01*
X008746Y012721D01*
X008809Y012784D01*
X008853Y01286D01*
X008876Y012946D01*
Y013034D01*
X008853Y01312D01*
X008809Y013196D01*
X008746Y013259D01*
X00867Y013303D01*
X008584Y013326D01*
X008496D01*
X00841Y013303D01*
X008334Y013259D01*
X008297Y013222D01*
X008115D01*
X008105Y013237D01*
X008039Y013281D01*
X007962Y013296D01*
X007686D01*
X007609Y013281D01*
X007543Y013237D01*
X007499Y013171D01*
X007484Y013094D01*
Y012897D01*
X007499Y01282D01*
X007543Y012754D01*
Y01245D01*
X007501Y012387D01*
X007286D01*
X007244Y01245D01*
Y012754D01*
X007288Y01282D01*
X007303Y012897D01*
Y013094D01*
X007288Y013172D01*
X007244Y013237D01*
X007178Y013281D01*
X007141Y013288D01*
Y013514D01*
X007178Y013521D01*
X007244Y013565D01*
X007286Y013628D01*
X008961D01*
X00903Y013642D01*
X009088Y01368D01*
X011541Y016134D01*
X014633D01*
X014674Y016084D01*
X014668Y016056D01*
X014674Y016029D01*
X014633Y015979D01*
X013128D01*
X013128Y015979D01*
X01306Y015965D01*
X013002Y015926D01*
X013002Y015926D01*
X007374Y010299D01*
X007333Y010328D01*
X007346Y010393D01*
Y01059D01*
X00733Y010668D01*
X007286Y010733D01*
X007221Y010777D01*
X007143Y010792D01*
X006868D01*
X00679Y010777D01*
X006725Y010733D01*
X006681Y010668D01*
X006665Y01059D01*
Y010431D01*
X006614Y01038D01*
X005841D01*
X005821Y010427D01*
X005732Y010543D01*
X005616Y010632D01*
X005481Y010688D01*
X005335Y010707D01*
X005257D01*
X005112Y010688D01*
X004976Y010632D01*
X00486Y010543D01*
X004823Y010494D01*
X003589D01*
X003584Y010518D01*
X003532Y010644D01*
X003456Y010758D01*
X003359Y010854D01*
X003246Y01093D01*
X00312Y010983D01*
X002985Y011009D01*
X002849D01*
X002715Y010983D01*
X002589Y01093D01*
X002475Y010854D01*
X002378Y010758D01*
X002302Y010644D01*
X00225Y010518D01*
X002223Y010384D01*
Y010247D01*
X00225Y010113D01*
X002302Y009987D01*
X002378Y009873D01*
X002406Y009845D01*
X002223Y009662D01*
Y008969D01*
X00257Y008622D01*
X003264D01*
X003611Y008969D01*
Y009137D01*
X004701D01*
Y008591D01*
X005891D01*
Y008739D01*
X005938Y008759D01*
X006643Y008053D01*
Y007894D01*
X006658Y007816D01*
X006702Y007751D01*
X006768Y007707D01*
X006845Y007691D01*
X007121D01*
X007198Y007707D01*
X007264Y007751D01*
X007306Y007814D01*
X007493D01*
X007535Y007751D01*
X007601Y007707D01*
X007678Y007691D01*
X007954D01*
X008031Y007707D01*
X008097Y007751D01*
X008141Y007816D01*
X008156Y007894D01*
Y008091D01*
X008141Y008168D01*
X008097Y008234D01*
X00809Y008238D01*
Y008534D01*
X008097Y008538D01*
X008105Y00855D01*
X008295D01*
X008335Y008511D01*
X008411Y008466D01*
X008497Y008443D01*
X008585D01*
X008671Y008466D01*
X008747Y008511D01*
X00881Y008573D01*
X008854Y00865D01*
X008877Y008735D01*
Y008824D01*
X008854Y008909D01*
X00881Y008986D01*
X008747Y009049D01*
X008671Y009093D01*
X008585Y009116D01*
X008497D01*
X008411Y009093D01*
X008335Y009049D01*
X008295Y009009D01*
X008105D01*
X008097Y009021D01*
X008031Y009065D01*
X007954Y00908D01*
X007678D01*
X007601Y009065D01*
X007535Y009021D01*
X007491Y008955D01*
X007476Y008878D01*
Y008681D01*
X007491Y008604D01*
X007535Y008538D01*
Y008234D01*
X007493Y008171D01*
X007306D01*
X007264Y008234D01*
Y008538D01*
X007308Y008604D01*
X007323Y008681D01*
Y008878D01*
X007308Y008955D01*
X007264Y009021D01*
X007198Y009065D01*
X007173Y00907D01*
Y009409D01*
X007221Y009419D01*
X007286Y009463D01*
X00733Y009528D01*
X007346Y009606D01*
Y009765D01*
X013173Y015592D01*
X013179Y015591D01*
X013195Y015537D01*
X00983Y012172D01*
X009792Y012114D01*
X009778Y012046D01*
Y008889D01*
X007386Y006497D01*
X00734Y006522D01*
X007347Y006554D01*
Y006751D01*
X007331Y006828D01*
X007287Y006894D01*
X007222Y006938D01*
X007144Y006953D01*
X006869D01*
X006791Y006938D01*
X006726Y006894D01*
X006682Y006828D01*
X006666Y006751D01*
Y006565D01*
X006583Y006481D01*
X005828D01*
X005786Y006583D01*
X005697Y0067D01*
X005581Y006789D01*
X005445Y006845D01*
X0053Y006864D01*
X005222D01*
X005076Y006845D01*
X004941Y006789D01*
X004825Y0067D01*
X004736Y006583D01*
X004694Y006481D01*
X003615D01*
Y006552D01*
X003588Y006686D01*
X003536Y006813D01*
X00346Y006926D01*
X003364Y007023D01*
X00325Y007099D01*
X003124Y007151D01*
X00299Y007178D01*
X002853D01*
X002719Y007151D01*
X002593Y007099D01*
X002479Y007023D01*
X002383Y006926D01*
X002307Y006813D01*
X002254Y006686D01*
X002228Y006552D01*
Y006416D01*
X002254Y006282D01*
X002307Y006155D01*
X002383Y006042D01*
X002411Y006014D01*
X002228Y005831D01*
Y005137D01*
X002575Y00479D01*
X003268D01*
X003603Y005125D01*
X004666D01*
Y004747D01*
X005856D01*
Y005125D01*
X005994D01*
X006666Y004453D01*
Y004266D01*
X006682Y004189D01*
X006726Y004123D01*
X006791Y004079D01*
X006869Y004064D01*
X007144D01*
X007222Y004079D01*
X007287Y004123D01*
X00733Y004186D01*
X007454D01*
X007497Y004123D01*
X007562Y004079D01*
X00764Y004064D01*
X007915D01*
X007993Y004079D01*
X008058Y004123D01*
X008102Y004189D01*
X008118Y004266D01*
Y004456D01*
X008134Y004469D01*
X008165Y004479D01*
X009664Y002981D01*
X009738Y002931D01*
X009826Y002913D01*
X011838D01*
X011926Y002931D01*
X012001Y002981D01*
X012124Y003104D01*
X012135Y003093D01*
X012829D01*
X013176Y00344D01*
Y003557D01*
X017776D01*
X017863Y003575D01*
X017938Y003624D01*
X018039Y003725D01*
X018085Y003706D01*
Y00364D01*
X017687Y003242D01*
X01768Y003244D01*
X017559Y003256D01*
X017244D01*
X017124Y003244D01*
X017008Y003209D01*
X016901Y003152D01*
X016807Y003075D01*
X01673Y002981D01*
X016683Y002893D01*
X0156D01*
X015553Y002981D01*
X015476Y003075D01*
X015383Y003152D01*
X015276Y003209D01*
X01516Y003244D01*
X015039Y003256D01*
X014724D01*
X014604Y003244D01*
X014488Y003209D01*
X014381Y003152D01*
X014287Y003075D01*
X014211Y002981D01*
X014154Y002874D01*
X014118Y002758D01*
X014106Y002638D01*
X014118Y002517D01*
X014154Y002401D01*
X014211Y002294D01*
X014287Y002201D01*
X014381Y002124D01*
X014488Y002067D01*
X014604Y002032D01*
X014724Y00202D01*
X015039D01*
X01516Y002032D01*
X015276Y002067D01*
X015383Y002124D01*
X015476Y002201D01*
X015553Y002294D01*
X0156Y002383D01*
X016683D01*
X01673Y002294D01*
X016807Y002201D01*
X016901Y002124D01*
X017008Y002067D01*
X017124Y002032D01*
X017244Y00202D01*
X017559D01*
X01768Y002032D01*
X017796Y002067D01*
X017902Y002124D01*
X017996Y002201D01*
X018073Y002294D01*
X01812Y002383D01*
X021292D01*
X02139Y002402D01*
X021472Y002458D01*
X022612Y003598D01*
X023824D01*
Y005182D01*
X022239D01*
Y003946D01*
X021861Y003567D01*
X021824Y0036D01*
X021824Y003646D01*
Y004265D01*
X021156D01*
Y003598D01*
X021774D01*
X021821Y003598D01*
X021854Y00356D01*
X021187Y002893D01*
X01812D01*
X018073Y002981D01*
X018009Y003059D01*
X018337Y003387D01*
X018563D01*
X01864Y003403D01*
X018706Y003447D01*
X01875Y003512D01*
X018765Y00359D01*
Y003787D01*
X01875Y003864D01*
X018706Y00393D01*
X0187Y003934D01*
Y00423D01*
X018706Y004234D01*
X01875Y0043D01*
X018765Y004377D01*
Y004452D01*
X019635Y005322D01*
X03078D01*
X030797Y005305D01*
Y004764D01*
X030745Y00473D01*
X030701Y004664D01*
X030686Y004587D01*
Y00439D01*
X030701Y004312D01*
X030745Y004247D01*
Y003942D01*
X030703Y003879D01*
X030428D01*
X030243Y004064D01*
X030278Y004106D01*
X030335Y004212D01*
X03037Y004328D01*
X030382Y004449D01*
X03037Y004569D01*
X030335Y004685D01*
X030278Y004792D01*
X030201Y004886D01*
X030107Y004963D01*
X03Y00502D01*
X029884Y005055D01*
X029764Y005067D01*
X029449D01*
X029328Y005055D01*
X029212Y00502D01*
X029106Y004963D01*
X029012Y004886D01*
X028935Y004792D01*
X028878Y004685D01*
X02886Y004627D01*
X027833D01*
X027815Y004685D01*
X027758Y004792D01*
X027681Y004886D01*
X027587Y004963D01*
X027481Y00502D01*
X027365Y005055D01*
X027244Y005067D01*
X026929D01*
X026809Y005055D01*
X026693Y00502D01*
X026586Y004963D01*
X026492Y004886D01*
X026415Y004792D01*
X026358Y004685D01*
X026323Y004569D01*
X026311Y004449D01*
X026323Y004328D01*
X026358Y004212D01*
X026415Y004106D01*
X026492Y004012D01*
X026586Y003935D01*
X026693Y003878D01*
X026809Y003843D01*
X026929Y003831D01*
X027244D01*
X027365Y003843D01*
X027481Y003878D01*
X027587Y003935D01*
X027681Y004012D01*
X027758Y004106D01*
X027815Y004212D01*
X027833Y00427D01*
X02886D01*
X028878Y004212D01*
X028935Y004106D01*
X029012Y004012D01*
X029106Y003935D01*
X029212Y003878D01*
X029328Y003843D01*
X029449Y003831D01*
X029764D01*
X029884Y003843D01*
X029942Y00386D01*
X030228Y003575D01*
X030228Y003575D01*
X030286Y003536D01*
X030354Y003522D01*
X030354Y003522D01*
X030703D01*
X030745Y003459D01*
X030811Y003415D01*
X030888Y0034D01*
X031164D01*
X031241Y003415D01*
X031307Y003459D01*
X031349Y003522D01*
X035337D01*
X035405Y003536D01*
X035463Y003575D01*
X035486Y003598D01*
X036818D01*
Y005182D01*
X035234D01*
Y003879D01*
X034818D01*
Y004265D01*
X033234D01*
Y003879D01*
X031349D01*
X031307Y003942D01*
X031301Y003946D01*
Y004242D01*
X031307Y004247D01*
X031351Y004312D01*
X031366Y00439D01*
Y004587D01*
X031351Y004664D01*
X031307Y00473D01*
X031256Y004764D01*
Y005305D01*
X031295Y005345D01*
X031339Y005421D01*
X031362Y005507D01*
Y005595D01*
X031339Y005681D01*
X031295Y005758D01*
X031233Y00582D01*
X031156Y005864D01*
X03107Y005887D01*
X030982D01*
X030896Y005864D01*
X03082Y00582D01*
X03078Y005781D01*
X01954D01*
X019452Y005763D01*
X019378Y005713D01*
X018441Y004776D01*
X018287D01*
X01821Y004761D01*
X018163Y00473D01*
X018102Y004737D01*
X018073Y004792D01*
X017996Y004886D01*
X017902Y004963D01*
X017796Y00502D01*
X01768Y005055D01*
X017559Y005067D01*
X017527D01*
Y004449D01*
X017402D01*
Y004324D01*
X016639D01*
X016673Y004212D01*
X01673Y004106D01*
X016767Y004061D01*
X016745Y004016D01*
X015538D01*
X015517Y004061D01*
X015553Y004106D01*
X01561Y004212D01*
X015644Y004324D01*
X014882D01*
X01412D01*
X014154Y004212D01*
X014211Y004106D01*
X014247Y004061D01*
X014226Y004016D01*
X013176D01*
Y004133D01*
X012829Y00448D01*
X012801D01*
X012782Y004527D01*
X013131Y004876D01*
X01318Y00495D01*
X013198Y005038D01*
Y006574D01*
X01318Y006662D01*
X013131Y006736D01*
X012984Y006883D01*
X01291Y006933D01*
X012822Y00695D01*
X012809D01*
X012807Y006963D01*
X012763Y007028D01*
X012712Y007063D01*
Y007515D01*
X012818D01*
Y008109D01*
X012146D01*
Y007515D01*
X012253D01*
Y007063D01*
X012201Y007028D01*
X012157Y006963D01*
X012142Y006885D01*
Y006688D01*
X012157Y006611D01*
X012164Y006601D01*
X012125Y006569D01*
X011614Y00708D01*
Y007519D01*
X011651Y007527D01*
X011717Y007571D01*
X011761Y007636D01*
X011776Y007714D01*
Y007911D01*
X011761Y007988D01*
X011717Y008054D01*
X01171Y008058D01*
Y008354D01*
X011717Y008358D01*
X011759Y008421D01*
X012159D01*
X012201Y008358D01*
X012267Y008314D01*
X012344Y008299D01*
X01262D01*
X012697Y008314D01*
X012763Y008358D01*
X012807Y008424D01*
X012822Y008501D01*
Y008698D01*
X012807Y008775D01*
X012763Y008841D01*
X012697Y008885D01*
X01262Y0089D01*
X012344D01*
X012267Y008885D01*
X012201Y008841D01*
X012159Y008778D01*
X011759D01*
X011717Y008841D01*
X011651Y008885D01*
X011574Y0089D01*
X011298D01*
X011221Y008885D01*
X011155Y008841D01*
X011111Y008775D01*
X011096Y008698D01*
Y008501D01*
X011111Y008424D01*
X011155Y008358D01*
Y008054D01*
X011113Y007991D01*
X010691D01*
X010649Y008054D01*
X010642Y008058D01*
Y008354D01*
X010649Y008358D01*
X010692Y008424D01*
X010708Y008501D01*
Y008648D01*
X013419Y011359D01*
X013422D01*
X013491Y011373D01*
X013548Y011412D01*
X016379Y014242D01*
X016418Y0143D01*
X016431Y014369D01*
X016431Y014369D01*
Y014381D01*
X016876Y014826D01*
X016915Y014825D01*
X016952Y014778D01*
X016952Y014777D01*
X016966Y014707D01*
X017005Y014649D01*
X016966Y01459D01*
X016952Y014521D01*
X016966Y014451D01*
X017005Y014392D01*
X017064Y014352D01*
X017134Y014338D01*
X017685D01*
X017704Y014342D01*
X01814D01*
Y014321D01*
X018163Y014236D01*
X018207Y014159D01*
X01827Y014096D01*
X018346Y014052D01*
X018432Y014029D01*
X01852D01*
X018606Y014052D01*
X018683Y014096D01*
X018745Y014159D01*
X018789Y014236D01*
X018812Y014321D01*
Y01441D01*
X0188Y014457D01*
X018838Y014507D01*
X018852D01*
X018937Y01453D01*
X019014Y014574D01*
X019077Y014637D01*
X019121Y014713D01*
X019144Y014799D01*
Y014887D01*
X019121Y014973D01*
X019077Y01505D01*
X019063Y015064D01*
X019082Y01511D01*
X020248D01*
X020293Y015066D01*
X020369Y015021D01*
X020455Y014998D01*
X020543D01*
X020629Y015021D01*
X020706Y015066D01*
X020768Y015128D01*
X020812Y015205D01*
X020835Y01529D01*
Y015379D01*
X020812Y015464D01*
X020768Y015541D01*
X020706Y015604D01*
X020629Y015648D01*
X020543Y015671D01*
X020455D01*
X020369Y015648D01*
X020293Y015604D01*
X020277Y015588D01*
X020232Y015614D01*
X02025Y01568D01*
Y015769D01*
X020227Y015854D01*
X020183Y015931D01*
X02012Y015994D01*
X020044Y016038D01*
X019958Y016061D01*
X01987D01*
X019823Y0161D01*
Y01615D01*
X0198Y016235D01*
X019755Y016312D01*
X019693Y016374D01*
X019616Y016419D01*
X019531Y016442D01*
X019442D01*
X019357Y016419D01*
X01928Y016374D01*
X019217Y016312D01*
X019173Y016235D01*
X01915Y01615D01*
Y016061D01*
X019153Y01605D01*
X019084Y01598D01*
X018644D01*
X018625Y016026D01*
X019415Y016816D01*
X019454Y016874D01*
X019465Y016933D01*
X019884Y017352D01*
X01994Y017336D01*
X019955Y017277D01*
X02Y017201D01*
X020062Y017138D01*
X020139Y017094D01*
X020224Y017071D01*
X020313D01*
X020398Y017094D01*
X020475Y017138D01*
X020523Y017186D01*
X021049D01*
X021057Y017148D01*
X021101Y017082D01*
X021166Y017038D01*
X021244Y017023D01*
X021441D01*
X021518Y017038D01*
X021584Y017082D01*
X021588Y017088D01*
X021884D01*
X021888Y017082D01*
X021954Y017038D01*
X022031Y017023D01*
X022228D01*
X022305Y017038D01*
X022371Y017082D01*
X022388Y017108D01*
X022885D01*
Y015901D01*
X022846D01*
Y015251D01*
X023396D01*
X023433Y015221D01*
Y015051D01*
X023783D01*
Y015576D01*
X024033D01*
Y015051D01*
X024383D01*
Y01534D01*
X024391D01*
X024478Y015376D01*
X024544Y015443D01*
X024548Y015451D01*
X024344D01*
Y015701D01*
X024548D01*
X024544Y01571D01*
X024492Y015762D01*
X024512Y015812D01*
X024732D01*
X02482Y01583D01*
X024895Y015879D01*
X024991Y015976D01*
X025211D01*
X026664Y014523D01*
X026739Y014473D01*
X026827Y014456D01*
X027931D01*
X027995Y014392D01*
X027991Y014378D01*
X027969Y014347D01*
X027913Y014354D01*
X027598D01*
X027531Y014345D01*
X027469Y014319D01*
X027415Y014278D01*
X027374Y014224D01*
X027348Y014162D01*
X027339Y014094D01*
Y013543D01*
X027348Y013476D01*
X027374Y013413D01*
X027415Y01336D01*
X027469Y013318D01*
X027523Y013296D01*
Y012559D01*
X027469Y012522D01*
X027461Y01251D01*
X027182D01*
X025331Y014361D01*
Y014677D01*
X025536D01*
Y01527D01*
X024667D01*
Y014677D01*
X024872D01*
Y014266D01*
X024889Y014178D01*
X024939Y014104D01*
X026924Y012119D01*
X026999Y012069D01*
X027087Y012051D01*
X027434D01*
Y01195D01*
X027411Y01194D01*
X027328Y011876D01*
X027264Y011793D01*
X027223Y011696D01*
X027213Y011618D01*
X027749D01*
Y011493D01*
X027874D01*
Y010993D01*
X027887D01*
X027991Y011007D01*
X028088Y011047D01*
X028171Y011111D01*
X02819D01*
X028274Y011047D01*
X02837Y011007D01*
X028475Y010993D01*
X028487D01*
Y011493D01*
X028737D01*
Y010993D01*
X02875D01*
X028854Y011007D01*
X028951Y011047D01*
X029034Y011111D01*
X029098Y011194D01*
X029136Y011287D01*
X029153Y011293D01*
X02919Y011297D01*
X02922Y011252D01*
X029271Y011218D01*
Y010984D01*
X02922Y01095D01*
X029176Y010884D01*
X02916Y010807D01*
Y01061D01*
X029176Y010533D01*
X02922Y010467D01*
Y010392D01*
X029162Y010368D01*
X029079Y010304D01*
X029015Y010221D01*
X028975Y010124D01*
X028964Y010046D01*
X029501D01*
Y009796D01*
X028964D01*
X028975Y009719D01*
X029015Y009622D01*
X029079Y009539D01*
X029162Y009475D01*
X029259Y009435D01*
X029272Y009433D01*
X02929Y00938D01*
X029249Y009338D01*
X029245Y00933D01*
X029449D01*
Y00908D01*
X029245D01*
X029249Y009071D01*
X029305Y009015D01*
X02929Y008967D01*
X029289Y008965D01*
X028018D01*
X023299Y013684D01*
Y013737D01*
X023318Y01378D01*
X023452D01*
X023462Y013756D01*
X023526Y013673D01*
X023609Y013609D01*
X023706Y013569D01*
X023783Y013558D01*
Y014094D01*
Y014631D01*
X023706Y01462D01*
X023609Y01458D01*
X023526Y014516D01*
X023462Y014433D01*
X023452Y014409D01*
X023318D01*
X023318Y014409D01*
Y014409D01*
X023304Y014416D01*
X023297Y014419D01*
X023274Y014424D01*
X023274Y014424D01*
X023272Y014424D01*
X023219Y014435D01*
X023022D01*
X022945Y014419D01*
X022879Y014375D01*
X022835Y01431D01*
X022833Y014297D01*
X022597D01*
X022567Y01435D01*
X022504Y014412D01*
X022427Y014457D01*
X022342Y01448D01*
X022253D01*
X022168Y014457D01*
X022091Y014412D01*
X022029Y01435D01*
X021984Y014273D01*
X021961Y014188D01*
Y014099D01*
X021984Y014014D01*
X022029Y013937D01*
X022091Y013874D01*
X022168Y01383D01*
X022253Y013807D01*
X022342D01*
X022427Y01383D01*
X022504Y013874D01*
X022567Y013937D01*
X022569Y01394D01*
X022823D01*
X022835Y013879D01*
X022879Y013814D01*
X022942Y013772D01*
Y01361D01*
X022956Y013542D01*
X022995Y013484D01*
X027818Y00866D01*
X027818Y00866D01*
X027876Y008622D01*
X027944Y008608D01*
X030013D01*
X030081Y008622D01*
X030139Y00866D01*
X030227Y008748D01*
X030266Y008806D01*
X030279Y008874D01*
Y010621D01*
X030266Y010689D01*
X030227Y010747D01*
X030139Y010835D01*
X030081Y010873D01*
X030013Y010887D01*
X029824D01*
X029781Y01095D01*
X02973Y010984D01*
Y011218D01*
X029781Y011252D01*
X029825Y011318D01*
X029841Y011395D01*
Y011585D01*
X029857Y011597D01*
X029889Y011608D01*
X033541Y007955D01*
X033616Y007905D01*
X033703Y007888D01*
X036134D01*
X039463Y004559D01*
X039442Y004509D01*
X039325Y004486D01*
X039199Y004434D01*
X039085Y004358D01*
X038989Y004261D01*
X038913Y004147D01*
X038861Y004021D01*
X038834Y003887D01*
Y003751D01*
X038861Y003617D01*
X038913Y00349D01*
X038989Y003377D01*
X039085Y00328D01*
X039199Y003204D01*
X039298Y003163D01*
Y003126D01*
X039316Y003038D01*
X039365Y002964D01*
X039801Y002528D01*
X039876Y002478D01*
X039964Y002461D01*
X041276D01*
X041363Y002478D01*
X041438Y002528D01*
X041584Y002674D01*
X041634Y002749D01*
X041651Y002837D01*
Y004021D01*
X041634Y004109D01*
X041584Y004183D01*
X037138Y00863D01*
X037064Y008679D01*
X036976Y008697D01*
X034339D01*
X031556Y01148D01*
X031575Y011526D01*
X032522D01*
Y011619D01*
X032567Y011641D01*
X032587Y011624D01*
X032691Y011569D01*
X032804Y011534D01*
X032922Y011523D01*
X03304Y011534D01*
X033153Y011569D01*
X033257Y011624D01*
X033348Y011699D01*
X033397Y011759D01*
X033447D01*
X033496Y011699D01*
X033587Y011624D01*
X033691Y011569D01*
X033804Y011534D01*
X033922Y011523D01*
X03404Y011534D01*
X034153Y011569D01*
X034257Y011624D01*
X034348Y011699D01*
X034397Y011759D01*
X034447D01*
X034496Y011699D01*
X034587Y011624D01*
X034691Y011569D01*
X034804Y011534D01*
X034922Y011523D01*
X03504Y011534D01*
X035153Y011569D01*
X035257Y011624D01*
X035348Y011699D01*
X035397Y011759D01*
X035447D01*
X035496Y011699D01*
X035587Y011624D01*
X035691Y011569D01*
X035804Y011534D01*
X035922Y011523D01*
X03604Y011534D01*
X036153Y011569D01*
X036257Y011624D01*
X036348Y011699D01*
X036397Y011759D01*
X036447D01*
X036496Y011699D01*
X036587Y011624D01*
X036691Y011569D01*
X036797Y011537D01*
Y012276D01*
Y013015D01*
X036691Y012983D01*
X036587Y012927D01*
X036496Y012852D01*
X036447Y012793D01*
X036397D01*
X036348Y012852D01*
X036257Y012927D01*
X036153Y012983D01*
X03604Y013017D01*
X035922Y013029D01*
X035804Y013017D01*
X035691Y012983D01*
X035587Y012927D01*
X035496Y012852D01*
X035447Y012793D01*
X035397D01*
X035348Y012852D01*
X035257Y012927D01*
X035153Y012983D01*
X03504Y013017D01*
X034922Y013029D01*
X034804Y013017D01*
X034691Y012983D01*
X034587Y012927D01*
X034496Y012852D01*
X034447Y012793D01*
X034397D01*
X034348Y012852D01*
X034257Y012927D01*
X034153Y012983D01*
X03404Y013017D01*
X033922Y013029D01*
X033804Y013017D01*
X033691Y012983D01*
X033587Y012927D01*
X033496Y012852D01*
X033447Y012793D01*
X033397D01*
X033348Y012852D01*
X033257Y012927D01*
X033153Y012983D01*
X03304Y013017D01*
X032922Y013029D01*
X032804Y013017D01*
X032691Y012983D01*
X032587Y012927D01*
X032567Y012911D01*
X032522Y012932D01*
Y013026D01*
X031322D01*
Y011779D01*
X031276Y01176D01*
X028188Y014847D01*
X028114Y014897D01*
X028026Y014914D01*
X026922D01*
X025536Y0163D01*
Y01657D01*
X024667D01*
Y0163D01*
X024637Y016271D01*
X024517D01*
X024496Y016321D01*
X024544Y016369D01*
X024548Y016378D01*
X02414D01*
X024143Y016369D01*
X024191Y016321D01*
X024171Y016271D01*
X023882D01*
X023789Y016363D01*
Y016689D01*
X023344D01*
Y01705D01*
X023391Y017082D01*
X023395Y017088D01*
X023464D01*
X023491Y017024D01*
X023554Y016941D01*
X023638Y016877D01*
X023735Y016837D01*
X023812Y016827D01*
Y017363D01*
X023937D01*
Y017488D01*
X024437D01*
Y017501D01*
X024424Y017605D01*
X024398Y017667D01*
X024431Y017717D01*
X025869D01*
X025988Y017598D01*
Y017438D01*
X026003Y017361D01*
X026047Y017295D01*
Y017219D01*
X025989Y017196D01*
X025906Y017132D01*
X025842Y017048D01*
X025802Y016951D01*
X025792Y016874D01*
X026328D01*
Y016749D01*
X026453D01*
Y016249D01*
X026466D01*
X02657Y016262D01*
X026661Y0163D01*
X026702Y016285D01*
X026711Y016281D01*
Y016274D01*
X027111D01*
Y016749D01*
X027361D01*
Y016274D01*
X027684D01*
Y016084D01*
X027341D01*
Y015018D01*
X028171D01*
Y016084D01*
X028143D01*
Y016868D01*
X028349D01*
Y017418D01*
X028153D01*
Y017567D01*
X028136Y017655D01*
X028086Y01773D01*
X026527Y019288D01*
X026453Y019338D01*
X026365Y019356D01*
X025726D01*
Y019948D01*
X023361D01*
Y018901D01*
X02482D01*
X024842Y018897D01*
X02627D01*
X027309Y017858D01*
X02729Y017811D01*
X026911D01*
Y017791D01*
X026589D01*
X026543Y017822D01*
X026466Y017837D01*
X026253D01*
X026069Y018021D01*
X026011Y01806D01*
X025943Y018074D01*
X020175D01*
X020175Y018074D01*
X020107Y01806D01*
X020049Y018021D01*
X019163Y017135D01*
X019124Y017077D01*
X019112Y017018D01*
X018671Y016577D01*
X018616Y016593D01*
X0186Y016652D01*
X018556Y016728D01*
X018493Y016791D01*
X018416Y016835D01*
X018331Y016858D01*
X018304D01*
X018283Y016908D01*
X020037Y018662D01*
X020037Y018662D01*
X020076Y01872D01*
X020089Y018788D01*
X020089Y018788D01*
Y019562D01*
X020117Y019579D01*
X02018Y019641D01*
X020224Y019718D01*
X020247Y019803D01*
Y019892D01*
X020224Y019977D01*
X02018Y020054D01*
X020117Y020117D01*
X020041Y020161D01*
X019955Y020184D01*
X019867D01*
X019781Y020161D01*
X019704Y020117D01*
X019642Y020054D01*
X019598Y019977D01*
X019575Y019892D01*
Y019803D01*
X019598Y019718D01*
X019642Y019641D01*
X019704Y019579D01*
X019732Y019562D01*
Y018862D01*
X017873Y017002D01*
X017704D01*
X017685Y017006D01*
X017134D01*
X017064Y016992D01*
X017005Y016953D01*
X016966Y016894D01*
X016952Y016824D01*
X016966Y016754D01*
X017005Y016696D01*
X016966Y016638D01*
X016952Y016568D01*
X016957Y01654D01*
X016916Y01649D01*
X016603D01*
X016553Y01654D01*
X016476Y016585D01*
X016404Y016604D01*
X016383Y016653D01*
X018002Y018273D01*
X018024Y01826D01*
X018109Y018237D01*
X018198D01*
X018283Y01826D01*
X01836Y018304D01*
X018423Y018367D01*
X018467Y018444D01*
X01849Y018529D01*
Y018618D01*
X018467Y018703D01*
X018423Y01878D01*
X01836Y018843D01*
X018283Y018887D01*
X018198Y01891D01*
X018109D01*
X018024Y018887D01*
X017947Y018843D01*
X017885Y01878D01*
X01784Y018703D01*
X017817Y018618D01*
Y018592D01*
X017244Y018019D01*
X017198Y018044D01*
X017186Y018137D01*
X017146Y018234D01*
X017082Y018317D01*
X017056Y018337D01*
Y018387D01*
X017082Y018407D01*
X017146Y018491D01*
X017186Y018588D01*
X0172Y018692D01*
Y018704D01*
X016699D01*
Y018829D01*
X016574D01*
Y019366D01*
X016497Y019355D01*
X0164Y019315D01*
X016317Y019251D01*
X016253Y019168D01*
X016243Y019144D01*
X016109D01*
X016109Y019144D01*
Y019144D01*
X016095Y019151D01*
X016088Y019154D01*
X016065Y019159D01*
X016065Y019159D01*
X016064Y019159D01*
X016011Y01917D01*
X015814D01*
X015736Y019154D01*
X015723Y019145D01*
X014747D01*
X014383Y019509D01*
Y019922D01*
X014769D01*
Y020307D01*
X015021D01*
X015108Y020325D01*
X015183Y020375D01*
X015508Y0207D01*
X015554Y020675D01*
X015539Y020597D01*
Y020476D01*
X015562Y020357D01*
X015609Y020245D01*
X015676Y020145D01*
X015762Y020059D01*
X015862Y019992D01*
X015974Y019945D01*
X016093Y019922D01*
X016214D01*
X016333Y019945D01*
X016445Y019992D01*
X016546Y020059D01*
X016622Y020135D01*
X016654Y020141D01*
X016685Y020135D01*
X016762Y020059D01*
X016862Y019992D01*
X016974Y019945D01*
X017093Y019922D01*
X017214D01*
X017333Y019945D01*
X017445Y019992D01*
X017546Y020059D01*
X017622Y020135D01*
X017654Y020141D01*
X017685Y020135D01*
X017762Y020059D01*
X017862Y019992D01*
X017974Y019945D01*
X018093Y019922D01*
X018214D01*
X018333Y019945D01*
X018445Y019992D01*
X018546Y020059D01*
X018622Y020135D01*
X018654Y020141D01*
X018685Y020135D01*
X018762Y020059D01*
X018862Y019992D01*
X018974Y019945D01*
X019029Y019935D01*
Y020537D01*
Y021139D01*
X018974Y021128D01*
X018862Y021082D01*
X018762Y021014D01*
X018685Y020938D01*
X018654Y020933D01*
X018622Y020938D01*
X018546Y021014D01*
X018445Y021082D01*
X018346Y021123D01*
Y021902D01*
X018364Y02193D01*
X01838Y022007D01*
Y022283D01*
X018364Y02236D01*
X01832Y022426D01*
X018255Y02247D01*
X018177Y022485D01*
X01798D01*
X017903Y02247D01*
X017837Y022426D01*
X017833Y022419D01*
X017537D01*
X017533Y022426D01*
X017467Y02247D01*
X01739Y022485D01*
X017193D01*
X017116Y02247D01*
X01705Y022426D01*
X017016Y022374D01*
X016629D01*
X016541Y022357D01*
X016467Y022307D01*
X014926Y020766D01*
X014769D01*
Y021152D01*
X014515D01*
Y021773D01*
X014675D01*
Y022115D01*
X014721Y022134D01*
X014759Y022096D01*
X014817Y022057D01*
X014865Y022048D01*
Y021971D01*
X01488Y021894D01*
X014924Y021828D01*
X01499Y021784D01*
X015067Y021769D01*
X015264D01*
X015341Y021784D01*
X015407Y021828D01*
X015451Y021894D01*
X015466Y021971D01*
Y022247D01*
X015451Y022324D01*
X015419Y022371D01*
X01543Y02243D01*
X015471Y022447D01*
X015554Y022511D01*
X015618Y022594D01*
X015658Y022691D01*
X015671Y022795D01*
Y022808D01*
X015171D01*
Y022933D01*
X015046D01*
Y023469D01*
X014969Y023459D01*
X014872Y023419D01*
X014789Y023355D01*
X014725Y023271D01*
X014698Y023207D01*
X01463D01*
X014625Y023214D01*
X01456Y023257D01*
X014482Y023273D01*
X014285D01*
X014208Y023257D01*
X014142Y023214D01*
X014098Y023148D01*
X014083Y023071D01*
Y022795D01*
X014098Y022718D01*
X014142Y022652D01*
X014208Y022608D01*
X014285Y022593D01*
X014482D01*
X01456Y022608D01*
X014575Y022618D01*
X014619Y022595D01*
Y022445D01*
X014081D01*
Y022338D01*
X013121D01*
X012976Y022484D01*
Y022598D01*
X01296Y022675D01*
X012917Y022741D01*
X012904Y022749D01*
Y023709D01*
X013388D01*
Y0249D01*
X012601D01*
X012489Y025012D01*
X012448Y02504D01*
X012463Y02509D01*
X018199D01*
Y024808D01*
X019029D01*
Y025049D01*
X019543D01*
X019562Y024999D01*
X018707Y024144D01*
X018457D01*
X01839Y024136D01*
X018327Y02411D01*
X018273Y024068D01*
X018232Y024015D01*
X018206Y023952D01*
X018197Y023885D01*
Y023333D01*
X018206Y023266D01*
X018232Y023204D01*
X018273Y02315D01*
X018327Y023109D01*
X01839Y023083D01*
X018457Y023074D01*
X018772D01*
X018839Y023083D01*
X018902Y023109D01*
X018955Y02315D01*
X018997Y023204D01*
X019023Y023266D01*
X019031Y023333D01*
Y02382D01*
X0198Y024589D01*
X019816Y024587D01*
X019848Y024534D01*
X01983Y024489D01*
X019822Y02443D01*
X020372D01*
Y024305D01*
X020497D01*
Y023721D01*
X020517Y023724D01*
X020652Y02378D01*
X020766Y023867D01*
X020783Y023864D01*
X020816Y023853D01*
Y023709D01*
X021036D01*
Y022874D01*
X020934D01*
X020924Y022898D01*
X02086Y022981D01*
X020777Y023045D01*
X02068Y023085D01*
X020603Y023095D01*
Y022559D01*
Y022023D01*
X02068Y022033D01*
X020777Y022073D01*
X02086Y022137D01*
X020924Y02222D01*
X020934Y022244D01*
X021068D01*
X021068Y022244D01*
Y022244D01*
X021082Y022238D01*
X021089Y022234D01*
X021112Y02223D01*
X021112Y02223D01*
X021114Y02223D01*
X021167Y022219D01*
X021242D01*
X022079Y021381D01*
Y021254D01*
X02209Y021199D01*
X022094Y021176D01*
X022104Y021155D01*
X022104Y021155D01*
Y021021D01*
X02208Y021011D01*
X021997Y020947D01*
X021933Y020864D01*
X021893Y020767D01*
X021883Y02069D01*
X022419D01*
X022955D01*
X022951Y02072D01*
X022995Y02077D01*
X023361D01*
Y020476D01*
X025726D01*
Y02077D01*
X02648D01*
X029711Y017538D01*
X029786Y017489D01*
X029873Y017471D01*
X035397D01*
X035485Y017489D01*
X035559Y017538D01*
X03569Y017669D01*
X035691Y017669D01*
X035804Y017634D01*
X035922Y017623D01*
X03604Y017634D01*
X036153Y017669D01*
X036257Y017724D01*
X036348Y017799D01*
X036397Y017859D01*
X036447D01*
X036496Y017799D01*
X036587Y017724D01*
X036691Y017669D01*
X036797Y017637D01*
Y018376D01*
X037047D01*
Y017637D01*
X037153Y017669D01*
X037257Y017724D01*
X037348Y017799D01*
X037397Y017859D01*
X037447D01*
X037496Y017799D01*
X037587Y017724D01*
X037691Y017669D01*
X037804Y017634D01*
X037922Y017623D01*
X03804Y017634D01*
X038153Y017669D01*
X038257Y017724D01*
X038348Y017799D01*
X038397Y017859D01*
X038447D01*
X038496Y017799D01*
X038587Y017724D01*
X038691Y017669D01*
X038804Y017634D01*
X038922Y017623D01*
X03904Y017634D01*
X039153Y017669D01*
X039257Y017724D01*
X039348Y017799D01*
X039423Y017891D01*
X039479Y017995D01*
X039513Y018108D01*
X039525Y018226D01*
Y018526D01*
X039513Y018643D01*
X039479Y018756D01*
X039423Y018861D01*
X039348Y018952D01*
X039275Y019012D01*
X039293Y019062D01*
X039536D01*
X040863Y017735D01*
Y017661D01*
X040878Y017583D01*
X040922Y017518D01*
X040928Y017513D01*
Y017217D01*
X040922Y017213D01*
X040878Y017148D01*
X040863Y01707D01*
Y016873D01*
X040878Y016796D01*
X040922Y01673D01*
X040973Y016696D01*
Y015701D01*
X040922Y015667D01*
X040878Y015601D01*
X040863Y015523D01*
Y015327D01*
X040874Y015272D01*
X040878Y015249D01*
X040888Y015228D01*
X040888Y015228D01*
Y014835D01*
X040888Y014835D01*
X040888D01*
X040881Y014821D01*
X040878Y014813D01*
X040874Y01479D01*
X040874Y01479D01*
X040873Y014789D01*
X040863Y014736D01*
Y014622D01*
X040579Y014339D01*
X04053Y014264D01*
X040512Y014176D01*
Y012749D01*
X04053Y012661D01*
X040579Y012587D01*
X040863Y012304D01*
Y012229D01*
X040878Y012151D01*
X040922Y012086D01*
X040973Y012051D01*
Y009686D01*
X040991Y009598D01*
X041041Y009523D01*
X043545Y007019D01*
X043522Y006971D01*
X043403Y006987D01*
X04293D01*
X04278Y006967D01*
X04264Y006909D01*
X04252Y006817D01*
X042427Y006697D01*
X042369Y006557D01*
X04235Y006407D01*
X042369Y006256D01*
X042427Y006116D01*
X04252Y005996D01*
X04264Y005904D01*
X04278Y005846D01*
X04293Y005826D01*
X043403D01*
X043553Y005846D01*
X043693Y005904D01*
X043813Y005996D01*
X043905Y006116D01*
X043963Y006256D01*
X043983Y006407D01*
X043967Y006526D01*
X044015Y006549D01*
X044911Y005653D01*
Y005235D01*
X044899D01*
X044748Y005215D01*
X044608Y005157D01*
X044488Y005065D01*
X044396Y004945D01*
X044373Y004888D01*
X044323D01*
X044299Y004945D01*
X044207Y005065D01*
X044087Y005157D01*
X043947Y005215D01*
X043796Y005235D01*
X043324D01*
X043174Y005215D01*
X043034Y005157D01*
X042913Y005065D01*
X042821Y004945D01*
X042763Y004805D01*
X042743Y004655D01*
X042763Y004504D01*
X042821Y004364D01*
X042913Y004244D01*
X043034Y004152D01*
X043174Y004094D01*
X043324Y004074D01*
X043796D01*
X043947Y004094D01*
X044087Y004152D01*
X044207Y004244D01*
X044299Y004364D01*
X044323Y004421D01*
X044373D01*
X044396Y004364D01*
X044488Y004244D01*
X044608Y004152D01*
X044748Y004094D01*
X044899Y004074D01*
X045371D01*
X045521Y004094D01*
X045661Y004152D01*
X045725Y004201D01*
X04579Y004152D01*
X04593Y004094D01*
X04608Y004074D01*
X046191D01*
Y004655D01*
Y005235D01*
X04608D01*
X04593Y005215D01*
X04579Y005157D01*
X045725Y005108D01*
X045661Y005157D01*
X045521Y005215D01*
X045371Y005235D01*
X04537D01*
Y005748D01*
X045352Y005836D01*
X045303Y00591D01*
X041432Y009781D01*
Y011237D01*
X041482Y011247D01*
X041493Y011222D01*
X041559Y011156D01*
X041568Y011152D01*
Y011356D01*
Y01156D01*
X041559Y011556D01*
X041493Y01149D01*
X041482Y011465D01*
X041432Y011475D01*
Y012051D01*
X041484Y012086D01*
X041528Y012151D01*
X041543Y012229D01*
Y012426D01*
X041528Y012503D01*
X041484Y012569D01*
Y012644D01*
X041542Y012668D01*
X041625Y012732D01*
X041659Y012777D01*
X041709D01*
X041743Y012732D01*
X041827Y012668D01*
X041891Y012642D01*
Y012573D01*
X041884Y012569D01*
X041841Y012503D01*
X041825Y012426D01*
Y012229D01*
X041841Y012151D01*
X041884Y012086D01*
X041936Y012051D01*
Y011512D01*
X04192Y011504D01*
X041886Y011497D01*
X041827Y011556D01*
X041818Y01156D01*
Y011356D01*
Y011152D01*
X041827Y011156D01*
X041886Y011215D01*
X04192Y011208D01*
X041936Y0112D01*
Y010621D01*
X041953Y010533D01*
X042003Y010459D01*
X044746Y007716D01*
Y00766D01*
X044769Y007574D01*
X044813Y007497D01*
X044876Y007435D01*
X044952Y007391D01*
X045038Y007368D01*
X045127D01*
X045212Y007391D01*
X045289Y007435D01*
X045351Y007497D01*
X045396Y007574D01*
X045418Y00766D01*
Y007748D01*
X045396Y007834D01*
X045351Y00791D01*
X045289Y007973D01*
X045212Y008017D01*
X045127Y00804D01*
X04507D01*
X042395Y010716D01*
Y012051D01*
X042446Y012086D01*
X04249Y012151D01*
X042505Y012229D01*
Y012304D01*
X042789Y012587D01*
X042839Y012661D01*
X042856Y012749D01*
Y014176D01*
X042839Y014264D01*
X042789Y014339D01*
X042505Y014622D01*
Y014736D01*
X042495Y01479D01*
X04249Y014813D01*
X04248Y014835D01*
X04248Y014835D01*
Y015228D01*
X04248Y015228D01*
X04248D01*
X042487Y015242D01*
X04249Y015249D01*
X042495Y015272D01*
X042495Y015272D01*
X042495Y015273D01*
X042505Y015327D01*
Y015523D01*
X04249Y015601D01*
X042446Y015667D01*
X042395Y015701D01*
Y016696D01*
X042446Y01673D01*
X04249Y016796D01*
X042505Y016873D01*
Y01707D01*
X04249Y017148D01*
X042446Y017213D01*
Y017518D01*
X04249Y017583D01*
X042505Y017661D01*
Y017858D01*
X04249Y017935D01*
X042446Y018001D01*
X042381Y018045D01*
X042303Y01806D01*
X042189D01*
X040536Y019713D01*
X040555Y019759D01*
X049474D01*
X049474Y000132D01*
X000132Y000132D01*
X000132Y007609D01*
X000132Y022963D01*
Y030577D01*
X043624Y030577D01*
D02*
G37*
G36*
X012864Y021947D02*
X012938Y021897D01*
X013026Y021879D01*
X014056D01*
Y021152D01*
X013539D01*
Y019922D01*
X013924D01*
Y019414D01*
X013942Y019326D01*
X013991Y019252D01*
X01449Y018753D01*
X014564Y018704D01*
X014652Y018686D01*
X015612D01*
X015627Y018614D01*
X015671Y018549D01*
X015683Y018541D01*
Y018184D01*
X015671Y018176D01*
X015627Y01811D01*
X015612Y018035D01*
X015611Y018033D01*
X01561Y018026D01*
X015605Y017987D01*
X015537Y017973D01*
X015479Y017934D01*
X015479Y017934D01*
X015436Y017891D01*
X015378Y017906D01*
X015289D01*
X015204Y017883D01*
X015127Y017839D01*
X015064Y017777D01*
X01502Y0177D01*
X014997Y017614D01*
Y017526D01*
X01502Y01744D01*
X015064Y017364D01*
X015127Y017301D01*
X015204Y017257D01*
X015289Y017234D01*
X015378D01*
X015463Y017257D01*
X01554Y017301D01*
X015603Y017364D01*
X015647Y01744D01*
X01567Y017526D01*
Y017555D01*
X01572Y017581D01*
X015736Y01757D01*
X015814Y017555D01*
X016011D01*
X016065Y017566D01*
X016088Y01757D01*
X016109Y01758D01*
X016109Y01758D01*
X016243D01*
X016253Y017556D01*
X016317Y017473D01*
X0164Y017409D01*
X016497Y017369D01*
X016527Y017365D01*
X016543Y017318D01*
X015615Y01639D01*
X015557Y016402D01*
X015534Y016445D01*
X01557Y016498D01*
X015584Y016568D01*
X01557Y016638D01*
X015531Y016696D01*
X01557Y016754D01*
X015584Y016824D01*
X01557Y016894D01*
X015531Y016953D01*
X015471Y016992D01*
X015402Y017006D01*
X014851D01*
X014831Y017002D01*
X011235D01*
X008226Y020011D01*
X008211Y020021D01*
X008226Y020071D01*
X008315D01*
X008335Y020052D01*
X008411Y020008D01*
X008497Y019985D01*
X008585D01*
X008671Y020008D01*
X008747Y020052D01*
X008787Y020092D01*
X010575D01*
X010663Y020109D01*
X010738Y020159D01*
X012695Y022116D01*
X012864Y021947D01*
D02*
G37*
G36*
X016014Y016213D02*
X016033Y016142D01*
X016077Y016065D01*
X01614Y016002D01*
X016217Y015958D01*
X016302Y015935D01*
X016391D01*
X016476Y015958D01*
X016553Y016002D01*
X016615Y016065D01*
X016655Y016134D01*
X016916D01*
X016957Y016084D01*
X016952Y016056D01*
X016966Y015986D01*
X017005Y015928D01*
X016966Y01587D01*
X016952Y0158D01*
X016966Y015731D01*
X017005Y015672D01*
X016966Y015614D01*
X016952Y015544D01*
X016966Y015475D01*
X017005Y015416D01*
X016966Y015358D01*
X016952Y015288D01*
X016957Y015261D01*
X016916Y015211D01*
X01683D01*
X016762Y015197D01*
X016704Y015159D01*
X016704Y015159D01*
X016203Y014658D01*
X016151Y014676D01*
X016111Y014745D01*
X016048Y014808D01*
X015972Y014852D01*
X015886Y014875D01*
X015798D01*
X015712Y014852D01*
X015635Y014808D01*
X01563Y014802D01*
X015576Y014819D01*
X01557Y014846D01*
X015535Y014899D01*
X015557Y014943D01*
X015593Y014958D01*
X015672Y015018D01*
X015692Y015044D01*
Y01533D01*
Y015533D01*
X015691Y015533D01*
X015672Y015559D01*
X015593Y015619D01*
X015557Y015634D01*
X015535Y015678D01*
X01557Y015731D01*
X015584Y0158D01*
X01557Y01587D01*
X015577Y015888D01*
X015603Y015893D01*
X015661Y015931D01*
X015965Y016235D01*
X016014Y016213D01*
D02*
G37*
G36*
X041825Y017775D02*
Y017661D01*
X041841Y017583D01*
X041884Y017518D01*
X041891Y017513D01*
Y017217D01*
X041884Y017213D01*
X041841Y017148D01*
X041825Y01707D01*
Y016873D01*
X041841Y016796D01*
X041884Y01673D01*
X041936Y016696D01*
Y015701D01*
X041885Y015667D01*
X041841Y015601D01*
X041825Y015523D01*
Y015327D01*
X041836Y015272D01*
X041841Y015249D01*
X04185Y015228D01*
X04185Y015228D01*
Y014835D01*
X04185Y014835D01*
X04185D01*
X041844Y014821D01*
X041841Y014813D01*
X041836Y01479D01*
X041836Y01479D01*
X041836Y014789D01*
X041825Y014736D01*
Y014539D01*
X041841Y014462D01*
X041885Y014396D01*
X04195Y014352D01*
X042028Y014337D01*
X042142D01*
X042397Y014081D01*
Y013641D01*
X04236Y013608D01*
X042303Y013615D01*
X04229D01*
Y013115D01*
X04204D01*
Y013615D01*
X042028D01*
X041924Y013601D01*
X041827Y013561D01*
X041743Y013497D01*
X041709Y013453D01*
X041659D01*
X041625Y013497D01*
X041542Y013561D01*
X041445Y013601D01*
X041341Y013615D01*
X041328D01*
Y013115D01*
X041078D01*
Y013615D01*
X041065D01*
X041009Y013608D01*
X040971Y013641D01*
Y014081D01*
X041227Y014337D01*
X041341D01*
X041418Y014352D01*
X041484Y014396D01*
X041528Y014462D01*
X041543Y014539D01*
Y014736D01*
X041532Y01479D01*
X041528Y014813D01*
X041518Y014835D01*
X041518Y014835D01*
Y015228D01*
X041518Y015228D01*
X041518D01*
X041524Y015242D01*
X041528Y015249D01*
X041532Y015272D01*
X041532Y015272D01*
X041532Y015273D01*
X041543Y015327D01*
Y015523D01*
X041528Y015601D01*
X041484Y015667D01*
X041432Y015701D01*
Y016696D01*
X041484Y01673D01*
X041528Y016796D01*
X041543Y016873D01*
Y01707D01*
X041528Y017148D01*
X041484Y017213D01*
Y017518D01*
X041528Y017583D01*
X041543Y017661D01*
Y017858D01*
X041528Y017935D01*
X041484Y018001D01*
X041418Y018045D01*
X041341Y01806D01*
X041187D01*
X039802Y019445D01*
X039814Y019495D01*
X040105D01*
X041825Y017775D01*
D02*
G37*
G36*
X013798Y015316D02*
X013742Y015301D01*
X013665Y015257D01*
X013603Y015194D01*
X013559Y015117D01*
X013536Y015032D01*
Y014943D01*
X013559Y014858D01*
X013603Y014781D01*
X013665Y014719D01*
X013742Y014674D01*
X013828Y014651D01*
X013916D01*
X014002Y014674D01*
X014069Y014713D01*
X014098Y014698D01*
X014112Y014683D01*
X014108Y014666D01*
Y014577D01*
X014131Y014492D01*
X014175Y014415D01*
X014238Y014352D01*
X014314Y014308D01*
X0144Y014285D01*
X014488D01*
X014574Y014308D01*
X014651Y014352D01*
X014693Y014395D01*
X014722Y014392D01*
X014781Y014352D01*
X014851Y014338D01*
X015402D01*
X015428Y014344D01*
X015566D01*
X015573Y014332D01*
X015635Y01427D01*
X015712Y014226D01*
X015771Y01421D01*
X015787Y014155D01*
X013348Y011716D01*
X013345D01*
X013345Y011716D01*
X013277Y011703D01*
X013219Y011664D01*
X013219Y011664D01*
X010456Y0089D01*
X01023D01*
X010185Y008891D01*
X010135Y008929D01*
Y011972D01*
X013529Y015366D01*
X013791D01*
X013798Y015316D01*
D02*
G37*
G36*
X011155Y007571D02*
X011221Y007527D01*
X011257Y007519D01*
Y007006D01*
X011271Y006938D01*
X01131Y00688D01*
X012142Y006048D01*
Y005901D01*
X012157Y005823D01*
X012201Y005758D01*
X012267Y005714D01*
X012344Y005699D01*
X01262D01*
X012689Y005712D01*
X012739Y005686D01*
Y005133D01*
X01232Y004714D01*
X01227Y004639D01*
X012253Y004552D01*
Y00448D01*
X012135D01*
X011952Y004297D01*
X011924Y004325D01*
X011811Y004401D01*
X011684Y004454D01*
X011607Y004469D01*
Y003787D01*
X011357D01*
Y004469D01*
X01128Y004454D01*
X011154Y004401D01*
X01104Y004325D01*
X010982Y004268D01*
X010924Y004325D01*
X010811Y004401D01*
X010684Y004454D01*
X01055Y00448D01*
X010547D01*
X009863Y005164D01*
Y005738D01*
X009913Y005748D01*
X009933Y0057D01*
X009997Y005617D01*
X01008Y005553D01*
X010177Y005513D01*
X010281Y005499D01*
X010294D01*
Y005999D01*
X010419D01*
Y006124D01*
X010955D01*
X010945Y006202D01*
X010905Y006299D01*
X010841Y006382D01*
X010758Y006446D01*
X010734Y006456D01*
Y00659D01*
X010734Y00659D01*
X010734D01*
X010741Y006604D01*
X010744Y006611D01*
X010748Y006634D01*
X010748Y006634D01*
X010749Y006635D01*
X010759Y006688D01*
Y006885D01*
X010744Y006963D01*
X0107Y007028D01*
X010634Y007072D01*
X010572Y007084D01*
Y007525D01*
X010583Y007527D01*
X010649Y007571D01*
X010691Y007634D01*
X011113D01*
X011155Y007571D01*
D02*
G37*
%LPC*%
G36*
X006345Y029186D02*
Y028729D01*
X006803D01*
X006793Y028777D01*
X006748Y028886D01*
X006683Y028983D01*
X0066Y029066D01*
X006502Y029131D01*
X006394Y029176D01*
X006345Y029186D01*
D02*
G37*
G36*
X006095Y029186D02*
X006047Y029176D01*
X005939Y029131D01*
X005841Y029066D01*
X005758Y028983D01*
X005693Y028886D01*
X005648Y028777D01*
X005638Y028729D01*
X006095D01*
Y029186D01*
D02*
G37*
G36*
Y028479D02*
X005638D01*
X005648Y02843D01*
X005693Y028322D01*
X005758Y028224D01*
X005841Y028141D01*
X005939Y028076D01*
X006047Y028031D01*
X006095Y028022D01*
Y028479D01*
D02*
G37*
G36*
X006803D02*
X006345D01*
Y028022D01*
X006394Y028031D01*
X006502Y028076D01*
X0066Y028141D01*
X006683Y028224D01*
X006748Y028322D01*
X006793Y02843D01*
X006803Y028479D01*
D02*
G37*
G36*
X01555Y028608D02*
X01506D01*
Y028D01*
X01555D01*
Y028608D01*
D02*
G37*
G36*
X01481D02*
X01432D01*
Y028D01*
X01481D01*
Y028608D01*
D02*
G37*
G36*
X036265Y028159D02*
X036114D01*
X035995Y028144D01*
X035884Y028098D01*
X035788Y028024D01*
X035715Y027929D01*
X035669Y027817D01*
X035653Y027698D01*
Y027666D01*
X036265D01*
Y028159D01*
D02*
G37*
G36*
X038196Y030103D02*
X036931D01*
X036833Y030083D01*
X03675Y030028D01*
X036485Y029763D01*
X035779D01*
Y028933D01*
X036845D01*
Y029402D01*
X037036Y029593D01*
X037404D01*
X037429Y029552D01*
X037429Y029543D01*
X037414Y029469D01*
Y029193D01*
X03743Y029116D01*
X037474Y02905D01*
X037539Y029006D01*
X037617Y028991D01*
X037655D01*
X038157Y028489D01*
Y027906D01*
X038142Y027898D01*
X038107Y027883D01*
X038067Y027888D01*
X038007Y027967D01*
X037923Y028031D01*
X037827Y028071D01*
X037749Y028081D01*
Y027545D01*
Y027009D01*
X037827Y027019D01*
X037923Y027059D01*
X038007Y027123D01*
X038067Y027201D01*
X038115Y027209D01*
Y027209D01*
X038115Y027209D01*
X038708D01*
Y027881D01*
X038666D01*
Y028595D01*
X038647Y028693D01*
X038592Y028775D01*
X038426Y028941D01*
X038447Y028991D01*
X038601D01*
X038678Y029006D01*
X038744Y02905D01*
X038761Y029076D01*
X0397D01*
X039737Y029046D01*
X039737Y029026D01*
Y028379D01*
X041321D01*
Y029031D01*
X041368Y029055D01*
X041737Y028685D01*
Y027462D01*
X043321D01*
Y029046D01*
X042098D01*
X041633Y029511D01*
X04155Y029566D01*
X041452Y029586D01*
X038761D01*
X038744Y029612D01*
X0387Y029641D01*
X038691Y029686D01*
X038636Y029769D01*
X038376Y030028D01*
X038294Y030083D01*
X038196Y030103D01*
D02*
G37*
G36*
X041321Y028129D02*
X040654D01*
Y027462D01*
X041321D01*
Y028129D01*
D02*
G37*
G36*
X040404D02*
X039737D01*
Y027462D01*
X040404D01*
Y028129D01*
D02*
G37*
G36*
X019428Y027755D02*
X018876D01*
Y027459D01*
X019027D01*
X019136Y027473D01*
X019238Y027515D01*
X019325Y027582D01*
X019392Y02767D01*
X019428Y027755D01*
D02*
G37*
G36*
X018626D02*
X018075D01*
X018111Y02767D01*
X018178Y027582D01*
X018265Y027515D01*
X018367Y027473D01*
X018476Y027459D01*
X018626D01*
Y027755D01*
D02*
G37*
G36*
X031028Y027907D02*
Y02745D01*
X031485D01*
X031475Y027499D01*
X03143Y027607D01*
X031365Y027705D01*
X031282Y027788D01*
X031185Y027853D01*
X031076Y027898D01*
X031028Y027907D01*
D02*
G37*
G36*
X030778D02*
X030729Y027898D01*
X030621Y027853D01*
X030523Y027788D01*
X03044Y027705D01*
X030375Y027607D01*
X03033Y027499D01*
X030321Y02745D01*
X030778D01*
Y027907D01*
D02*
G37*
G36*
X016922Y02775D02*
X016511D01*
Y027375D01*
X016524D01*
X016628Y027388D01*
X016725Y027429D01*
X016808Y027492D01*
X016872Y027576D01*
X016912Y027673D01*
X016922Y02775D01*
D02*
G37*
G36*
X016261D02*
X01585D01*
X01586Y027673D01*
X0159Y027576D01*
X015964Y027492D01*
X016047Y027429D01*
X016144Y027388D01*
X016248Y027375D01*
X016261D01*
Y02775D01*
D02*
G37*
G36*
X01555D02*
X01506D01*
Y027142D01*
X01555D01*
Y02775D01*
D02*
G37*
G36*
X01481D02*
X01432D01*
Y027142D01*
X01481D01*
Y02775D01*
D02*
G37*
G36*
X036666Y028159D02*
X036515D01*
Y027541D01*
Y026922D01*
X036666D01*
X036785Y026937D01*
X036896Y026983D01*
X036992Y027057D01*
X037065Y027152D01*
X037106Y02725D01*
X037151Y027255D01*
X037158Y027253D01*
X037178Y027206D01*
X037242Y027123D01*
X037325Y027059D01*
X037422Y027019D01*
X037499Y027009D01*
Y027545D01*
Y028081D01*
X037422Y028071D01*
X037325Y028031D01*
X037242Y027967D01*
X037178Y027884D01*
X037157Y027835D01*
X037104Y027836D01*
X037065Y027929D01*
X036992Y028024D01*
X036896Y028098D01*
X036785Y028144D01*
X036666Y028159D01*
D02*
G37*
G36*
X028525Y027333D02*
X028114D01*
Y026957D01*
X028127D01*
X028231Y026971D01*
X028328Y027011D01*
X028411Y027075D01*
X028475Y027158D01*
X028515Y027255D01*
X028525Y027333D01*
D02*
G37*
G36*
X027864D02*
X027453D01*
X027463Y027255D01*
X027503Y027158D01*
X027567Y027075D01*
X02765Y027011D01*
X027747Y026971D01*
X027851Y026957D01*
X027864D01*
Y027333D01*
D02*
G37*
G36*
X00216Y030373D02*
X001935D01*
X001711Y030343D01*
X001494Y030285D01*
X001286Y030199D01*
X001091Y030086D01*
X000913Y029949D01*
X000753Y02979D01*
X000616Y029612D01*
X000504Y029417D01*
X000418Y029209D01*
X000359Y028991D01*
X00033Y028768D01*
Y028543D01*
X000359Y02832D01*
X000418Y028102D01*
X000504Y027894D01*
X000616Y027699D01*
X000753Y027521D01*
X000913Y027361D01*
X001091Y027224D01*
X001286Y027112D01*
X001494Y027026D01*
X001711Y026967D01*
X001935Y026938D01*
X00216D01*
X002383Y026967D01*
X0026Y027026D01*
X002808Y027112D01*
X003003Y027224D01*
X003182Y027361D01*
X003341Y027521D01*
X003478Y027699D01*
X003591Y027894D01*
X003677Y028102D01*
X003735Y02832D01*
X003765Y028543D01*
Y028768D01*
X003735Y028991D01*
X003677Y029209D01*
X003591Y029417D01*
X003478Y029612D01*
X003341Y02979D01*
X003182Y029949D01*
X003003Y030086D01*
X002808Y030199D01*
X0026Y030285D01*
X002383Y030343D01*
X00216Y030373D01*
D02*
G37*
G36*
X01506Y027006D02*
Y026927D01*
X015139D01*
X015135Y026936D01*
X015069Y027002D01*
X01506Y027006D01*
D02*
G37*
G36*
X01481D02*
X014801Y027002D01*
X014735Y026936D01*
X014731Y026927D01*
X01481D01*
Y027006D01*
D02*
G37*
G36*
X036265Y027415D02*
X035653D01*
Y027383D01*
X035669Y027264D01*
X035715Y027152D01*
X035788Y027057D01*
X035884Y026983D01*
X035995Y026937D01*
X036114Y026922D01*
X036265D01*
Y027415D01*
D02*
G37*
G36*
X030778Y0272D02*
X030321D01*
X03033Y027152D01*
X030375Y027043D01*
X03044Y026946D01*
X030523Y026863D01*
X030621Y026798D01*
X030729Y026753D01*
X030778Y026743D01*
Y0272D01*
D02*
G37*
G36*
X031485D02*
X031028D01*
Y026743D01*
X031076Y026753D01*
X031185Y026798D01*
X031282Y026863D01*
X031365Y026946D01*
X03143Y027043D01*
X031475Y027152D01*
X031485Y0272D01*
D02*
G37*
G36*
X015139Y026677D02*
X01506D01*
Y026598D01*
X015069Y026602D01*
X015135Y026668D01*
X015139Y026677D01*
D02*
G37*
G36*
X01481D02*
X014731D01*
X014735Y026668D01*
X014801Y026602D01*
X01481Y026598D01*
Y026677D01*
D02*
G37*
G36*
X005505Y026875D02*
X005427Y026865D01*
X005331Y026824D01*
X005247Y026761D01*
X005183Y026677D01*
X005143Y02658D01*
X00513Y026476D01*
Y026464D01*
X005505D01*
Y026875D01*
D02*
G37*
G36*
Y026214D02*
X00513D01*
Y026201D01*
X005143Y026097D01*
X005183Y026D01*
X005247Y025917D01*
X005331Y025853D01*
X005427Y025813D01*
X005505Y025802D01*
Y026214D01*
D02*
G37*
G36*
X029564Y025455D02*
X029551D01*
Y025079D01*
X029962D01*
X029952Y025157D01*
X029912Y025254D01*
X029848Y025337D01*
X029765Y025401D01*
X029668Y025441D01*
X029564Y025455D01*
D02*
G37*
G36*
X029301D02*
X029288D01*
X029184Y025441D01*
X029088Y025401D01*
X029004Y025337D01*
X02894Y025254D01*
X0289Y025157D01*
X02889Y025079D01*
X029301D01*
Y025455D01*
D02*
G37*
G36*
X026863Y024888D02*
X026843Y024886D01*
X026708Y02483D01*
X026592Y024741D01*
X026503Y024624D01*
X026447Y024489D01*
X026439Y02443D01*
X026863D01*
Y024888D01*
D02*
G37*
G36*
X030628Y025831D02*
X03054D01*
X030454Y025809D01*
X030377Y025764D01*
X030315Y025702D01*
X030271Y025625D01*
X030248Y025539D01*
Y025451D01*
X030271Y025365D01*
X03031Y025296D01*
X030299Y025243D01*
X030276Y025239D01*
X030211Y025195D01*
X030167Y025129D01*
X030152Y025052D01*
Y024855D01*
X030167Y024777D01*
X030211Y024712D01*
X030217Y024708D01*
Y024639D01*
X030153Y024612D01*
X03007Y024548D01*
X030006Y024465D01*
X029966Y024368D01*
X029956Y024291D01*
X030492D01*
X031028D01*
X031018Y024368D01*
X030977Y024465D01*
X030914Y024548D01*
X03083Y024612D01*
X030773Y024636D01*
Y024712D01*
X030781Y024724D01*
X031391D01*
X031418Y024696D01*
X031421Y02468D01*
X031389Y024641D01*
X031226D01*
Y024291D01*
X031751D01*
Y024166D01*
X031876D01*
Y023691D01*
X032276D01*
Y024285D01*
X032863D01*
X032863Y024285D01*
X032913Y024287D01*
X032984Y024246D01*
X03307Y024223D01*
X033158D01*
X033244Y024246D01*
X03332Y024291D01*
X033383Y024353D01*
X033427Y02443D01*
X03345Y024515D01*
Y024604D01*
X033427Y024689D01*
X033383Y024766D01*
X03332Y024829D01*
X033244Y024873D01*
X033158Y024896D01*
X03307D01*
X032984Y024873D01*
X032913Y024832D01*
X032863Y024835D01*
X032863Y024835D01*
X032863Y024835D01*
X032213D01*
Y024641D01*
X032106D01*
X032076Y024678D01*
X032076Y024691D01*
Y025228D01*
X031426D01*
Y025183D01*
X030815D01*
X030802Y025206D01*
X030797Y025231D01*
X0308Y025236D01*
X030853Y025289D01*
X030897Y025365D01*
X03092Y025451D01*
Y025539D01*
X030897Y025625D01*
X030853Y025702D01*
X03079Y025764D01*
X030714Y025809D01*
X030628Y025831D01*
D02*
G37*
G36*
X015294Y023992D02*
Y023913D01*
X015373D01*
X01537Y023922D01*
X015303Y023988D01*
X015294Y023992D01*
D02*
G37*
G36*
X015044D02*
X015036Y023988D01*
X014969Y023922D01*
X014965Y023913D01*
X015044D01*
Y023992D01*
D02*
G37*
G36*
X020247Y02418D02*
X019822D01*
X01983Y02412D01*
X019886Y023985D01*
X019975Y023869D01*
X020091Y02378D01*
X020226Y023724D01*
X020247Y023721D01*
Y02418D01*
D02*
G37*
G36*
X011708D02*
X011283D01*
X011291Y02412D01*
X011347Y023985D01*
X011436Y023869D01*
X011552Y02378D01*
X011687Y023724D01*
X011708Y023721D01*
Y02418D01*
D02*
G37*
G36*
X031626Y024041D02*
X031226D01*
Y023691D01*
X031626D01*
Y024041D01*
D02*
G37*
G36*
X031028Y024041D02*
X030617D01*
Y023666D01*
X030629D01*
X030733Y023679D01*
X03083Y023719D01*
X030914Y023783D01*
X030977Y023867D01*
X031018Y023963D01*
X031028Y024041D01*
D02*
G37*
G36*
X030367D02*
X029956D01*
X029966Y023963D01*
X030006Y023867D01*
X03007Y023783D01*
X030153Y023719D01*
X03025Y023679D01*
X030354Y023666D01*
X030367D01*
Y024041D01*
D02*
G37*
G36*
X015373Y023663D02*
X015294D01*
Y023584D01*
X015303Y023588D01*
X01537Y023654D01*
X015373Y023663D01*
D02*
G37*
G36*
X015044D02*
X014965D01*
X014969Y023654D01*
X015036Y023588D01*
X015044Y023584D01*
Y023663D01*
D02*
G37*
G36*
X015296Y023469D02*
Y023058D01*
X015671D01*
Y023071D01*
X015658Y023175D01*
X015618Y023271D01*
X015554Y023355D01*
X015471Y023419D01*
X015374Y023459D01*
X015296Y023469D01*
D02*
G37*
G36*
X030151Y023174D02*
X029543D01*
Y022684D01*
X030151D01*
Y023174D01*
D02*
G37*
G36*
X020353Y023095D02*
X020275Y023085D01*
X020178Y023045D01*
X020095Y022981D01*
X020031Y022898D01*
X019991Y022801D01*
X019978Y022697D01*
Y022684D01*
X020353D01*
Y023095D01*
D02*
G37*
G36*
X011763Y022996D02*
X011685Y022986D01*
X011588Y022946D01*
X011505Y022882D01*
X011441Y022799D01*
X011401Y022702D01*
X011387Y022598D01*
Y022585D01*
X011763D01*
Y022996D01*
D02*
G37*
G36*
X020353Y022434D02*
X019978D01*
Y022421D01*
X019991Y022317D01*
X020031Y02222D01*
X020095Y022137D01*
X020178Y022073D01*
X020275Y022033D01*
X020353Y022023D01*
Y022434D01*
D02*
G37*
G36*
X030422Y021604D02*
X030225D01*
X030148Y021589D01*
X030082Y021545D01*
X029778D01*
X029712Y021589D01*
X029635Y021604D01*
X029438D01*
X02936Y021589D01*
X029295Y021545D01*
X029251Y021479D01*
X029243Y021437D01*
X029164D01*
X029151Y02146D01*
X029088Y021523D01*
X029011Y021567D01*
X028926Y02159D01*
X028837D01*
X028752Y021567D01*
X028675Y021523D01*
X028612Y02146D01*
X028568Y021384D01*
X028545Y021298D01*
Y021209D01*
X028568Y021124D01*
X028612Y021047D01*
X028675Y020985D01*
X028752Y02094D01*
X028837Y020918D01*
X028926D01*
X029011Y02094D01*
X029088Y020985D01*
X029151Y021047D01*
X02917Y02108D01*
X029245D01*
X029251Y021049D01*
X029295Y020983D01*
X02936Y020939D01*
X029438Y020924D01*
X029635D01*
X029712Y020939D01*
X029778Y020983D01*
X029782Y02099D01*
X030078D01*
X030082Y020983D01*
X030148Y020939D01*
X030225Y020924D01*
X030422D01*
X0305Y020939D01*
X030565Y020983D01*
X030609Y021049D01*
X030616Y021086D01*
X030686D01*
X030702Y021058D01*
X030764Y020995D01*
X030841Y020951D01*
X030927Y020928D01*
X031015D01*
X031101Y020951D01*
X031177Y020995D01*
X03124Y021058D01*
X031284Y021134D01*
X031307Y02122D01*
Y021308D01*
X031284Y021394D01*
X03124Y02147D01*
X031177Y021533D01*
X031101Y021577D01*
X031015Y0216D01*
X030927D01*
X030841Y021577D01*
X030764Y021533D01*
X030702Y02147D01*
X030686Y021442D01*
X030616D01*
X030609Y021479D01*
X030565Y021545D01*
X0305Y021589D01*
X030422Y021604D01*
D02*
G37*
G36*
X019279Y021139D02*
Y020662D01*
X019756D01*
X019745Y020716D01*
X019699Y020828D01*
X019631Y020929D01*
X019546Y021014D01*
X019445Y021082D01*
X019333Y021128D01*
X019279Y021139D01*
D02*
G37*
G36*
X022955Y02044D02*
X022544D01*
Y020064D01*
X022557D01*
X022661Y020078D01*
X022758Y020118D01*
X022841Y020182D01*
X022905Y020265D01*
X022945Y020362D01*
X022955Y02044D01*
D02*
G37*
G36*
X022294D02*
X021883D01*
X021893Y020362D01*
X021933Y020265D01*
X021997Y020182D01*
X02208Y020118D01*
X022177Y020078D01*
X022281Y020064D01*
X022294D01*
Y02044D01*
D02*
G37*
G36*
X019756Y020412D02*
X019279D01*
Y019935D01*
X019333Y019945D01*
X019445Y019992D01*
X019546Y020059D01*
X019631Y020145D01*
X019699Y020245D01*
X019745Y020357D01*
X019756Y020412D01*
D02*
G37*
G36*
X016824Y019366D02*
Y018954D01*
X0172D01*
Y018967D01*
X017186Y019071D01*
X017146Y019168D01*
X017082Y019251D01*
X016999Y019315D01*
X016902Y019355D01*
X016824Y019366D01*
D02*
G37*
G36*
X045282Y018186D02*
X045085D01*
X045008Y018171D01*
X044942Y018127D01*
X044938Y018121D01*
X044642D01*
X044638Y018127D01*
X044572Y018171D01*
X044494Y018186D01*
X044298D01*
X04422Y018171D01*
X044155Y018127D01*
X044111Y018061D01*
X044103Y018023D01*
X043974D01*
X043906Y01801D01*
X043848Y017971D01*
X043809Y017913D01*
X043806Y017898D01*
X043731Y017823D01*
X04369D01*
X043604Y0178D01*
X043528Y017756D01*
X043465Y017693D01*
X043421Y017616D01*
X043398Y017531D01*
Y017442D01*
X043421Y017357D01*
X043465Y01728D01*
X043516Y017229D01*
X043526Y017207D01*
X043518Y017165D01*
X043474Y017121D01*
X04343Y017044D01*
X043407Y016958D01*
Y01687D01*
X04343Y016784D01*
X043474Y016708D01*
X043536Y016645D01*
X043613Y016601D01*
X043699Y016578D01*
X043787D01*
X043873Y016601D01*
X043949Y016645D01*
X044012Y016708D01*
X044046Y016767D01*
X04411D01*
X044111Y016761D01*
X044155Y016695D01*
X04422Y016651D01*
X044298Y016636D01*
X044494D01*
X044572Y016651D01*
X044637Y016695D01*
X044942D01*
X045008Y016651D01*
X045026Y016648D01*
Y016519D01*
X045043Y016431D01*
X045093Y016357D01*
X046023Y015427D01*
X045982Y015328D01*
X045955Y015194D01*
Y015057D01*
X045982Y014923D01*
X046023Y014824D01*
X04507Y013871D01*
X04502Y013797D01*
X045002Y013709D01*
Y012142D01*
X04499Y012134D01*
X044986Y012128D01*
X04469D01*
X044686Y012134D01*
X04462Y012178D01*
X044543Y012193D01*
X044346D01*
X044269Y012178D01*
X044203Y012134D01*
X044159Y012068D01*
X044152Y012032D01*
X044087D01*
X044071Y01206D01*
X044008Y012122D01*
X043932Y012166D01*
X043846Y012189D01*
X043758D01*
X043672Y012166D01*
X043596Y012122D01*
X043533Y01206D01*
X043489Y011983D01*
X043466Y011897D01*
Y011809D01*
X043489Y011723D01*
X043533Y011647D01*
X043596Y011584D01*
X043672Y01154D01*
X043758Y011517D01*
X043846D01*
X043932Y01154D01*
X044008Y011584D01*
X044071Y011647D01*
X044087Y011675D01*
X044152D01*
X044159Y011638D01*
X044203Y011572D01*
X044269Y011528D01*
X044346Y011513D01*
X044543D01*
X04462Y011528D01*
X044686Y011572D01*
X04499D01*
X045002Y011564D01*
Y01133D01*
X04499Y011322D01*
X044986Y011316D01*
X04469D01*
X044686Y011322D01*
X04462Y011366D01*
X044543Y011381D01*
X044346D01*
X044269Y011366D01*
X044203Y011322D01*
X044159Y011256D01*
X044151Y011218D01*
X044086D01*
X044071Y011244D01*
X044008Y011307D01*
X043932Y011351D01*
X043846Y011374D01*
X043758D01*
X043672Y011351D01*
X043596Y011307D01*
X043533Y011244D01*
X043489Y011168D01*
X043466Y011082D01*
Y010994D01*
X043489Y010908D01*
X043533Y010831D01*
X043596Y010769D01*
X043672Y010725D01*
X043758Y010702D01*
X043846D01*
X043932Y010725D01*
X044008Y010769D01*
X044071Y010831D01*
X044088Y010861D01*
X044152D01*
X044159Y010826D01*
X044203Y01076D01*
X044269Y010716D01*
X044346Y010701D01*
X044543D01*
X04462Y010716D01*
X044686Y01076D01*
X04499D01*
X045056Y010716D01*
X045074Y010713D01*
Y010598D01*
X045092Y01051D01*
X045141Y010436D01*
X046071Y009506D01*
X04603Y009407D01*
X046003Y009273D01*
Y009136D01*
X04603Y009002D01*
X046082Y008876D01*
X046158Y008762D01*
X046216Y008705D01*
X046158Y008647D01*
X046082Y008533D01*
X04603Y008407D01*
X046014Y00833D01*
X047379D01*
X047364Y008407D01*
X047312Y008533D01*
X047236Y008647D01*
X047178Y008705D01*
X047236Y008762D01*
X047312Y008876D01*
X047364Y009002D01*
X047391Y009136D01*
Y009273D01*
X047364Y009407D01*
X047312Y009533D01*
X047236Y009647D01*
X047178Y009705D01*
X047236Y009762D01*
X047312Y009876D01*
X047364Y010002D01*
X047391Y010136D01*
Y010273D01*
X047364Y010407D01*
X047312Y010533D01*
X047236Y010647D01*
X047208Y010675D01*
X047391Y010858D01*
Y011552D01*
X047044Y011898D01*
X04635D01*
X046003Y011552D01*
Y010858D01*
X046186Y010675D01*
X046158Y010647D01*
X046082Y010533D01*
X04603Y010407D01*
X046007Y01029D01*
X045957Y010269D01*
X045533Y010693D01*
Y010969D01*
X045532Y010972D01*
Y011179D01*
X045517Y011256D01*
X045473Y011322D01*
X045461Y01133D01*
Y011564D01*
X045473Y011572D01*
X045517Y011638D01*
X045532Y011715D01*
Y011991D01*
X045517Y012068D01*
X045473Y012134D01*
X045461Y012142D01*
Y013614D01*
X045909Y014061D01*
X045958Y01404D01*
X045982Y013923D01*
X046034Y013797D01*
X04611Y013684D01*
X046206Y013587D01*
X04632Y013511D01*
X046446Y013459D01*
X046524Y013443D01*
Y014126D01*
X046649D01*
Y014251D01*
X047331D01*
X047316Y014328D01*
X047263Y014454D01*
X047187Y014568D01*
X04713Y014626D01*
X047187Y014684D01*
X047263Y014797D01*
X047316Y014923D01*
X047342Y015057D01*
Y015194D01*
X047316Y015328D01*
X047263Y015454D01*
X047187Y015568D01*
X04713Y015626D01*
X047187Y015684D01*
X047263Y015797D01*
X047316Y015923D01*
X047342Y016057D01*
Y016194D01*
X047316Y016328D01*
X047263Y016454D01*
X047187Y016568D01*
X047159Y016596D01*
X047342Y016779D01*
Y017473D01*
X046995Y017819D01*
X046302D01*
X045955Y017473D01*
Y016779D01*
X046138Y016596D01*
X04611Y016568D01*
X046034Y016454D01*
X045982Y016328D01*
X045958Y016211D01*
X045909Y01619D01*
X045485Y016614D01*
Y016904D01*
X045484Y016907D01*
Y017114D01*
X045469Y017191D01*
X045425Y017257D01*
X045413Y017265D01*
Y017557D01*
X045425Y017565D01*
X045469Y017631D01*
X045484Y017708D01*
Y017984D01*
X045469Y018061D01*
X045425Y018127D01*
X045359Y018171D01*
X045282Y018186D01*
D02*
G37*
G36*
X024437Y017238D02*
X024062D01*
Y016827D01*
X024139Y016837D01*
X024236Y016877D01*
X02432Y016941D01*
X024383Y017024D01*
X024424Y017121D01*
X024437Y017225D01*
Y017238D01*
D02*
G37*
G36*
X024469Y016707D02*
Y016628D01*
X024548D01*
X024544Y016637D01*
X024478Y016703D01*
X024469Y016707D01*
D02*
G37*
G36*
X024219D02*
X02421Y016703D01*
X024143Y016637D01*
X02414Y016628D01*
X024219D01*
Y016707D01*
D02*
G37*
G36*
X026203Y016624D02*
X025792D01*
X025802Y016547D01*
X025842Y01645D01*
X025906Y016366D01*
X025989Y016303D01*
X026086Y016262D01*
X02619Y016249D01*
X026203D01*
Y016624D01*
D02*
G37*
G36*
X024033Y014631D02*
Y014219D01*
X024408D01*
Y014232D01*
X024395Y014336D01*
X024355Y014433D01*
X024291Y014516D01*
X024208Y01458D01*
X024111Y01462D01*
X024033Y014631D01*
D02*
G37*
G36*
X024408Y013969D02*
X024033D01*
Y013558D01*
X024111Y013569D01*
X024208Y013609D01*
X024291Y013673D01*
X024355Y013756D01*
X024395Y013853D01*
X024408Y013957D01*
Y013969D01*
D02*
G37*
G36*
X047331Y014001D02*
X046774D01*
Y013443D01*
X046851Y013459D01*
X046977Y013511D01*
X047091Y013587D01*
X047187Y013684D01*
X047263Y013797D01*
X047316Y013923D01*
X047331Y014001D01*
D02*
G37*
G36*
X038922Y013029D02*
X038804Y013017D01*
X038691Y012983D01*
X038587Y012927D01*
X038496Y012852D01*
X038447Y012793D01*
X038397D01*
X038348Y012852D01*
X038257Y012927D01*
X038153Y012983D01*
X03804Y013017D01*
X037922Y013029D01*
X037804Y013017D01*
X037691Y012983D01*
X037587Y012927D01*
X037496Y012852D01*
X037447Y012793D01*
X037397D01*
X037348Y012852D01*
X037257Y012927D01*
X037153Y012983D01*
X037047Y013015D01*
Y012276D01*
Y011537D01*
X037153Y011569D01*
X037257Y011624D01*
X037348Y011699D01*
X037397Y011759D01*
X037447D01*
X037496Y011699D01*
X037587Y011624D01*
X037691Y011569D01*
X037804Y011534D01*
X037922Y011523D01*
X03804Y011534D01*
X038153Y011569D01*
X038257Y011624D01*
X038348Y011699D01*
X038397Y011759D01*
X038447D01*
X038496Y011699D01*
X038587Y011624D01*
X038691Y011569D01*
X038804Y011534D01*
X038922Y011523D01*
X03904Y011534D01*
X039153Y011569D01*
X039257Y011624D01*
X039348Y011699D01*
X039423Y011791D01*
X039479Y011895D01*
X039513Y012008D01*
X039525Y012126D01*
Y012426D01*
X039513Y012543D01*
X039479Y012656D01*
X039423Y012761D01*
X039348Y012852D01*
X039257Y012927D01*
X039153Y012983D01*
X03904Y013017D01*
X038922Y013029D01*
D02*
G37*
G36*
X027624Y011368D02*
X027213D01*
X027223Y011291D01*
X027264Y011194D01*
X027328Y011111D01*
X027411Y011047D01*
X027508Y011007D01*
X027612Y010993D01*
X027624D01*
Y011368D01*
D02*
G37*
G36*
X038572Y008473D02*
Y008394D01*
X038651D01*
X038647Y008403D01*
X03858Y008469D01*
X038572Y008473D01*
D02*
G37*
G36*
X038322D02*
X038313Y008469D01*
X038246Y008403D01*
X038243Y008394D01*
X038322D01*
Y008473D01*
D02*
G37*
G36*
X038651Y008144D02*
X038572D01*
Y008065D01*
X03858Y008069D01*
X038647Y008135D01*
X038651Y008144D01*
D02*
G37*
G36*
X038322D02*
X038243D01*
X038246Y008135D01*
X038313Y008069D01*
X038322Y008065D01*
Y008144D01*
D02*
G37*
G36*
X022174Y00798D02*
X022085D01*
X022Y007957D01*
X021923Y007913D01*
X02186Y007851D01*
X021844Y007823D01*
X019025D01*
X019009Y007851D01*
X018947Y007913D01*
X01887Y007957D01*
X018784Y00798D01*
X018696D01*
X01861Y007957D01*
X018534Y007913D01*
X018471Y007851D01*
X018427Y007774D01*
X018404Y007688D01*
Y0076D01*
X018427Y007514D01*
X018471Y007438D01*
X018534Y007375D01*
X01861Y007331D01*
X018696Y007308D01*
X018784D01*
X01887Y007331D01*
X018947Y007375D01*
X019009Y007438D01*
X019025Y007466D01*
X021844D01*
X02186Y007438D01*
X021923Y007375D01*
X022Y007331D01*
X022085Y007308D01*
X022174D01*
X022259Y007331D01*
X022336Y007375D01*
X022399Y007438D01*
X022443Y007514D01*
X022466Y0076D01*
Y007688D01*
X022443Y007774D01*
X022399Y007851D01*
X022336Y007913D01*
X022259Y007957D01*
X022174Y00798D01*
D02*
G37*
G36*
X047379Y00808D02*
X046822D01*
Y007522D01*
X046899Y007538D01*
X047025Y00759D01*
X047139Y007666D01*
X047236Y007762D01*
X047312Y007876D01*
X047364Y008002D01*
X047379Y00808D01*
D02*
G37*
G36*
X046572D02*
X046014D01*
X04603Y008002D01*
X046082Y007876D01*
X046158Y007762D01*
X046255Y007666D01*
X046368Y00759D01*
X046495Y007538D01*
X046572Y007522D01*
Y00808D01*
D02*
G37*
G36*
X030593Y007182D02*
Y007103D01*
X030672D01*
X030669Y007112D01*
X030602Y007178D01*
X030593Y007182D01*
D02*
G37*
G36*
X030343D02*
X030335Y007178D01*
X030268Y007112D01*
X030264Y007103D01*
X030343D01*
Y007182D01*
D02*
G37*
G36*
X030672Y006853D02*
X030593D01*
Y006774D01*
X030602Y006778D01*
X030669Y006844D01*
X030672Y006853D01*
D02*
G37*
G36*
X030343D02*
X030264D01*
X030268Y006844D01*
X030335Y006778D01*
X030343Y006774D01*
Y006853D01*
D02*
G37*
G36*
X046552Y005235D02*
X046441D01*
Y00478D01*
X047116D01*
X047113Y004805D01*
X047055Y004945D01*
X046963Y005065D01*
X046843Y005157D01*
X046702Y005215D01*
X046552Y005235D01*
D02*
G37*
G36*
X017277Y005067D02*
X017244D01*
X017124Y005055D01*
X017008Y00502D01*
X016901Y004963D01*
X016807Y004886D01*
X01673Y004792D01*
X016673Y004685D01*
X016639Y004574D01*
X017277D01*
Y005067D01*
D02*
G37*
G36*
X015039D02*
X015007D01*
Y004574D01*
X015644D01*
X01561Y004685D01*
X015553Y004792D01*
X015476Y004886D01*
X015383Y004963D01*
X015276Y00502D01*
X01516Y005055D01*
X015039Y005067D01*
D02*
G37*
G36*
X014757D02*
X014724D01*
X014604Y005055D01*
X014488Y00502D01*
X014381Y004963D01*
X014287Y004886D01*
X014211Y004792D01*
X014154Y004685D01*
X01412Y004574D01*
X014757D01*
Y005067D01*
D02*
G37*
G36*
X034818Y005182D02*
X034151D01*
Y004515D01*
X034818D01*
Y005182D01*
D02*
G37*
G36*
X033901D02*
X033234D01*
Y004515D01*
X033901D01*
Y005182D01*
D02*
G37*
G36*
X021824D02*
X021156D01*
Y004515D01*
X021824D01*
Y005182D01*
D02*
G37*
G36*
X020907D02*
X020239D01*
Y004515D01*
X020907D01*
Y005182D01*
D02*
G37*
G36*
X047116Y00453D02*
X046441D01*
Y004074D01*
X046552D01*
X046702Y004094D01*
X046843Y004152D01*
X046963Y004244D01*
X047055Y004364D01*
X047113Y004504D01*
X047116Y00453D01*
D02*
G37*
G36*
X020907Y004265D02*
X020239D01*
Y003598D01*
X020907D01*
Y004265D01*
D02*
G37*
G36*
X027244Y003256D02*
X027212D01*
Y002763D01*
X027849D01*
X027815Y002874D01*
X027758Y002981D01*
X027681Y003075D01*
X027587Y003152D01*
X027481Y003209D01*
X027365Y003244D01*
X027244Y003256D01*
D02*
G37*
G36*
X026962D02*
X026929D01*
X026809Y003244D01*
X026693Y003209D01*
X026586Y003152D01*
X026492Y003075D01*
X026415Y002981D01*
X026358Y002874D01*
X026324Y002763D01*
X026962D01*
Y003256D01*
D02*
G37*
G36*
X029764D02*
X029731D01*
Y002763D01*
X030368D01*
X030335Y002874D01*
X030278Y002981D01*
X030201Y003075D01*
X030107Y003152D01*
X03Y003209D01*
X029884Y003244D01*
X029764Y003256D01*
D02*
G37*
G36*
X029481D02*
X029449D01*
X029328Y003244D01*
X029212Y003209D01*
X029106Y003152D01*
X029012Y003075D01*
X028935Y002981D01*
X028878Y002874D01*
X028844Y002763D01*
X029481D01*
Y003256D01*
D02*
G37*
G36*
X030368Y002513D02*
X029731D01*
Y00202D01*
X029764D01*
X029884Y002032D01*
X03Y002067D01*
X030107Y002124D01*
X030201Y002201D01*
X030278Y002294D01*
X030335Y002401D01*
X030368Y002513D01*
D02*
G37*
G36*
X029481D02*
X028844D01*
X028878Y002401D01*
X028935Y002294D01*
X029012Y002201D01*
X029106Y002124D01*
X029212Y002067D01*
X029328Y002032D01*
X029449Y00202D01*
X029481D01*
Y002513D01*
D02*
G37*
G36*
X027849Y002513D02*
X027212D01*
Y00202D01*
X027244D01*
X027365Y002032D01*
X027481Y002067D01*
X027587Y002124D01*
X027681Y002201D01*
X027758Y002294D01*
X027815Y002401D01*
X027849Y002513D01*
D02*
G37*
G36*
X026962D02*
X026324D01*
X026358Y002401D01*
X026415Y002294D01*
X026492Y002201D01*
X026586Y002124D01*
X026693Y002067D01*
X026809Y002032D01*
X026929Y00202D01*
X026962D01*
Y002513D01*
D02*
G37*
G36*
X047672Y003765D02*
X047446D01*
X047223Y003735D01*
X047006Y003677D01*
X046798Y003591D01*
X046603Y003478D01*
X046424Y003341D01*
X046265Y003182D01*
X046128Y003003D01*
X046016Y002808D01*
X045929Y0026D01*
X045871Y002383D01*
X045842Y00216D01*
Y001935D01*
X045871Y001711D01*
X045929Y001494D01*
X046016Y001286D01*
X046128Y001091D01*
X046265Y000913D01*
X046424Y000753D01*
X046603Y000616D01*
X046798Y000504D01*
X047006Y000418D01*
X047223Y000359D01*
X047446Y00033D01*
X047672D01*
X047895Y000359D01*
X048112Y000418D01*
X04832Y000504D01*
X048515Y000616D01*
X048694Y000753D01*
X048853Y000913D01*
X04899Y001091D01*
X049103Y001286D01*
X049189Y001494D01*
X049247Y001711D01*
X049276Y001935D01*
Y00216D01*
X049247Y002383D01*
X049189Y0026D01*
X049103Y002808D01*
X04899Y003003D01*
X048853Y003182D01*
X048694Y003341D01*
X048515Y003478D01*
X04832Y003591D01*
X048112Y003677D01*
X047895Y003735D01*
X047672Y003765D01*
D02*
G37*
G36*
X00216D02*
X001935D01*
X001711Y003735D01*
X001494Y003677D01*
X001286Y003591D01*
X001091Y003478D01*
X000913Y003341D01*
X000753Y003182D01*
X000616Y003003D01*
X000504Y002808D01*
X000418Y0026D01*
X000359Y002383D01*
X00033Y00216D01*
Y001935D01*
X000359Y001711D01*
X000418Y001494D01*
X000504Y001286D01*
X000616Y001091D01*
X000753Y000913D01*
X000913Y000753D01*
X001091Y000616D01*
X001286Y000504D01*
X001494Y000418D01*
X001711Y000359D01*
X001935Y00033D01*
X00216D01*
X002383Y000359D01*
X0026Y000418D01*
X002808Y000504D01*
X003003Y000616D01*
X003182Y000753D01*
X003341Y000913D01*
X003478Y001091D01*
X003591Y001286D01*
X003677Y001494D01*
X003735Y001711D01*
X003765Y001935D01*
Y00216D01*
X003735Y002383D01*
X003677Y0026D01*
X003591Y002808D01*
X003478Y003003D01*
X003341Y003182D01*
X003182Y003341D01*
X003003Y003478D01*
X002808Y003591D01*
X0026Y003677D01*
X002383Y003735D01*
X00216Y003765D01*
D02*
G37*
G36*
X011872Y019414D02*
Y019335D01*
X011951D01*
X011947Y019344D01*
X011881Y019411D01*
X011872Y019414D01*
D02*
G37*
G36*
X011622D02*
X011613Y019411D01*
X011547Y019344D01*
X011543Y019335D01*
X011622D01*
Y019414D01*
D02*
G37*
G36*
X011951Y019085D02*
X011872D01*
Y019006D01*
X011881Y01901D01*
X011947Y019076D01*
X011951Y019085D01*
D02*
G37*
G36*
X011622D02*
X011543D01*
X011547Y019076D01*
X011613Y01901D01*
X011622Y019006D01*
Y019085D01*
D02*
G37*
G36*
X015942Y015533D02*
Y015454D01*
X01602D01*
X016017Y015463D01*
X01595Y01553D01*
X015942Y015533D01*
D02*
G37*
G36*
X01602Y015204D02*
X015942D01*
Y015126D01*
X01595Y015129D01*
X016017Y015196D01*
X01602Y015204D01*
D02*
G37*
G36*
X012124Y012069D02*
Y01199D01*
X012203D01*
X012199Y011999D01*
X012133Y012065D01*
X012124Y012069D01*
D02*
G37*
G36*
X011874D02*
X011865Y012065D01*
X011799Y011999D01*
X011795Y01199D01*
X011874D01*
Y012069D01*
D02*
G37*
G36*
X012203Y01174D02*
X012124D01*
Y011661D01*
X012133Y011665D01*
X012199Y011731D01*
X012203Y01174D01*
D02*
G37*
G36*
X011874D02*
X011795D01*
X011799Y011731D01*
X011865Y011665D01*
X011874Y011661D01*
Y01174D01*
D02*
G37*
G36*
X010955Y005874D02*
X010544D01*
Y005499D01*
X010557D01*
X010661Y005513D01*
X010758Y005553D01*
X010841Y005617D01*
X010905Y0057D01*
X010945Y005797D01*
X010955Y005874D01*
D02*
G37*
%LPD*%
D14*
X015535Y016058D02*
X017989Y018512D01*
X01638Y016271D02*
X016421Y016312D01*
X01741D01*
X015126Y016056D02*
X015128Y016058D01*
X016346Y016271D02*
X01638D01*
X015128Y016058D02*
X015535D01*
X018092Y018512D02*
X018154Y018574D01*
X017989Y018512D02*
X018092D01*
X015825Y014522D02*
X015842Y014539D01*
X015126Y014521D02*
X015128Y014522D01*
X015825D01*
X016253Y014369D02*
Y014455D01*
X013422Y011538D02*
X016253Y014369D01*
X014668Y014775D02*
X015125D01*
X015126Y014777D01*
X015825Y017808D02*
X015912Y017895D01*
X014514Y014621D02*
X014668Y014775D01*
X014444Y014621D02*
X014514D01*
X015334Y01757D02*
X015367D01*
X015605Y017808D01*
X015825D01*
X016253Y014455D02*
X01683Y015033D01*
X013345Y011538D02*
X013422D01*
X019289Y016942D02*
Y017009D01*
X018242Y016567D02*
X018287Y016522D01*
X01741Y016056D02*
X018403D01*
X019289Y016942D01*
Y017009D02*
X020175Y017895D01*
X015126Y015288D02*
X015741D01*
X015783Y01533D02*
X015817D01*
X015741Y015288D02*
X015783Y01533D01*
X020175Y017895D02*
X025943D01*
X01741Y016568D02*
X017411Y016567D01*
X018242D01*
X019461Y016105D02*
X019486D01*
X01741Y0158D02*
X017411Y015802D01*
X019845Y015725D02*
X019914D01*
X018654Y014777D02*
X01872Y014843D01*
X01741Y015544D02*
X019665D01*
X019158Y015802D02*
X019461Y016105D01*
X01741Y014777D02*
X018654D01*
X020453Y015288D02*
X020499Y015335D01*
X01741Y015288D02*
X020453D01*
X017411Y015802D02*
X019158D01*
X01872Y014843D02*
X018808D01*
X019665Y015544D02*
X019845Y015725D01*
X011467Y016312D02*
X015126D01*
X009957Y012046D02*
X013455Y015544D01*
X013128Y0158D02*
X015126D01*
X013917Y015033D02*
X015126D01*
X014843Y015546D02*
X014844Y015546D01*
X007167Y009839D02*
X013128Y0158D01*
X013455Y015544D02*
X014843D01*
X013872Y014988D02*
X013917Y015033D01*
X008961Y013807D02*
X011467Y016312D01*
X007006Y009704D02*
X007032D01*
X007167Y009839D02*
Y009839D01*
X007032Y009704D02*
X007167Y009839D01*
X020269Y017407D02*
X020311Y017364D01*
X021341D01*
X021342Y017363D01*
X043734Y017574D02*
X043974Y017814D01*
X043743Y016914D02*
X043774Y016945D01*
X044365D01*
X043734Y017487D02*
Y017574D01*
X043974Y017814D02*
Y017845D01*
X044365Y016945D02*
X044396Y016976D01*
X018234Y014521D02*
X018389Y014365D01*
X018476D01*
X01741Y014521D02*
X018234D01*
X022298Y014143D02*
X022322Y014119D01*
X023096D01*
X023121Y014094D01*
X010407Y0086D02*
X013345Y011538D01*
X010368Y0086D02*
X010407D01*
X005359Y013059D02*
X006097D01*
X006936Y012208D02*
X006948D01*
X006097Y013059D02*
X006802Y012354D01*
Y012343D02*
X006936Y012208D01*
X006802Y012343D02*
Y012354D01*
X006963Y012208D02*
X006963Y012208D01*
X006688Y010201D02*
X006979Y010492D01*
X005351Y010201D02*
X006688D01*
X007013Y004353D02*
X007025Y004365D01*
X007777D01*
X007007D02*
X00701Y004362D01*
X006068Y005303D02*
X007007Y004365D01*
X00698D02*
X007007D01*
X005261Y005303D02*
X006068D01*
X005898Y009051D02*
X006822Y008127D01*
X005392Y009051D02*
X005898D01*
X006822Y008127D02*
X006956Y007992D01*
X006822Y008127D02*
Y008127D01*
X006956Y007992D02*
X006983D01*
X031026Y003701D02*
X035337D01*
X030354D02*
X031026D01*
X035337D02*
X036026Y00439D01*
X014797Y02231D02*
X014885Y022222D01*
X015052D01*
X014797Y02231D02*
Y022777D01*
X015052Y022222D02*
X015165Y022109D01*
X014382Y022925D02*
X014442Y022865D01*
X01471D02*
X014797Y022777D01*
X014442Y022865D02*
X01471D01*
X007854Y02493D02*
X008852Y023932D01*
Y023125D02*
X010356Y021621D01*
X008852Y023125D02*
Y023932D01*
X006642Y019546D02*
X006984D01*
X00543Y020429D02*
X005758D01*
X005302Y020558D02*
X00543Y020429D01*
X005758D02*
X006642Y019546D01*
X006984D02*
X00701Y01952D01*
X005882Y016802D02*
X006594Y016089D01*
X006909D01*
X005265Y016802D02*
X005882D01*
X006909Y016089D02*
X006948Y01605D01*
X005201Y013217D02*
X005359Y013059D01*
X005296Y009147D02*
X005392Y009051D01*
X003328Y005303D02*
X005261D01*
X006999Y023508D02*
Y023534D01*
X007119Y023388D02*
X007919D01*
X005343Y024064D02*
X006469D01*
X006999Y023508D02*
X007119Y023388D01*
X006469Y024064D02*
X006999Y023534D01*
X006986Y019517D02*
X007845D01*
X005326Y021534D02*
X006634D01*
X007013Y021912D01*
X006314Y017802D02*
X006948Y018436D01*
X005265Y017802D02*
X006314D01*
X006486Y014117D02*
X006963Y014594D01*
X005301Y014117D02*
X006486D01*
X006979Y010492D02*
X007006D01*
X006657Y006303D02*
X007007Y006652D01*
X003275Y006303D02*
X006657D01*
X007747Y024776D02*
Y024862D01*
X007145Y024175D02*
X007172D01*
X007292Y024322D02*
X007747Y024776D01*
X007292Y024295D02*
Y024322D01*
X007172Y024175D02*
X007292Y024295D01*
X007747Y024862D02*
X007854Y024969D01*
X006994Y009693D02*
X007006Y009704D01*
X007007Y005865D02*
X007033D01*
X007153Y005985D01*
X009957Y008815D02*
Y012046D01*
X007153Y005985D02*
Y006012D01*
X009957Y008815D01*
X009685Y00509D02*
Y00659D01*
X009882Y006787D01*
X009685Y00509D02*
X010458Y004317D01*
X009882Y006787D02*
X010419D01*
X002939Y024164D02*
X005243D01*
X006971Y025064D02*
X007067Y024969D01*
X005343Y025064D02*
X006971D01*
X030013Y010709D02*
X030101Y010621D01*
Y008874D02*
Y010621D01*
X027944Y008786D02*
X030013D01*
X029501Y010709D02*
X030013D01*
Y008786D02*
X030101Y008874D01*
X03056Y025021D02*
Y025471D01*
X030492Y024953D02*
X03056Y025021D01*
Y025471D02*
X030584Y025495D01*
X010356Y021621D02*
X010537D01*
X007854Y02493D02*
Y024969D01*
X010537Y021621D02*
X010561Y021597D01*
X01741Y016824D02*
X017947D01*
X019911Y018788D02*
Y019848D01*
X017947Y016824D02*
X019911Y018788D01*
X014844Y015546D02*
X015125D01*
X015126Y015544D01*
X01874Y007644D02*
X02213D01*
X023121Y01361D02*
X027944Y008786D01*
X043974Y017845D02*
X044394D01*
X043804Y011039D02*
X044443D01*
X043802Y011038D02*
X043804Y011039D01*
X044443D02*
X044444Y011041D01*
X043802Y011853D02*
X044444D01*
X044394Y017845D02*
X044396Y017846D01*
X028887Y021259D02*
X029531D01*
X028881Y021254D02*
X028887Y021259D01*
X029531D02*
X029536Y021264D01*
X023121Y01361D02*
Y014094D01*
X025943Y017895D02*
X026301Y017536D01*
X026328D01*
X017651Y002953D02*
X018386Y003688D01*
X017402Y002638D02*
X017429D01*
X018386Y003688D02*
X018425D01*
X017651Y002859D02*
Y002953D01*
X017429Y002638D02*
X017651Y002859D01*
X029917Y004138D02*
X030354Y003701D01*
X029634Y004449D02*
X029917Y004166D01*
Y004138D02*
Y004166D01*
X029606Y004449D02*
X029634D01*
X027087D02*
X029606D01*
X01683Y015033D02*
X01741D01*
X011436Y0086D02*
X012482D01*
X011436Y0086D02*
X011436Y0086D01*
X012482D02*
X012482Y0086D01*
X011436Y007006D02*
X012443Y005999D01*
X011436Y007006D02*
Y007812D01*
X012443Y005999D02*
X012482D01*
X010368Y007812D02*
X011436D01*
X010393Y006812D02*
Y007786D01*
Y006812D02*
X010419Y006787D01*
X010368Y007812D02*
X010393Y007786D01*
X010458Y003811D02*
Y004317D01*
Y003811D02*
X010482Y003787D01*
X007007Y005152D02*
Y005865D01*
X007007Y005152D02*
X007007Y005152D01*
X006983Y007992D02*
X007816D01*
X005127Y009316D02*
X005327Y009115D01*
X005296Y010147D02*
X005351Y010201D01*
X005159Y010147D02*
X005296D01*
X00499Y010316D02*
X005159Y010147D01*
X002917Y010316D02*
X00499D01*
X002917Y009316D02*
X005127D01*
X007816Y007992D02*
X007816Y007992D01*
X006994Y008791D02*
Y009693D01*
X006983Y00878D02*
X006994Y008791D01*
X002939Y016885D02*
X005182D01*
X002921Y005484D02*
X003087Y005318D01*
X003313D02*
X003328Y005303D01*
X003087Y005318D02*
X003313D01*
X003094Y006484D02*
X003275Y006303D01*
X002921Y006484D02*
X003094D01*
X006963Y013807D02*
X008961D01*
X002939Y013217D02*
X005201D01*
X006963Y012208D02*
X007824D01*
X007824Y012208D01*
X002989Y014167D02*
X005251D01*
X002939Y014217D02*
X002989Y014167D01*
X005251D02*
X005301Y014117D01*
X006963Y012996D02*
Y013807D01*
X006963Y012996D02*
X006963Y012996D01*
Y013807D02*
X006963Y013807D01*
X007529Y01642D02*
X00753Y016422D01*
X006988Y016837D02*
X007405Y01642D01*
X011103Y016422D02*
X011249Y016568D01*
X00753Y016422D02*
X011103D01*
X011249Y016568D02*
X015126D01*
X007405Y01642D02*
X007529D01*
X00298Y017843D02*
X005223D01*
X002939Y017885D02*
X00298Y017843D01*
X005223D02*
X005265Y017802D01*
X006948Y01605D02*
X007781D01*
X007781Y01605D01*
X006948Y016837D02*
Y017648D01*
X006948Y016837D02*
X006948Y016837D01*
Y017648D02*
X006948Y017648D01*
X002989Y025114D02*
X005293D01*
X002939Y025164D02*
X002989Y025114D01*
X005293D02*
X005343Y025064D01*
X007845Y019517D02*
X007849Y019513D01*
X002939Y020558D02*
X005302D01*
X002951Y021546D02*
X005314D01*
X002939Y021558D02*
X002951Y021546D01*
X005314D02*
X005326Y021534D01*
X007011Y020309D02*
Y021123D01*
X00701Y020307D02*
X007011Y020309D01*
Y021123D02*
X007013Y021125D01*
X00701Y020307D02*
X007049D01*
X007471Y019885D01*
X0081D01*
X011161Y016824D01*
X015126D01*
X030324Y021264D02*
X030971D01*
D17*
X019154Y020537D02*
D03*
X017154D02*
D03*
X016154D02*
D03*
X018154Y020537D02*
D03*
D35*
X025197Y025267D02*
D03*
X018614Y025341D02*
D03*
X027756Y015551D02*
D03*
X010157Y025348D02*
D03*
X014935Y027875D02*
D03*
D36*
X025197Y023535D02*
D03*
X018614Y023609D02*
D03*
X027756Y013819D02*
D03*
X010157Y023616D02*
D03*
X014935Y029607D02*
D03*
D37*
X012872Y028707D02*
D03*
X009872D02*
D03*
D39*
X007919Y024175D02*
D03*
Y023388D02*
D03*
X028612Y011493D02*
D03*
Y012281D02*
D03*
X029501Y012281D02*
D03*
Y011493D02*
D03*
X012482Y005999D02*
D03*
Y006787D02*
D03*
X029501Y010709D02*
D03*
Y009921D02*
D03*
X010419Y005999D02*
D03*
Y006787D02*
D03*
X012482Y0086D02*
D03*
X011436Y0086D02*
D03*
Y007812D02*
D03*
X010368Y0086D02*
D03*
Y007812D02*
D03*
X031026Y004488D02*
D03*
Y003701D02*
D03*
X018425Y004476D02*
D03*
Y003688D02*
D03*
X042165Y012327D02*
D03*
Y013115D02*
D03*
X041203Y012327D02*
D03*
Y013115D02*
D03*
X042165Y014638D02*
D03*
Y015425D02*
D03*
X041203Y014638D02*
D03*
Y015425D02*
D03*
X042165Y016972D02*
D03*
Y017759D02*
D03*
X041203Y016972D02*
D03*
Y017759D02*
D03*
X027749Y011493D02*
D03*
Y012281D02*
D03*
X007006Y009704D02*
D03*
Y010492D02*
D03*
X007816Y007992D02*
D03*
Y00878D02*
D03*
X006983Y00878D02*
D03*
Y007992D02*
D03*
X007007Y005865D02*
D03*
Y006652D02*
D03*
X007007Y005152D02*
D03*
Y004365D02*
D03*
X007777D02*
D03*
Y005152D02*
D03*
X006963Y014594D02*
D03*
Y013807D02*
D03*
X00701Y020307D02*
D03*
Y01952D02*
D03*
X007849Y019513D02*
D03*
Y020301D02*
D03*
X007781Y01605D02*
D03*
Y016837D02*
D03*
X006948Y016837D02*
D03*
Y01605D02*
D03*
X007145Y024175D02*
D03*
Y023388D02*
D03*
X006948Y018436D02*
D03*
Y017648D02*
D03*
X007013Y021912D02*
D03*
Y021125D02*
D03*
X007824Y012208D02*
D03*
Y012996D02*
D03*
X006963Y012996D02*
D03*
Y012208D02*
D03*
X027989Y027458D02*
D03*
Y028245D02*
D03*
X016386Y028662D02*
D03*
Y027875D02*
D03*
X022419Y020565D02*
D03*
Y021352D02*
D03*
X026328Y017536D02*
D03*
Y016749D02*
D03*
X029426Y024167D02*
D03*
Y024954D02*
D03*
X030492Y024166D02*
D03*
Y024953D02*
D03*
D41*
X024977Y027724D02*
D03*
X025764D02*
D03*
X006417Y026339D02*
D03*
X00563D02*
D03*
X037624Y027545D02*
D03*
X045232Y011041D02*
D03*
X044444D02*
D03*
X045232Y011853D02*
D03*
X044444D02*
D03*
X045183Y017846D02*
D03*
X044396D02*
D03*
X045183Y016976D02*
D03*
X044396D02*
D03*
X034782Y022613D02*
D03*
X033994D02*
D03*
X034725Y024773D02*
D03*
X038502Y029331D02*
D03*
X037715D02*
D03*
X007067Y024969D02*
D03*
X007854D02*
D03*
X025786Y02694D02*
D03*
X024999D02*
D03*
X017292Y022145D02*
D03*
X018079D02*
D03*
X023121Y014094D02*
D03*
X023908D02*
D03*
X015165Y022109D02*
D03*
X021342Y017363D02*
D03*
X02213D02*
D03*
X015912Y018829D02*
D03*
X016699D02*
D03*
X015912Y017895D02*
D03*
X016699D02*
D03*
X023937Y017363D02*
D03*
X02315D02*
D03*
X012675Y02246D02*
D03*
X011888D02*
D03*
X021265Y022559D02*
D03*
X020478D02*
D03*
X014384Y022933D02*
D03*
X015171D02*
D03*
X030324Y021264D02*
D03*
X029536D02*
D03*
D42*
X038412Y027545D02*
D03*
X033938Y024773D02*
D03*
X014378Y022109D02*
D03*
D43*
X012482Y007812D02*
D03*
D44*
X035237Y023589D02*
D03*
X033938D02*
D03*
D45*
X031751Y024953D02*
D03*
Y024166D02*
D03*
X032538Y02456D02*
D03*
X028024Y017143D02*
D03*
X027236Y016749D02*
D03*
Y017536D02*
D03*
D46*
X03639Y027541D02*
D03*
X03458Y029348D02*
D03*
X03115Y022559D02*
D03*
D47*
X034658Y027541D02*
D03*
X036312Y029348D02*
D03*
X029418Y022559D02*
D03*
D48*
X02334Y028897D02*
D03*
X025624D02*
D03*
D49*
X020956Y02788D02*
D03*
Y02838D02*
D03*
Y02888D02*
D03*
Y02938D02*
D03*
X018751Y02788D02*
D03*
Y02838D02*
D03*
Y02888D02*
D03*
Y02938D02*
D03*
D50*
X024544Y019424D02*
D03*
Y020999D02*
D03*
D51*
X015126Y016824D02*
D03*
Y016568D02*
D03*
Y016312D02*
D03*
Y016056D02*
D03*
Y0158D02*
D03*
Y015544D02*
D03*
Y015288D02*
D03*
Y015033D02*
D03*
Y014777D02*
D03*
Y014521D02*
D03*
X01741Y016824D02*
D03*
Y016568D02*
D03*
Y016312D02*
D03*
Y016056D02*
D03*
Y0158D02*
D03*
Y015544D02*
D03*
Y015288D02*
D03*
Y015033D02*
D03*
Y014777D02*
D03*
Y014521D02*
D03*
D52*
X023514Y016364D02*
D03*
X023908Y015576D02*
D03*
X023121D02*
D03*
D53*
X025101Y016273D02*
D03*
Y014973D02*
D03*
D92*
X036922Y012276D02*
Y018376D01*
Y009794D02*
Y012276D01*
X046322Y004583D02*
Y005442D01*
X023908Y014055D02*
X024366D01*
X045141Y004591D02*
Y005748D01*
X035198Y024213D02*
X035217Y024193D01*
Y023645D02*
X035237Y023625D01*
X035217Y023645D02*
Y024193D01*
X042165Y010621D02*
X045082Y007704D01*
X042165Y010621D02*
Y012327D01*
X023787Y016042D02*
X024732D01*
X023514Y016314D02*
X023787Y016042D01*
X024963Y016273D02*
X025239D01*
X024732Y016042D02*
X024963Y016273D01*
X023514Y016314D02*
Y016364D01*
X036922Y009794D02*
X038447Y008269D01*
X034528Y019724D02*
X0402D01*
X042126Y017759D02*
X042165D01*
X042054Y017831D02*
X042126Y017759D01*
X0402Y019724D02*
X042054Y01787D01*
Y017831D02*
Y01787D01*
X034238Y025395D02*
X038186D01*
X03842Y02516D02*
X038646D01*
X038186Y025395D02*
X03842Y02516D01*
X033985Y025142D02*
X034238Y025395D01*
X035385Y021223D02*
X038638D01*
X035026Y021582D02*
X035385Y021223D01*
X04608D02*
X046182Y021121D01*
X037648Y023221D02*
X037677Y023191D01*
X046103D02*
X046113Y023201D01*
X039964Y00269D02*
X041276D01*
X036976Y008467D02*
X041422Y004021D01*
Y002837D02*
Y004021D01*
X041276Y00269D02*
X041422Y002837D01*
X039528Y003126D02*
X039964Y00269D01*
X039528Y003126D02*
Y003819D01*
X034002Y022606D02*
X035026Y021582D01*
X034066Y022725D02*
X034812Y02347D01*
X035237Y023542D02*
Y023589D01*
X034812Y02347D02*
X035165D01*
X035237Y023542D01*
X033994Y022613D02*
X034066Y022685D01*
Y022725D01*
X023908Y014094D02*
Y015576D01*
Y014055D02*
Y014094D01*
X030468Y006978D02*
X033057Y00439D01*
X034026D01*
X029071Y009921D02*
X029501D01*
X028612Y01038D02*
Y011493D01*
Y01038D02*
X029071Y009921D01*
X024366Y014055D02*
X026928Y011493D01*
X027749D01*
X018425Y004476D02*
X018465D01*
X018386D02*
X018425D01*
X008541Y020321D02*
X010575D01*
X008534D02*
X008541D01*
X008546Y020333D02*
X008549Y020329D01*
X008546Y020344D02*
X008552Y02035D01*
Y023582D01*
X008546Y020333D02*
Y020344D01*
X007849Y020301D02*
X008514D01*
X00803Y024103D02*
X008552Y023582D01*
X008514Y020301D02*
X008534Y020321D01*
X010575D02*
X012675Y022421D01*
X041725Y013115D02*
X042165D01*
X041693Y013083D02*
X041725Y013115D01*
X041203D02*
X041693D01*
Y011356D02*
Y013083D01*
X046322Y005442D02*
X046697Y005817D01*
Y008205D01*
X00851Y016837D02*
X008543Y01687D01*
X007781Y016837D02*
X00851D01*
X008543Y01687D02*
X00855D01*
X012675Y022421D02*
Y02246D01*
X007827Y012993D02*
X008537D01*
X007824Y012996D02*
X007827Y012993D01*
X008537D02*
X00854Y01299D01*
X034244Y008467D02*
X036976D01*
X027749Y011493D02*
X028612D01*
X041203Y009686D02*
X045141Y005748D01*
X041203Y009686D02*
Y012327D01*
X018314Y004404D02*
X018386Y004476D01*
X017776Y003787D02*
X018314Y004325D01*
X012482Y003787D02*
X017776D01*
X018314Y004325D02*
Y004404D01*
X01954Y005551D02*
X031026D01*
X018465Y004476D02*
X01954Y005551D01*
X012482Y004552D02*
X012968Y005038D01*
Y006574D01*
X012482Y003787D02*
Y004552D01*
X042165Y014638D02*
X042627Y014176D01*
Y012749D02*
Y014176D01*
X040742Y014176D02*
X041203Y014638D01*
X040742Y012749D02*
Y014176D01*
Y012749D02*
X041164Y012327D01*
X012822Y006721D02*
X012968Y006574D01*
X012482Y006787D02*
X012548Y006721D01*
X012822D01*
X012675Y02246D02*
Y024108D01*
X023114Y017328D02*
X02315Y017363D01*
X023114Y015583D02*
Y017328D01*
X007919Y024175D02*
X007991Y024103D01*
X00803D01*
X008541Y005152D02*
X008541Y005152D01*
X007777Y005152D02*
X008541D01*
X007816Y00878D02*
X008541D01*
X007816Y00878D02*
X007816Y00878D01*
X008541D02*
X008541Y00878D01*
X029454Y00921D02*
Y009874D01*
X029501Y009921D01*
X029449Y009205D02*
X029454Y00921D01*
X031026Y004488D02*
Y005551D01*
X041164Y012327D02*
X041203D01*
X035397Y017701D02*
X035922Y018226D01*
Y018376D01*
X029873Y017701D02*
X035397D01*
X026575Y020999D02*
X029873Y017701D01*
X024544Y020999D02*
X026575D01*
X042205Y012327D02*
X042627Y012749D01*
X042165Y012327D02*
X042205D01*
X042165Y015425D02*
Y016972D01*
X042165Y016972D02*
X042165Y016972D01*
Y015425D02*
X042165Y015425D01*
X041203Y015425D02*
Y016972D01*
X041203Y016972D02*
X041203Y016972D01*
Y015425D02*
X041203Y015425D01*
X041164Y017759D02*
X041203D01*
X035068Y019291D02*
X039631D01*
X034922Y018376D02*
Y019145D01*
X039631Y019291D02*
X041164Y017759D01*
X034922Y019145D02*
X035068Y019291D01*
X033922Y018376D02*
Y019119D01*
X034528Y019724D01*
X045255Y016519D02*
Y016904D01*
Y016519D02*
X046649Y015126D01*
X045232Y013709D02*
X046649Y015126D01*
X045183Y016976D02*
X045255Y016904D01*
X045183Y016976D02*
Y017846D01*
X045232Y011853D02*
Y013709D01*
Y011041D02*
Y011853D01*
X045304Y010598D02*
Y010969D01*
Y010598D02*
X046697Y009205D01*
X045232Y011041D02*
X045304Y010969D01*
X029501Y010709D02*
Y011493D01*
X023114Y015583D02*
X023121Y015576D01*
X028026Y014685D02*
X034244Y008467D01*
X026827Y014685D02*
X028026D01*
X025239Y016273D02*
X026827Y014685D01*
X035922Y018376D02*
Y018526D01*
X033703Y008117D02*
X036229D01*
X029501Y012281D02*
X02954D01*
X036229Y008117D02*
X040528Y003819D01*
X02954Y012281D02*
X033703Y008117D01*
X027087Y012281D02*
X027749D01*
X025101Y014266D02*
X027087Y012281D01*
X025101Y014266D02*
Y014973D01*
X028612Y012281D02*
X029501D01*
X029501Y012281D01*
X027749Y012281D02*
X028612D01*
X028612Y012281D01*
X027753Y012284D02*
Y013816D01*
X027756Y013819D01*
X027749Y012281D02*
X027753Y012284D01*
X027756Y015551D02*
X027913Y015709D01*
Y016946D02*
X027924Y016957D01*
Y017093D02*
X027974Y017143D01*
X027924Y016957D02*
Y017093D01*
X027913Y015709D02*
Y016946D01*
X027974Y017143D02*
X028024D01*
X024842Y019126D02*
X026365D01*
X027924Y017093D02*
Y017567D01*
X024544Y019424D02*
X024842Y019126D01*
X026365D02*
X027924Y017567D01*
X009826Y003143D02*
X011838D01*
X012482Y003787D01*
X007817Y005152D02*
X009826Y003143D01*
X012482Y006787D02*
Y007812D01*
X012482Y007812D02*
X012482Y007812D01*
X018116Y020574D02*
Y022108D01*
X015912Y017895D02*
Y018829D01*
X014154Y020537D02*
X015021D01*
X014285Y020668D02*
Y021977D01*
X014378Y02207D02*
Y022109D01*
X014154Y020537D02*
X014285Y020668D01*
Y021977D02*
X014378Y02207D01*
X014154Y019414D02*
Y020537D01*
X014652Y018916D02*
X015865D01*
X014154Y019414D02*
X014652Y018916D01*
X015912Y018829D02*
Y018869D01*
X015865Y018916D02*
X015912Y018869D01*
X032538Y02456D02*
X033114D01*
X028094Y024167D02*
X029387D01*
X028735Y022141D02*
Y023515D01*
Y022141D02*
X028881Y021994D01*
X030463D01*
X031028Y022559D01*
X03115D01*
X028735Y023515D02*
X029387Y024167D01*
X029426D01*
X030492Y024953D02*
X031751D01*
X033339Y023589D02*
X033938D01*
X032309Y022559D02*
X033339Y023589D01*
X015021Y020537D02*
X016629Y022145D01*
X017292D01*
X012675Y022421D02*
X012722Y022374D01*
X012761D02*
X013026Y022109D01*
X014378D01*
X012722Y022374D02*
X012761D01*
X033938Y024773D02*
X033985Y02482D01*
Y025142D01*
X033938Y023589D02*
Y024773D01*
X03115Y022559D02*
X032309D01*
X029426Y024167D02*
X029466D01*
X027988Y024273D02*
X028094Y024167D01*
X027257Y023535D02*
X027988Y024265D01*
X025197Y023535D02*
X027257D01*
X027988Y024265D02*
Y024305D01*
X022459Y021352D02*
X022812Y020999D01*
X022419Y021352D02*
X022459D01*
X022812Y020999D02*
X024544D01*
X021265Y02252D02*
Y024159D01*
X021372Y024265D01*
Y024344D01*
X022333Y021399D02*
Y021452D01*
X02238Y021352D02*
X022419D01*
X021265Y02252D02*
X022333Y021452D01*
Y021399D02*
X02238Y021352D01*
X018614Y023727D02*
X019737Y02485D01*
X020866D02*
X021372Y024344D01*
X018614Y023609D02*
Y023727D01*
X019737Y02485D02*
X020866D01*
X010157Y023734D02*
X011274Y02485D01*
X012327D02*
X012833Y024344D01*
X010157Y023616D02*
Y023734D01*
X011274Y02485D02*
X012327D01*
X012833Y024305D02*
Y024344D01*
X012675Y024108D02*
X012833Y024265D01*
Y024305D01*
D93*
X029826Y024943D02*
X030002Y024767D01*
Y024388D02*
Y024767D01*
X030178Y024213D02*
X030454D01*
X030002Y024388D02*
X030178Y024213D01*
X029438Y024943D02*
X029826D01*
X029426Y024954D02*
X029438Y024943D01*
X011833Y023494D02*
Y024305D01*
Y022554D02*
Y023494D01*
X009504Y022933D02*
X011271D01*
X011833Y023494D01*
X030085Y027458D02*
X030217Y027325D01*
X030903D01*
X027989Y027458D02*
X030085D01*
X030903Y027325D02*
X030917Y027311D01*
X035936Y026516D02*
X036371Y026951D01*
X030917Y026692D02*
Y027311D01*
Y026692D02*
X031093Y026516D01*
X035936D01*
X040529Y026811D02*
Y028254D01*
X040354Y026635D02*
X040529Y026811D01*
X037624D02*
Y027545D01*
X0378Y026635D02*
X040354D01*
X037624Y026811D02*
X0378Y026635D01*
X035684Y02315D02*
Y02454D01*
X034725Y024773D02*
X03545D01*
X035684Y02454D01*
X023984Y016909D02*
Y017316D01*
X024344Y016503D02*
Y01655D01*
X023984Y016909D02*
X024344Y01655D01*
X025675Y017363D02*
X026289Y016749D01*
X026328D01*
X023937Y017363D02*
X025675D01*
X042662Y02516D02*
X042682Y025181D01*
X046124D02*
X046157Y025148D01*
X035233Y0227D02*
X035684Y02315D01*
X034829Y0227D02*
X035233D01*
X034782Y022653D02*
X034829Y0227D01*
X034782Y022613D02*
Y022653D01*
X03639Y027541D02*
X036392Y027543D01*
X036371Y027522D02*
X03639Y027541D01*
X020363Y02356D02*
Y024296D01*
Y022821D02*
Y02356D01*
X020372Y023568D01*
X019729Y022926D02*
X020363Y02356D01*
X00622Y028604D02*
Y029175D01*
Y028051D02*
Y028604D01*
X030496Y024166D02*
X031751D01*
X026988Y024954D02*
X029426D01*
X030454Y024213D02*
X030496Y024171D01*
X00563Y027461D02*
X00622Y028051D01*
X00563Y026339D02*
Y027461D01*
X006396Y029351D02*
X011087D01*
X00622Y029175D02*
X006396Y029351D01*
X010419Y005491D02*
Y005999D01*
X01142Y003849D02*
Y00449D01*
X010419Y005491D02*
X01142Y00449D01*
X019168Y020551D02*
X022405D01*
X0171Y022926D02*
X019729D01*
X020431Y022606D02*
Y022753D01*
X020363Y022821D02*
X020431Y022753D01*
Y022606D02*
X020478Y022559D01*
Y022078D02*
Y022559D01*
X015171Y022933D02*
Y023786D01*
X015169Y023788D02*
X015171Y023786D01*
X008243Y025781D02*
X009177Y024848D01*
Y02326D02*
Y024848D01*
Y02326D02*
X009504Y022933D01*
X036371Y026951D02*
Y027522D01*
X026965Y027455D02*
X026988Y027432D01*
X026696Y027724D02*
X026965Y027455D01*
X027987D01*
X027989Y027458D01*
X025764Y027724D02*
X026696D01*
X026988Y024954D02*
Y027432D01*
X029418Y022559D02*
X030277D01*
X030452Y022735D02*
Y024127D01*
X030277Y022559D02*
X030452Y022735D01*
X026988Y024954D02*
X026988Y024954D01*
X026988Y024305D02*
Y024954D01*
X01142Y003849D02*
X011482Y003787D01*
X025811Y027638D02*
X025953D01*
X025764Y027685D02*
Y027724D01*
Y027685D02*
X025811Y027638D01*
X025362Y025432D02*
Y026516D01*
X0257Y026854D02*
X025739D01*
X025786Y026901D02*
Y02694D01*
X025197Y025267D02*
X025362Y025432D01*
Y026516D02*
X0257Y026854D01*
X025739D02*
X025786Y026901D01*
X014866Y029607D02*
X016986D01*
X014346Y029512D02*
X014771D01*
X01359Y028756D02*
X014346Y029512D01*
X012921Y028756D02*
X01359D01*
X014771Y029512D02*
X014866Y029607D01*
X012872Y028707D02*
X012921Y028756D01*
X016425Y028662D02*
X016472Y028616D01*
Y028576D02*
X016668Y028381D01*
X017647D02*
X017647Y02838D01*
X016668Y028381D02*
X017647D01*
X016472Y028576D02*
Y028616D01*
X016386Y028662D02*
X016425D01*
X017647Y02838D02*
X018751D01*
X016386Y027875D02*
X016389Y027878D01*
X018749D01*
X018751Y02788D01*
X006429Y026351D02*
Y027474D01*
X007611Y028655D01*
X00563Y026339D02*
X00566Y026309D01*
X041452Y029331D02*
X042529Y028254D01*
X038502Y029331D02*
X041452D01*
X020956Y02888D02*
Y02938D01*
X023937Y017363D02*
X023984Y017316D01*
X023908Y015576D02*
X024344D01*
X017446Y018829D02*
X019154Y020537D01*
X022405Y020551D02*
X022419Y020565D01*
X019154Y020537D02*
X019168Y020551D01*
X016699Y018829D02*
X017446D01*
X020478Y022078D02*
X021991Y020565D01*
X02213Y017363D02*
X02315D01*
X026328Y016749D02*
X027236D01*
X026328Y016749D02*
X026328Y016749D01*
X027236D02*
X027236Y016749D01*
X026328Y017536D02*
X027236D01*
X026328Y017536D02*
X026328Y017536D01*
X027236D02*
X027236Y017536D01*
X017429Y002638D02*
X021292D01*
X014882D02*
X017402D01*
X021292D02*
X023031Y004377D01*
X018079Y022145D02*
X018116Y022108D01*
Y020574D02*
X018154Y020537D01*
X016699Y017895D02*
Y018829D01*
X031751Y024166D02*
X031751Y024166D01*
X031751Y024953D02*
X031751Y024953D01*
X011087Y029351D02*
X012563Y027875D01*
X014935D01*
X017093Y022933D02*
X0171Y022926D01*
X015171Y022933D02*
X017093D01*
X014935Y026802D02*
Y027875D01*
X021991Y020565D02*
X022419D01*
X007611Y028655D02*
X00982D01*
X009872Y028707D01*
X018651Y025304D02*
X02516D01*
X018614Y025341D02*
X018651Y025304D01*
X02516D02*
X025197Y025267D01*
X010161Y025345D02*
X018611D01*
X010157Y025348D02*
X010161Y025345D01*
X018611D02*
X018614Y025341D01*
X006417Y026339D02*
X009916D01*
X010157Y025348D02*
Y026097D01*
X009916Y026339D02*
X010157Y026097D01*
X006417Y026339D02*
X006429Y026351D01*
X011833Y022554D02*
X011888Y022499D01*
Y02246D02*
Y022499D01*
X00566Y025957D02*
Y026309D01*
X005836Y025781D02*
X008243D01*
X00566Y025957D02*
X005836Y025781D01*
X018751Y02938D02*
X020956D01*
X016986Y029607D02*
X017713Y02888D01*
X018751D01*
X014935Y027875D02*
X016386D01*
X024949Y028897D02*
X027298D01*
X022036Y02788D02*
X022976Y02694D01*
X024999D01*
X020956Y02788D02*
X022036D01*
X022615Y028017D02*
X024069D01*
X020956Y02838D02*
X022252D01*
X022615Y028017D01*
X024988Y026951D02*
Y027713D01*
Y026951D02*
X024999Y02694D01*
X024977Y027724D02*
X024988Y027713D01*
X024069Y028017D02*
X024949Y028897D01*
X023323Y02888D02*
X02334Y028897D01*
X020956Y02888D02*
X023323D01*
X02795Y028245D02*
X027989D01*
X027298Y028897D02*
X02795Y028245D01*
X030914Y029337D02*
X034591D01*
X029822Y028245D02*
X030903Y029325D01*
X027989Y028245D02*
X029822D01*
X034591Y029337D02*
X034619Y029309D01*
X030903Y029325D02*
X030914Y029337D01*
X034619Y027579D02*
Y029309D01*
Y027579D02*
X034658Y027541D01*
X036312Y029348D02*
X036431D01*
X036931Y029848D02*
X038196D01*
X036431Y029348D02*
X036931Y029848D01*
X038196D02*
X038456Y029589D01*
Y029378D02*
Y029589D01*
Y029378D02*
X038502Y029331D01*
X036392Y027543D02*
X037622D01*
X037715Y029291D02*
X038412Y028595D01*
Y027545D02*
Y028595D01*
X037715Y029291D02*
Y029331D01*
D94*
X042662Y021223D02*
X04608D01*
X037677Y023191D02*
X046103D01*
X042682Y025181D02*
X046124D01*
D95*
X040529Y028254D02*
D03*
X042529D02*
D03*
X036026Y00439D02*
D03*
X034026D02*
D03*
X023031D02*
D03*
X021031D02*
D03*
D96*
X030903Y029325D02*
D03*
D97*
Y027325D02*
D03*
X007559Y028604D02*
D03*
X00622D02*
D03*
D98*
X020372Y024305D02*
D03*
X011833D02*
D03*
X026988D02*
D03*
D99*
X021372D02*
D03*
X012833D02*
D03*
X027988D02*
D03*
D100*
X038646Y02516D02*
D03*
X042662Y021223D02*
D03*
X037662Y023191D02*
D03*
X042662Y02516D02*
D03*
X038646Y021223D02*
D03*
D101*
X005326Y021534D02*
D03*
X005343Y025064D02*
D03*
X005296Y010147D02*
D03*
X005265Y017802D02*
D03*
X005261Y006303D02*
D03*
X005301Y014117D02*
D03*
D102*
X005326Y020534D02*
D03*
X005343Y024064D02*
D03*
X005296Y009147D02*
D03*
X005265Y016802D02*
D03*
X005261Y005303D02*
D03*
X005301Y013117D02*
D03*
D103*
X002921Y006484D02*
D03*
X002939Y014217D02*
D03*
Y025164D02*
D03*
Y021558D02*
D03*
Y017885D02*
D03*
X046649Y016126D02*
D03*
Y015126D02*
D03*
Y014126D02*
D03*
X046697Y010205D02*
D03*
Y009205D02*
D03*
Y008205D02*
D03*
X010482Y003787D02*
D03*
X011482D02*
D03*
X039528Y003819D02*
D03*
X002917Y010316D02*
D03*
D104*
X002921Y005484D02*
D03*
X002939Y013217D02*
D03*
Y024164D02*
D03*
Y020558D02*
D03*
Y016885D02*
D03*
X046649Y017126D02*
D03*
X046697Y011205D02*
D03*
X002917Y009316D02*
D03*
D105*
X002047Y028655D02*
D03*
Y002047D02*
D03*
X047559D02*
D03*
Y028661D02*
D03*
D106*
X031922Y012276D02*
D03*
D107*
X032922D02*
D03*
X033922D02*
D03*
X034922D02*
D03*
X035922D02*
D03*
X036922D02*
D03*
X037922D02*
D03*
X038922D02*
D03*
X031922Y018376D02*
D03*
X032922D02*
D03*
X033922D02*
D03*
X034922D02*
D03*
X035922D02*
D03*
X036922D02*
D03*
X037922D02*
D03*
X038922D02*
D03*
D108*
X046316Y004655D02*
D03*
X043166Y006407D02*
D03*
X045135Y004655D02*
D03*
X04356D02*
D03*
D109*
X017402Y004449D02*
D03*
X014882Y002638D02*
D03*
Y004449D02*
D03*
X017402Y002638D02*
D03*
X027087D02*
D03*
X029606Y004449D02*
D03*
Y002638D02*
D03*
X027087Y004449D02*
D03*
D110*
X012482Y003787D02*
D03*
X040528Y003819D02*
D03*
D111*
X046113Y023201D02*
D03*
Y021201D02*
D03*
Y025201D02*
D03*
D112*
X014154Y020537D02*
D03*
D113*
X016346Y016271D02*
D03*
X018154Y018574D02*
D03*
X015842Y014539D02*
D03*
X014444Y014621D02*
D03*
X015334Y01757D02*
D03*
X018287Y016522D02*
D03*
X015817Y01533D02*
D03*
X018808Y014843D02*
D03*
X013872Y014988D02*
D03*
X020269Y017407D02*
D03*
X035198Y024213D02*
D03*
X045082Y007704D02*
D03*
X024344Y016503D02*
D03*
X043734Y017487D02*
D03*
X043743Y016914D02*
D03*
X019486Y016105D02*
D03*
X019914Y015725D02*
D03*
X020499Y015335D02*
D03*
X018476Y014365D02*
D03*
X022298Y014143D02*
D03*
X038447Y008269D02*
D03*
X030468Y006978D02*
D03*
X011999Y011865D02*
D03*
X011747Y01921D02*
D03*
X015169Y023788D02*
D03*
X00855Y01687D02*
D03*
X00854Y01299D02*
D03*
X030584Y025495D02*
D03*
X024344Y015576D02*
D03*
X010561Y021597D02*
D03*
X019911Y019848D02*
D03*
X008541Y020321D02*
D03*
Y005152D02*
D03*
X008541Y00878D02*
D03*
X02213Y007644D02*
D03*
X01874D02*
D03*
X029449Y009205D02*
D03*
X031026Y005551D02*
D03*
X041693Y011356D02*
D03*
X043802Y011038D02*
D03*
Y011853D02*
D03*
X028881Y021254D02*
D03*
X030971Y021264D02*
D03*
X033114Y02456D02*
D03*
X014935Y026802D02*
D03*
M02*
