G04*
G04 #@! TF.GenerationSoftware,Altium Limited,Altium Designer,23.11.1 (41)*
G04*
G04 Layer_Color=255*
%FSTAX24Y24*%
%MOIN*%
G70*
G04*
G04 #@! TF.SameCoordinates,027617FE-0855-4198-9E67-A804299B83E6*
G04*
G04*
G04 #@! TF.FilePolarity,Positive*
G04*
G01*
G75*
%ADD17C,0.0630*%
%ADD35R,0.0630X0.0866*%
G04:AMPARAMS|DCode=36|XSize=63mil|YSize=86.6mil|CornerRadius=15.7mil|HoleSize=0mil|Usage=FLASHONLY|Rotation=0.000|XOffset=0mil|YOffset=0mil|HoleType=Round|Shape=RoundedRectangle|*
%AMROUNDEDRECTD36*
21,1,0.0630,0.0551,0,0,0.0*
21,1,0.0315,0.0866,0,0,0.0*
1,1,0.0315,0.0157,-0.0276*
1,1,0.0315,-0.0157,-0.0276*
1,1,0.0315,-0.0157,0.0276*
1,1,0.0315,0.0157,0.0276*
%
%ADD36ROUNDEDRECTD36*%
%ADD37R,0.0787X0.0787*%
G04:AMPARAMS|DCode=39|XSize=39.4mil|YSize=47.2mil|CornerRadius=9.8mil|HoleSize=0mil|Usage=FLASHONLY|Rotation=90.000|XOffset=0mil|YOffset=0mil|HoleType=Round|Shape=RoundedRectangle|*
%AMROUNDEDRECTD39*
21,1,0.0394,0.0276,0,0,90.0*
21,1,0.0197,0.0472,0,0,90.0*
1,1,0.0197,0.0138,0.0098*
1,1,0.0197,0.0138,-0.0098*
1,1,0.0197,-0.0138,-0.0098*
1,1,0.0197,-0.0138,0.0098*
%
%ADD39ROUNDEDRECTD39*%
G04:AMPARAMS|DCode=41|XSize=39.4mil|YSize=47.2mil|CornerRadius=9.8mil|HoleSize=0mil|Usage=FLASHONLY|Rotation=180.000|XOffset=0mil|YOffset=0mil|HoleType=Round|Shape=RoundedRectangle|*
%AMROUNDEDRECTD41*
21,1,0.0394,0.0276,0,0,180.0*
21,1,0.0197,0.0472,0,0,180.0*
1,1,0.0197,-0.0098,0.0138*
1,1,0.0197,0.0098,0.0138*
1,1,0.0197,0.0098,-0.0138*
1,1,0.0197,-0.0098,-0.0138*
%
%ADD41ROUNDEDRECTD41*%
%ADD42R,0.0394X0.0472*%
%ADD43R,0.0472X0.0394*%
%ADD44R,0.0394X0.0669*%
%ADD45R,0.0450X0.0350*%
G04:AMPARAMS|DCode=46|XSize=63mil|YSize=86.6mil|CornerRadius=15.7mil|HoleSize=0mil|Usage=FLASHONLY|Rotation=90.000|XOffset=0mil|YOffset=0mil|HoleType=Round|Shape=RoundedRectangle|*
%AMROUNDEDRECTD46*
21,1,0.0630,0.0551,0,0,90.0*
21,1,0.0315,0.0866,0,0,90.0*
1,1,0.0315,0.0276,0.0157*
1,1,0.0315,0.0276,-0.0157*
1,1,0.0315,-0.0276,-0.0157*
1,1,0.0315,-0.0276,0.0157*
%
%ADD46ROUNDEDRECTD46*%
%ADD47R,0.0866X0.0630*%
G04:AMPARAMS|DCode=48|XSize=63mil|YSize=126mil|CornerRadius=15.7mil|HoleSize=0mil|Usage=FLASHONLY|Rotation=0.000|XOffset=0mil|YOffset=0mil|HoleType=Round|Shape=RoundedRectangle|*
%AMROUNDEDRECTD48*
21,1,0.0630,0.0945,0,0,0.0*
21,1,0.0315,0.1260,0,0,0.0*
1,1,0.0315,0.0157,-0.0472*
1,1,0.0315,-0.0157,-0.0472*
1,1,0.0315,-0.0157,0.0472*
1,1,0.0315,0.0157,0.0472*
%
%ADD48ROUNDEDRECTD48*%
%ADD49O,0.0787X0.0236*%
%ADD50R,0.2165X0.0846*%
%ADD51O,0.0709X0.0157*%
%ADD52R,0.0350X0.0450*%
%ADD53R,0.0669X0.0394*%
%ADD95R,0.0984X0.0984*%
%ADD96R,0.0591X0.0591*%
%ADD97C,0.0591*%
%ADD98O,0.0512X0.0591*%
%ADD99R,0.0512X0.0591*%
%ADD100O,0.1000X0.0900*%
%ADD101O,0.0591X0.0512*%
%ADD102R,0.0591X0.0512*%
%ADD103C,0.0787*%
G04:AMPARAMS|DCode=104|XSize=78.7mil|YSize=78.7mil|CornerRadius=0mil|HoleSize=0mil|Usage=FLASHONLY|Rotation=180.000|XOffset=0mil|YOffset=0mil|HoleType=Round|Shape=Octagon|*
%AMOCTAGOND104*
4,1,8,-0.0394,0.0197,-0.0394,-0.0197,-0.0197,-0.0394,0.0197,-0.0394,0.0394,-0.0197,0.0394,0.0197,0.0197,0.0394,-0.0197,0.0394,-0.0394,0.0197,0.0*
%
%ADD104OCTAGOND104*%

%ADD105C,0.2835*%
%ADD106R,0.0600X0.0900*%
%ADD107O,0.0600X0.0900*%
%ADD108O,0.1024X0.0551*%
%ADD109O,0.0945X0.0630*%
G04:AMPARAMS|DCode=110|XSize=78.7mil|YSize=78.7mil|CornerRadius=0mil|HoleSize=0mil|Usage=FLASHONLY|Rotation=270.000|XOffset=0mil|YOffset=0mil|HoleType=Round|Shape=Octagon|*
%AMOCTAGOND110*
4,1,8,-0.0197,-0.0394,0.0197,-0.0394,0.0394,-0.0197,0.0394,0.0197,0.0197,0.0394,-0.0197,0.0394,-0.0394,0.0197,-0.0394,-0.0197,-0.0197,-0.0394,0.0*
%
%ADD110OCTAGOND110*%

%ADD111R,0.0984X0.0787*%
%ADD112R,0.0630X0.0630*%
D17*
X019154Y020537D02*
D03*
X017154D02*
D03*
X016154D02*
D03*
X018154Y020537D02*
D03*
D35*
X025197Y025267D02*
D03*
X018614Y025341D02*
D03*
X027756Y015551D02*
D03*
X010157Y025348D02*
D03*
X014935Y027875D02*
D03*
D36*
X025197Y023535D02*
D03*
X018614Y023609D02*
D03*
X027756Y013819D02*
D03*
X010157Y023616D02*
D03*
X014935Y029607D02*
D03*
D37*
X012872Y028707D02*
D03*
X009872D02*
D03*
D39*
X007919Y024175D02*
D03*
Y023388D02*
D03*
X028612Y011493D02*
D03*
Y012281D02*
D03*
X029501Y012281D02*
D03*
Y011493D02*
D03*
X012482Y005999D02*
D03*
Y006787D02*
D03*
X029501Y010709D02*
D03*
Y009921D02*
D03*
X010419Y005999D02*
D03*
Y006787D02*
D03*
X012482Y0086D02*
D03*
X011436Y0086D02*
D03*
Y007812D02*
D03*
X010368Y0086D02*
D03*
Y007812D02*
D03*
X031026Y004488D02*
D03*
Y003701D02*
D03*
X018425Y004476D02*
D03*
Y003688D02*
D03*
X042165Y012327D02*
D03*
Y013115D02*
D03*
X041203Y012327D02*
D03*
Y013115D02*
D03*
X042165Y014638D02*
D03*
Y015425D02*
D03*
X041203Y014638D02*
D03*
Y015425D02*
D03*
X042165Y016972D02*
D03*
Y017759D02*
D03*
X041203Y016972D02*
D03*
Y017759D02*
D03*
X027749Y011493D02*
D03*
Y012281D02*
D03*
X007006Y009704D02*
D03*
Y010492D02*
D03*
X007816Y007992D02*
D03*
Y00878D02*
D03*
X006983Y00878D02*
D03*
Y007992D02*
D03*
X007007Y005865D02*
D03*
Y006652D02*
D03*
X007007Y005152D02*
D03*
Y004365D02*
D03*
X007777D02*
D03*
Y005152D02*
D03*
X006963Y014594D02*
D03*
Y013807D02*
D03*
X00701Y020307D02*
D03*
Y01952D02*
D03*
X007849Y019513D02*
D03*
Y020301D02*
D03*
X007781Y01605D02*
D03*
Y016837D02*
D03*
X006948Y016837D02*
D03*
Y01605D02*
D03*
X007145Y024175D02*
D03*
Y023388D02*
D03*
X006948Y018436D02*
D03*
Y017648D02*
D03*
X007013Y021912D02*
D03*
Y021125D02*
D03*
X007824Y012208D02*
D03*
Y012996D02*
D03*
X006963Y012996D02*
D03*
Y012208D02*
D03*
X027989Y027458D02*
D03*
Y028245D02*
D03*
X016386Y028662D02*
D03*
Y027875D02*
D03*
X022419Y020565D02*
D03*
Y021352D02*
D03*
X026328Y017536D02*
D03*
Y016749D02*
D03*
X029426Y024167D02*
D03*
Y024954D02*
D03*
X030492Y024166D02*
D03*
Y024953D02*
D03*
D41*
X024977Y027724D02*
D03*
X025764D02*
D03*
X006417Y026339D02*
D03*
X00563D02*
D03*
X037624Y027545D02*
D03*
X045232Y011041D02*
D03*
X044444D02*
D03*
X045232Y011853D02*
D03*
X044444D02*
D03*
X045183Y017846D02*
D03*
X044396D02*
D03*
X045183Y016976D02*
D03*
X044396D02*
D03*
X034782Y022613D02*
D03*
X033994D02*
D03*
X034725Y024773D02*
D03*
X038502Y029331D02*
D03*
X037715D02*
D03*
X007067Y024969D02*
D03*
X007854D02*
D03*
X025786Y02694D02*
D03*
X024999D02*
D03*
X017292Y022145D02*
D03*
X018079D02*
D03*
X023121Y014094D02*
D03*
X023908D02*
D03*
X015165Y022109D02*
D03*
X021342Y017363D02*
D03*
X02213D02*
D03*
X015912Y018829D02*
D03*
X016699D02*
D03*
X015912Y017895D02*
D03*
X016699D02*
D03*
X023937Y017363D02*
D03*
X02315D02*
D03*
X012675Y02246D02*
D03*
X011888D02*
D03*
X021265Y022559D02*
D03*
X020478D02*
D03*
X014384Y022933D02*
D03*
X015171D02*
D03*
X030324Y021264D02*
D03*
X029536D02*
D03*
D42*
X038412Y027545D02*
D03*
X033938Y024773D02*
D03*
X014378Y022109D02*
D03*
D43*
X012482Y007812D02*
D03*
D44*
X035237Y023589D02*
D03*
X033938D02*
D03*
D45*
X031751Y024953D02*
D03*
Y024166D02*
D03*
X032538Y02456D02*
D03*
X028024Y017143D02*
D03*
X027236Y016749D02*
D03*
Y017536D02*
D03*
D46*
X03639Y027541D02*
D03*
X03458Y029348D02*
D03*
X03115Y022559D02*
D03*
D47*
X034658Y027541D02*
D03*
X036312Y029348D02*
D03*
X029418Y022559D02*
D03*
D48*
X02334Y028897D02*
D03*
X025624D02*
D03*
D49*
X020956Y02788D02*
D03*
Y02838D02*
D03*
Y02888D02*
D03*
Y02938D02*
D03*
X018751Y02788D02*
D03*
Y02838D02*
D03*
Y02888D02*
D03*
Y02938D02*
D03*
D50*
X024544Y019424D02*
D03*
Y020999D02*
D03*
D51*
X015126Y016824D02*
D03*
Y016568D02*
D03*
Y016312D02*
D03*
Y016056D02*
D03*
Y0158D02*
D03*
Y015544D02*
D03*
Y015288D02*
D03*
Y015033D02*
D03*
Y014777D02*
D03*
Y014521D02*
D03*
X01741Y016824D02*
D03*
Y016568D02*
D03*
Y016312D02*
D03*
Y016056D02*
D03*
Y0158D02*
D03*
Y015544D02*
D03*
Y015288D02*
D03*
Y015033D02*
D03*
Y014777D02*
D03*
Y014521D02*
D03*
D52*
X023514Y016364D02*
D03*
X023908Y015576D02*
D03*
X023121D02*
D03*
D53*
X025101Y016273D02*
D03*
Y014973D02*
D03*
D95*
X040529Y028254D02*
D03*
X042529D02*
D03*
X036026Y00439D02*
D03*
X034026D02*
D03*
X023031D02*
D03*
X021031D02*
D03*
D96*
X030903Y029325D02*
D03*
D97*
Y027325D02*
D03*
X007559Y028604D02*
D03*
X00622D02*
D03*
D98*
X020372Y024305D02*
D03*
X011833D02*
D03*
X026988D02*
D03*
D99*
X021372D02*
D03*
X012833D02*
D03*
X027988D02*
D03*
D100*
X038646Y02516D02*
D03*
X042662Y021223D02*
D03*
X037662Y023191D02*
D03*
X042662Y02516D02*
D03*
X038646Y021223D02*
D03*
D101*
X005326Y021534D02*
D03*
X005343Y025064D02*
D03*
X005296Y010147D02*
D03*
X005265Y017802D02*
D03*
X005261Y006303D02*
D03*
X005301Y014117D02*
D03*
D102*
X005326Y020534D02*
D03*
X005343Y024064D02*
D03*
X005296Y009147D02*
D03*
X005265Y016802D02*
D03*
X005261Y005303D02*
D03*
X005301Y013117D02*
D03*
D103*
X002921Y006484D02*
D03*
X002939Y014217D02*
D03*
Y025164D02*
D03*
Y021558D02*
D03*
Y017885D02*
D03*
X046649Y016126D02*
D03*
Y015126D02*
D03*
Y014126D02*
D03*
X046697Y010205D02*
D03*
Y009205D02*
D03*
Y008205D02*
D03*
X010482Y003787D02*
D03*
X011482D02*
D03*
X039528Y003819D02*
D03*
X002917Y010316D02*
D03*
D104*
X002921Y005484D02*
D03*
X002939Y013217D02*
D03*
Y024164D02*
D03*
Y020558D02*
D03*
Y016885D02*
D03*
X046649Y017126D02*
D03*
X046697Y011205D02*
D03*
X002917Y009316D02*
D03*
D105*
X002047Y028655D02*
D03*
Y002047D02*
D03*
X047559D02*
D03*
Y028661D02*
D03*
D106*
X031922Y012276D02*
D03*
D107*
X032922D02*
D03*
X033922D02*
D03*
X034922D02*
D03*
X035922D02*
D03*
X036922D02*
D03*
X037922D02*
D03*
X038922D02*
D03*
X031922Y018376D02*
D03*
X032922D02*
D03*
X033922D02*
D03*
X034922D02*
D03*
X035922D02*
D03*
X036922D02*
D03*
X037922D02*
D03*
X038922D02*
D03*
D108*
X046316Y004655D02*
D03*
X043166Y006407D02*
D03*
X045135Y004655D02*
D03*
X04356D02*
D03*
D109*
X017402Y004449D02*
D03*
X014882Y002638D02*
D03*
Y004449D02*
D03*
X017402Y002638D02*
D03*
X027087D02*
D03*
X029606Y004449D02*
D03*
Y002638D02*
D03*
X027087Y004449D02*
D03*
D110*
X012482Y003787D02*
D03*
X040528Y003819D02*
D03*
D111*
X046113Y023201D02*
D03*
Y021201D02*
D03*
Y025201D02*
D03*
D112*
X014154Y020537D02*
D03*
M02*
