G04*
G04 #@! TF.GenerationSoftware,Altium Limited,Altium Designer,23.11.1 (41)*
G04*
G04 Layer_Color=255*
%FSTAX24Y24*%
%MOIN*%
G70*
G04*
G04 #@! TF.SameCoordinates,027617FE-0855-4198-9E67-A804299B83E6*
G04*
G04*
G04 #@! TF.FilePolarity,Positive*
G04*
G01*
G75*
%ADD17C,0.0630*%
%ADD95R,0.0984X0.0984*%
%ADD96R,0.0591X0.0591*%
%ADD97C,0.0591*%
%ADD98O,0.0512X0.0591*%
%ADD99R,0.0512X0.0591*%
%ADD100O,0.1000X0.0900*%
%ADD101O,0.0591X0.0512*%
%ADD102R,0.0591X0.0512*%
%ADD103C,0.0787*%
G04:AMPARAMS|DCode=104|XSize=78.7mil|YSize=78.7mil|CornerRadius=0mil|HoleSize=0mil|Usage=FLASHONLY|Rotation=180.000|XOffset=0mil|YOffset=0mil|HoleType=Round|Shape=Octagon|*
%AMOCTAGOND104*
4,1,8,-0.0394,0.0197,-0.0394,-0.0197,-0.0197,-0.0394,0.0197,-0.0394,0.0394,-0.0197,0.0394,0.0197,0.0197,0.0394,-0.0197,0.0394,-0.0394,0.0197,0.0*
%
%ADD104OCTAGOND104*%

%ADD105C,0.2835*%
%ADD106R,0.0600X0.0900*%
%ADD107O,0.0600X0.0900*%
%ADD108O,0.1024X0.0551*%
%ADD109O,0.0945X0.0630*%
G04:AMPARAMS|DCode=110|XSize=78.7mil|YSize=78.7mil|CornerRadius=0mil|HoleSize=0mil|Usage=FLASHONLY|Rotation=270.000|XOffset=0mil|YOffset=0mil|HoleType=Round|Shape=Octagon|*
%AMOCTAGOND110*
4,1,8,-0.0197,-0.0394,0.0197,-0.0394,0.0394,-0.0197,0.0394,0.0197,0.0197,0.0394,-0.0197,0.0394,-0.0394,0.0197,-0.0394,-0.0197,-0.0197,-0.0394,0.0*
%
%ADD110OCTAGOND110*%

%ADD111R,0.0984X0.0787*%
%ADD112R,0.0630X0.0630*%
D17*
X019154Y020537D02*
D03*
X017154D02*
D03*
X016154D02*
D03*
X018154Y020537D02*
D03*
D95*
X040529Y028254D02*
D03*
X042529D02*
D03*
X036026Y00439D02*
D03*
X034026D02*
D03*
X023031D02*
D03*
X021031D02*
D03*
D96*
X030903Y029325D02*
D03*
D97*
Y027325D02*
D03*
X007559Y028604D02*
D03*
X00622D02*
D03*
D98*
X020372Y024305D02*
D03*
X011833D02*
D03*
X026988D02*
D03*
D99*
X021372D02*
D03*
X012833D02*
D03*
X027988D02*
D03*
D100*
X038646Y02516D02*
D03*
X042662Y021223D02*
D03*
X037662Y023191D02*
D03*
X042662Y02516D02*
D03*
X038646Y021223D02*
D03*
D101*
X005326Y021534D02*
D03*
X005343Y025064D02*
D03*
X005296Y010147D02*
D03*
X005265Y017802D02*
D03*
X005261Y006303D02*
D03*
X005301Y014117D02*
D03*
D102*
X005326Y020534D02*
D03*
X005343Y024064D02*
D03*
X005296Y009147D02*
D03*
X005265Y016802D02*
D03*
X005261Y005303D02*
D03*
X005301Y013117D02*
D03*
D103*
X002921Y006484D02*
D03*
X002939Y014217D02*
D03*
Y025164D02*
D03*
Y021558D02*
D03*
Y017885D02*
D03*
X046649Y016126D02*
D03*
Y015126D02*
D03*
Y014126D02*
D03*
X046697Y010205D02*
D03*
Y009205D02*
D03*
Y008205D02*
D03*
X010482Y003787D02*
D03*
X011482D02*
D03*
X039528Y003819D02*
D03*
X002917Y010316D02*
D03*
D104*
X002921Y005484D02*
D03*
X002939Y013217D02*
D03*
Y024164D02*
D03*
Y020558D02*
D03*
Y016885D02*
D03*
X046649Y017126D02*
D03*
X046697Y011205D02*
D03*
X002917Y009316D02*
D03*
D105*
X002047Y028655D02*
D03*
Y002047D02*
D03*
X047559D02*
D03*
Y028661D02*
D03*
D106*
X031922Y012276D02*
D03*
D107*
X032922D02*
D03*
X033922D02*
D03*
X034922D02*
D03*
X035922D02*
D03*
X036922D02*
D03*
X037922D02*
D03*
X038922D02*
D03*
X031922Y018376D02*
D03*
X032922D02*
D03*
X033922D02*
D03*
X034922D02*
D03*
X035922D02*
D03*
X036922D02*
D03*
X037922D02*
D03*
X038922D02*
D03*
D108*
X046316Y004655D02*
D03*
X043166Y006407D02*
D03*
X045135Y004655D02*
D03*
X04356D02*
D03*
D109*
X017402Y004449D02*
D03*
X014882Y002638D02*
D03*
Y004449D02*
D03*
X017402Y002638D02*
D03*
X027087D02*
D03*
X029606Y004449D02*
D03*
Y002638D02*
D03*
X027087Y004449D02*
D03*
D110*
X012482Y003787D02*
D03*
X040528Y003819D02*
D03*
D111*
X046113Y023201D02*
D03*
Y021201D02*
D03*
Y025201D02*
D03*
D112*
X014154Y020537D02*
D03*
M02*
